# Blender 4.4.3
# www.blender.org
mtllib t200_prop_ccw.mtl
o mesh3
v -0.011659 -0.016253 0.024850
v -0.007893 -0.018379 0.024850
v -0.003757 -0.019646 0.024850
v 0.000554 -0.019995 0.024850
v 0.019414 -0.004815 0.024850
v 0.019995 -0.000529 0.024850
v 0.019642 0.003782 0.024850
v 0.018370 0.007916 0.024850
v -0.006909 0.018771 0.024850
v -0.010783 0.016847 0.024850
v -0.014153 0.014135 0.024850
v -0.016860 0.010762 0.024850
v -0.019821 0.002688 0.024850
v -0.018780 0.006886 0.024850
v -0.019935 -0.001636 0.024850
v -0.019118 -0.005883 0.024850
v -0.017406 -0.009855 0.024850
v -0.014881 -0.013367 0.024850
v 0.013348 0.014897 0.024850
v 0.016239 0.011679 0.024850
v 0.009834 0.017418 0.024850
v 0.005859 0.019125 0.024850
v 0.001611 0.019938 0.024850
v -0.002713 0.019818 0.024850
v 0.008898 -0.017914 0.024850
v 0.004839 -0.019408 0.024850
v 0.015598 -0.012522 0.024850
v 0.012541 -0.015582 0.024850
v 0.017925 -0.008876 0.024850
v 0.015019 0.010802 0.024850
v 0.012346 0.013778 0.024850
v 0.016990 0.007321 0.024850
v 0.018166 0.003497 0.024850
v 0.016579 -0.008210 0.024850
v 0.017956 -0.004454 0.024850
v 0.009095 0.016110 0.024850
v 0.018493 -0.000490 0.024850
v 0.005419 0.017689 0.024850
v 0.014426 -0.011581 0.024850
v 0.001490 0.018440 0.024850
v -0.006390 0.017361 0.024850
v -0.009973 0.015582 0.024850
v -0.013090 0.013073 0.024850
v -0.002509 0.018329 0.024850
v -0.015594 0.009954 0.024850
v -0.018332 0.002486 0.024850
v -0.017369 0.006369 0.024850
v -0.018438 -0.001513 0.024850
v -0.007300 -0.016999 0.024850
v -0.010784 -0.015032 0.024850
v -0.003475 -0.018171 0.024850
v 0.004476 -0.017950 0.024850
v 0.000512 -0.018493 0.024850
v 0.008230 -0.016569 0.024850
v -0.013763 -0.012363 0.024850
v 0.011599 -0.014412 0.024850
v -0.017682 -0.005441 0.024850
v -0.016099 -0.009115 0.024850
v -0.037621 -0.006011 0.005723
v -0.037606 -0.006129 0.005530
v -0.037843 -0.004425 0.005549
v -0.037794 -0.004979 0.004862
v -0.038122 0.000199 0.003986
v -0.038105 0.001028 0.002494
v -0.037362 0.007436 -0.000003
v -0.037559 0.006406 0.000847
v -0.037887 0.004061 0.002237
v -0.037588 -0.006092 0.005641
v -0.037927 -0.003848 0.004429
v -0.038125 -0.000474 0.004238
v -0.038100 0.000061 0.002885
v -0.037546 0.006482 0.000310
v -0.037371 0.007429 0.000010
v -0.037960 0.003262 0.001572
v -0.037881 0.004056 0.002216
v -0.016908 -0.010685 0.013103
v -0.015355 -0.012823 0.015390
v -0.013900 -0.014389 0.018098
v -0.013977 -0.014294 0.018232
v -0.015878 -0.012191 0.016584
v -0.017751 -0.009254 0.014138
v -0.019118 -0.005883 0.011419
v -0.019767 -0.003076 0.009279
v -0.020004 -0.000154 0.006866
v -0.019875 0.002236 0.004655
v -0.019323 0.005179 0.000799
v -0.019708 0.003489 0.002070
v -0.020000 -0.000201 0.004838
v -0.019751 -0.003157 0.007009
v -0.018199 -0.008298 0.010964
v -0.019118 -0.005883 0.009039
v -0.024970 -0.004927 0.006951
v -0.025100 0.005363 0.001106
v -0.022329 -0.013239 0.012456
v -0.019862 -0.013877 0.013968
v -0.021591 0.005225 0.001037
v -0.016458 -0.014432 0.016235
v -0.030570 -0.002106 0.006031
v -0.023775 -0.010127 0.011604
v -0.020824 -0.013565 0.013625
v -0.026668 -0.011672 0.010227
v -0.031213 0.004687 0.002075
v -0.030088 -0.007037 0.008196
v -0.031636 0.006189 0.000701
v -0.033216 -0.008548 0.007252
v -0.030178 -0.009793 0.008112
v -0.017682 -0.005441 -0.004150
v -0.018438 -0.001513 -0.004150
v -0.018332 0.002486 -0.004150
v -0.017369 0.006369 -0.004150
v -0.015594 0.009954 -0.004150
v -0.013090 0.013073 -0.004150
v -0.009973 0.015582 -0.004150
v -0.006390 0.017361 -0.004150
v -0.002509 0.018329 -0.004150
v 0.001490 0.018440 -0.004150
v 0.005419 0.017688 -0.004150
v 0.009095 0.016110 -0.004150
v 0.012346 0.013778 -0.004150
v 0.015019 0.010802 -0.004150
v 0.016990 0.007321 -0.004150
v 0.018166 0.003497 -0.004150
v 0.018493 -0.000490 -0.004150
v 0.017956 -0.004454 -0.004150
v 0.016579 -0.008210 -0.004150
v 0.014426 -0.011582 -0.004150
v 0.011599 -0.014412 -0.004150
v 0.008230 -0.016569 -0.004150
v 0.004476 -0.017950 -0.004150
v 0.000512 -0.018493 -0.004150
v -0.003475 -0.018171 -0.004150
v -0.007300 -0.016999 -0.004150
v -0.010784 -0.015032 -0.004150
v -0.013763 -0.012363 -0.004150
v -0.016099 -0.009115 -0.004150
v 0.000764 -0.005580 -0.004150
v 0.002491 -0.005015 -0.004150
v 0.003985 -0.003980 -0.004150
v 0.003524 0.008598 -0.004150
v 0.003685 0.009248 -0.004150
v -0.003114 -0.008064 -0.004150
v -0.003759 -0.004195 -0.004150
v -0.004873 -0.002759 -0.004150
v -0.002338 -0.007745 -0.004150
v -0.001650 -0.005385 -0.004150
v 0.005288 -0.001939 -0.004150
v 0.004901 0.002775 -0.004150
v 0.005613 0.000461 -0.004150
v 0.003104 0.008075 -0.004150
v 0.002340 0.007730 -0.004150
v 0.003283 0.004576 -0.004150
v 0.003496 0.010065 -0.004150
v -0.001670 -0.007799 -0.004150
v -0.005531 -0.001065 -0.004150
v 0.002083 0.010863 -0.004150
v 0.000770 0.008522 -0.004150
v -0.002506 0.005044 -0.004150
v -0.003654 -0.008911 -0.004150
v 0.002893 0.010647 -0.004150
v 0.000547 0.009504 -0.004150
v 0.001140 0.010516 -0.004150
v -0.003962 0.003957 -0.004150
v -0.001087 -0.008129 -0.004150
v -0.003177 -0.010462 -0.004150
v -0.003617 -0.009748 -0.004150
v 0.001640 0.005354 -0.004150
v 0.001353 0.007919 -0.004150
v -0.005549 0.000753 -0.004150
v -0.005047 0.002499 -0.004150
v -0.000156 0.005630 -0.004150
v -0.000579 -0.009673 -0.004150
v -0.000695 -0.008673 -0.004150
v -0.001278 -0.010615 -0.004150
v -0.002253 -0.010858 -0.004150
v 0.004952 0.002678 -0.005166
v 0.005678 -0.000951 -0.005166
v -0.000642 -0.005721 -0.005166
v 0.003440 -0.004523 -0.005166
v -0.005279 0.002102 -0.005166
v -0.002930 0.004869 -0.005166
v 0.001898 0.005536 -0.005166
v -0.005185 -0.002714 -0.005166
v 0.000355 -0.005842 -0.004150
v 0.004527 -0.003434 -0.004150
v -0.004567 -0.003506 -0.004150
v 0.005707 0.001296 -0.004150
v 0.002656 0.005023 -0.004150
v -0.002202 0.005422 -0.004150
v -0.005628 0.001211 -0.004150
v 0.002636 0.007752 -0.005166
v 0.000641 0.010091 -0.005166
v 0.003814 0.009369 -0.005166
v 0.001007 0.008120 -0.005166
v 0.002484 0.010870 -0.005166
v 0.003426 0.008082 -0.004150
v 0.003295 0.010412 -0.004150
v 0.001144 0.010713 -0.004150
v 0.000791 0.008257 -0.004150
v -0.000736 -0.010247 -0.005166
v -0.001369 -0.007686 -0.005166
v -0.003554 -0.008523 -0.005166
v -0.003184 -0.010659 -0.005166
v -0.002972 -0.007730 -0.004150
v -0.003536 -0.010152 -0.004150
v -0.000441 -0.008903 -0.004150
v -0.001673 -0.010878 -0.004150
v -0.016918 -0.010640 0.013078
v -0.015298 -0.012906 0.015534
v -0.014035 -0.014263 0.017716
v -0.013926 -0.014404 0.018163
v -0.014100 -0.014180 0.018221
v -0.015152 -0.013099 0.017401
v -0.018658 -0.007406 0.012577
v -0.020081 -0.000850 0.007514
v -0.019880 0.002208 0.004703
v -0.019582 0.004080 0.002497
v -0.019330 0.005179 0.000794
v -0.020003 -0.000380 0.004993
v -0.018931 -0.006630 0.009594
v -0.012963 -0.015194 0.024851
v -0.011295 -0.016637 -0.005166
v -0.005516 -0.019336 0.024850
v -0.002009 -0.020007 -0.005166
v 0.002810 -0.019855 0.024850
v 0.004839 -0.019408 -0.005166
v 0.019743 -0.003496 0.024850
v 0.020176 -0.001037 -0.005166
v 0.019100 0.006286 0.024850
v 0.017313 0.010444 -0.005166
v -0.005422 0.019239 0.024851
v -0.006909 0.018771 -0.005166
v -0.012301 0.015906 -0.005166
v -0.012909 0.015417 0.024850
v -0.018397 0.008290 -0.005166
v -0.018310 0.008346 0.024850
v -0.018818 -0.007176 -0.005166
v -0.019989 0.001526 -0.005166
v -0.019821 0.002688 0.024850
v -0.019559 -0.004701 0.024850
v -0.017406 -0.009855 0.024850
v -0.014881 -0.013367 -0.005166
v -0.002713 0.019818 -0.005166
v -0.000811 0.019986 0.013123
v 0.004382 0.019610 -0.005166
v 0.003276 0.019846 0.009925
v 0.010669 0.016960 0.004156
v 0.012248 0.015881 -0.005166
v 0.015682 0.012604 0.024850
v 0.014144 0.014144 0.000794
v 0.009834 0.017418 0.024850
v 0.011852 0.016113 0.004703
v 0.009867 0.017409 0.006911
v 0.013325 0.014918 0.002497
v 0.003019 0.019876 0.024850
v 0.004602 0.019572 0.011348
v -0.003339 0.019766 0.017092
v -0.003485 0.019706 0.015494
v -0.005059 0.019352 0.017312
v -0.005508 0.019227 0.018097
v -0.005384 0.019238 0.018236
v -0.004853 0.019403 0.018066
v 0.017675 -0.009880 -0.005166
v 0.015825 -0.012306 0.010328
v 0.017714 -0.009291 0.013123
v 0.010964 -0.016755 0.005535
v 0.009766 -0.017574 -0.005166
v 0.008898 -0.017914 0.024850
v 0.006257 -0.018999 0.002497
v 0.008028 -0.018321 0.004703
v 0.005176 -0.019317 0.000794
v 0.011066 -0.016749 0.007794
v 0.014789 -0.013654 0.024850
v 0.015737 -0.012387 0.012613
v 0.018811 -0.006827 0.015502
v 0.019289 -0.005295 0.017312
v 0.019413 -0.004845 0.018097
v 0.019328 -0.004950 0.018236
v 0.017925 -0.008876 0.024850
v 0.019231 -0.005499 0.018066
v 0.018794 -0.007052 0.017057
v 0.016287 -0.011611 0.010969
v 0.017713 -0.009290 0.013112
v 0.012911 -0.015276 0.007288
v 0.014925 -0.013317 0.009336
v 0.009903 -0.017381 0.004630
v 0.007363 -0.018635 0.003993
v 0.006627 -0.018890 0.001910
v 0.010197 -0.017212 0.006929
v 0.012562 -0.015571 0.009302
v 0.014573 -0.013701 0.011332
v 0.016314 -0.011576 0.013338
v 0.018784 -0.006884 0.015394
v 0.019410 -0.004843 0.018099
v 0.019366 -0.004967 0.018235
v 0.018143 -0.008447 0.015913
v 0.012250 -0.036079 0.000006
v 0.015430 -0.034834 0.002217
v 0.019476 -0.032778 0.004239
v 0.024011 -0.029576 0.005714
v 0.024115 -0.029498 0.005561
v 0.022031 -0.031103 0.004283
v 0.018923 -0.033064 0.002840
v 0.016079 -0.034541 0.001569
v 0.016758 -0.019129 0.006966
v 0.007869 -0.024378 0.001089
v 0.009381 -0.027708 0.000943
v 0.023411 -0.017325 0.010062
v 0.022747 -0.013455 0.012029
v 0.022036 -0.010431 0.013915
v 0.005901 -0.020595 0.000988
v 0.005176 -0.019321 0.000799
v 0.020854 -0.007260 0.016108
v 0.019571 -0.023793 0.007471
v 0.021458 -0.017363 0.010616
v 0.022875 -0.014223 0.011900
v 0.012074 -0.031097 0.001751
v 0.023908 -0.022184 0.008129
v 0.010940 -0.031933 0.000523
v 0.013228 -0.035729 0.000328
v 0.023844 -0.024505 0.007017
v 0.013236 -0.035729 0.000850
v 0.015429 -0.034841 0.002239
v 0.018891 -0.033113 0.003987
v 0.022755 -0.030559 0.005550
v 0.024019 -0.029577 0.005723
v 0.024110 -0.029503 0.005530
v 0.023209 -0.030241 0.004862
v 0.018166 -0.033512 0.002495
v 0.012242 -0.036075 -0.000003
v -0.000809 0.019985 0.013109
v 0.001910 0.019911 0.010972
v 0.004070 0.019584 0.009336
v 0.009344 0.017681 0.005212
v 0.006774 0.018820 0.007285
v 0.012964 0.015247 0.002003
v 0.014145 0.014143 0.000799
v 0.012597 0.015559 0.003739
v 0.007188 0.018668 0.009313
v 0.009792 0.017451 0.007004
v 0.001867 0.019916 0.013338
v 0.004579 0.019471 0.011332
v -0.001872 0.019923 0.015966
v -0.003433 0.019709 0.015401
v -0.005494 0.019226 0.018155
v 0.022916 0.030444 0.001958
v 0.018652 0.033254 0.004237
v 0.013610 0.035581 0.005714
v 0.013489 0.035632 0.005561
v 0.015919 0.034632 0.004284
v 0.019172 0.032921 0.002841
v 0.021874 0.031195 0.001569
v 0.008197 0.024074 0.006961
v 0.011964 0.016053 0.002832
v 0.021675 0.024858 0.000607
v 0.019046 0.021624 0.000961
v 0.003457 0.029003 0.009935
v -0.000182 0.026060 0.012370
v -0.002485 0.023678 0.014348
v 0.015181 0.015866 0.001016
v -0.004403 0.021277 0.016410
v 0.014944 0.025204 0.005057
v 0.003150 0.025668 0.011585
v -0.001309 0.024861 0.013591
v 0.004361 0.029755 0.009626
v -0.005269 0.019293 0.018228
v 0.018508 0.023330 0.002288
v 0.017229 0.019072 0.001108
v 0.008950 0.029576 0.008196
v 0.025109 0.028662 0.000002
v 0.009191 0.032798 0.007038
v 0.008927 0.032857 0.007385
v 0.024327 0.029325 0.000848
v 0.022460 0.030781 0.002237
v 0.019235 0.032915 0.003986
v 0.015089 0.034986 0.005549
v 0.013605 0.035588 0.005723
v 0.013495 0.035632 0.005530
v 0.014585 0.035221 0.004862
v 0.019942 0.032487 0.002494
v 0.025121 0.028639 -0.000003
v 0.016002 0.009475 0.024850
v 0.008775 0.016595 0.024850
v 0.018772 0.000020 0.024850
v 0.014957 -0.011345 0.024850
v -0.000876 0.018576 0.024850
v -0.010552 0.015526 0.024850
v -0.017796 0.005975 0.024850
v -0.018190 -0.003870 0.024850
v -0.008827 -0.016369 0.024850
v -0.001138 -0.018562 0.024850
v 0.006762 -0.017324 0.024850
v -0.014884 -0.011150 0.024850
v -0.018745 -0.001019 -0.004150
v -0.016502 0.008574 -0.004150
v -0.009681 0.016083 -0.004150
v 0.002027 0.018663 -0.004150
v 0.011131 0.014898 -0.004150
v 0.017438 0.006951 -0.004150
v 0.018089 -0.005019 -0.004150
v 0.012901 -0.013395 -0.004150
v 0.004039 -0.018333 -0.004150
v -0.005792 -0.017672 -0.004150
v -0.014306 -0.012156 -0.004150
v -0.011659 -0.016253 -0.005166
v -0.007893 -0.018379 -0.005166
v -0.003757 -0.019646 -0.005166
v 0.000554 -0.019995 -0.005166
v 0.004839 -0.019408 -0.005166
v 0.019414 -0.004815 -0.005166
v 0.019995 -0.000529 -0.005166
v 0.019642 0.003782 -0.005166
v 0.018370 0.007916 -0.005166
v 0.016239 0.011679 -0.005166
v -0.006909 0.018771 -0.005166
v -0.010783 0.016847 -0.005166
v -0.014153 0.014135 -0.005166
v -0.016860 0.010762 -0.005166
v -0.018780 0.006886 -0.005166
v -0.019118 -0.005883 -0.005166
v -0.019935 -0.001636 -0.005166
v -0.019821 0.002688 -0.005166
v -0.014881 -0.013367 -0.005166
v -0.017406 -0.009855 -0.005166
v -0.002713 0.019818 -0.005166
v 0.001611 0.019938 -0.005166
v 0.005859 0.019125 -0.005166
v 0.009834 0.017418 -0.005166
v 0.013348 0.014897 -0.005166
v 0.017925 -0.008876 -0.005166
v 0.015598 -0.012522 -0.005166
v 0.012541 -0.015583 -0.005166
v 0.008898 -0.017914 -0.005166
v 0.003104 0.008075 -0.005166
v 0.004901 0.002775 -0.005166
v 0.005613 0.000461 -0.005166
v 0.002340 0.007730 -0.005166
v -0.000579 -0.009673 -0.005166
v -0.000695 -0.008673 -0.005166
v 0.003985 -0.003980 -0.005166
v -0.001087 -0.008129 -0.005166
v 0.000764 -0.005580 -0.005166
v 0.005288 -0.001939 -0.005166
v 0.003524 0.008598 -0.005166
v 0.002491 -0.005015 -0.005166
v -0.005047 0.002499 -0.005166
v -0.003962 0.003957 -0.005166
v 0.003685 0.009248 -0.005166
v -0.002506 0.005044 -0.005166
v 0.000663 0.009826 -0.005166
v -0.000156 0.005630 -0.005166
v 0.000573 0.009162 -0.005166
v 0.003496 0.010065 -0.005166
v 0.000770 0.008522 -0.005166
v 0.001353 0.007919 -0.005166
v -0.005549 0.000753 -0.005166
v -0.005531 -0.001065 -0.005166
v -0.002338 -0.007745 -0.005166
v -0.004873 -0.002759 -0.005166
v -0.003759 -0.004195 -0.005166
v -0.003654 -0.008911 -0.005166
v -0.003114 -0.008064 -0.005166
v 0.001140 0.010516 -0.005166
v 0.002083 0.010863 -0.005166
v -0.001650 -0.005385 -0.005166
v -0.001670 -0.007799 -0.005166
v -0.001278 -0.010615 -0.005166
v -0.002253 -0.010858 -0.005166
v -0.003177 -0.010462 -0.005166
v -0.003617 -0.009748 -0.005166
v 0.002893 0.010647 -0.005166
v 0.003283 0.004576 -0.005166
v 0.001640 0.005354 -0.005166
vn -0.0000 -0.0000 1.0000
vn -0.9878 -0.1545 0.0181
vn -0.9890 -0.1466 0.0214
vn -0.9941 -0.1078 0.0149
vn -0.9963 -0.0863 -0.0063
vn -0.9990 -0.0253 -0.0363
vn -0.9979 0.0314 0.0574
vn -0.9882 0.0527 -0.1435
vn -0.9704 0.0110 -0.2413
vn -0.9875 0.0173 -0.1565
vn 0.2899 0.7714 -0.5665
vn 0.0654 -0.5388 -0.8399
vn 0.0779 -0.3970 -0.9145
vn 0.1679 -0.4788 -0.8617
vn -0.1168 -0.9403 -0.3198
vn -0.1541 -0.7269 -0.6693
vn -0.5291 -0.4696 0.7068
vn -0.2677 -0.9457 -0.1846
vn 0.0847 -0.9495 0.3022
vn -0.0786 -0.5898 -0.8037
vn 0.3444 -0.5569 -0.7558
vn 0.3868 -0.6160 -0.6862
vn -0.0242 -0.9629 -0.2689
vn -0.4493 -0.6321 0.6314
vn -0.0887 -0.9957 -0.0262
vn -0.1308 -0.9735 0.1876
vn -0.1499 0.4346 0.8881
vn -0.2615 0.5027 0.8240
vn -0.1284 0.6115 0.7807
vn -0.3052 0.2812 0.9098
vn -0.3688 0.3038 0.8785
vn -0.5843 -0.8032 0.1163
vn -0.4759 0.3250 0.8172
vn -0.5486 0.2054 0.8104
vn 0.1656 0.8447 -0.5091
vn -0.0199 0.6049 0.7960
vn -0.0058 0.7254 0.6883
vn -0.2427 0.8009 -0.5474
vn -0.0548 0.5009 0.8637
vn 0.1128 0.8356 -0.5376
vn 0.0485 -0.3548 -0.9337
vn -0.1518 0.3424 0.9272
vn -0.6595 -0.7511 0.0300
vn 0.1162 -0.3774 -0.9187
vn -0.1706 -0.3562 -0.9187
vn -0.4006 0.5146 0.7581
vn 0.1791 -0.5771 -0.7968
vn 0.2722 -0.5201 -0.8096
vn 0.2167 -0.5718 -0.7912
vn 0.9812 -0.1528 0.1178
vn 0.6968 0.7135 0.0727
vn 0.9060 0.3930 -0.1574
vn 0.3188 -0.9307 0.1793
vn 0.8741 -0.4738 -0.1068
vn -0.6162 -0.7850 0.0635
vn -0.2756 -0.9370 -0.2146
vn -0.9546 -0.2410 0.1752
vn -0.8121 0.5759 0.0940
vn -0.9456 0.2095 -0.2489
vn -0.1144 0.9856 0.1242
vn -0.5530 0.8159 -0.1687
vn 0.2598 0.9622 -0.0821
vn -0.7360 -0.6132 -0.2869
vn 0.6203 -0.7842 -0.0172
vn -0.2157 -0.9765 -0.0017
vn -0.9957 -0.0687 -0.0626
vn -0.7233 -0.6871 -0.0688
vn 0.9198 -0.3877 -0.0610
vn 0.5578 -0.8291 -0.0377
vn 0.6580 0.7521 0.0381
vn 0.7892 0.6060 -0.0994
vn -0.1986 0.9762 -0.0875
vn -0.7135 0.7002 -0.0251
vn 0.9155 -0.4022 -0.0038
vn -0.4395 -0.8870 -0.1414
vn 0.4635 -0.8861 -0.0021
vn 0.5773 0.8156 0.0389
vn 0.9012 0.4261 -0.0798
vn -0.8273 0.5610 0.0309
vn -0.2657 0.9622 0.0596
vn -0.9679 -0.2436 0.0622
vn -0.2812 -0.9596 0.0118
vn -0.5231 -0.8523 -0.0062
vn -0.1269 -0.9918 -0.0117
vn 0.1247 -0.9921 0.0099
vn 0.2230 -0.9748 -0.0040
vn 0.9603 0.2788 0.0117
vn 0.9997 -0.0190 -0.0146
vn 0.8776 0.4790 -0.0181
vn -0.2826 0.9591 0.0142
vn -0.3610 0.9325 0.0051
vn -0.6345 0.7729 0.0017
vn -0.6416 0.7670 0.0026
vn -0.8976 0.4406 -0.0111
vn -0.9415 -0.3367 0.0126
vn -0.9985 -0.0523 -0.0129
vn -0.9381 -0.3460 -0.0151
vn -0.9987 0.0457 -0.0207
vn -0.9778 0.2066 0.0347
vn -0.9928 0.1195 0.0113
vn -0.9803 0.1977 -0.0013
vn -0.9916 0.1291 0.0097
vn -0.8966 0.4428 0.0021
vn -0.9996 -0.0240 0.0138
vn -0.9765 -0.2150 0.0150
vn -0.9333 -0.3584 -0.0203
vn -0.7896 -0.6133 0.0183
vn -0.8585 -0.5125 0.0166
vn -0.7480 -0.6631 -0.0287
vn -0.7599 -0.6494 -0.0283
vn -0.7653 -0.6144 -0.1920
vn -0.6317 -0.7750 0.0190
vn -0.7455 -0.6665 0.0072
vn -0.8456 -0.5338 0.0086
vn -0.7617 -0.6479 -0.0056
vn -0.1119 0.9937 -0.0060
vn -0.0684 0.9974 -0.0239
vn 0.1426 0.9895 0.0238
vn -0.1908 0.9810 -0.0336
vn 0.2301 0.9731 -0.0146
vn 0.4767 0.8786 0.0285
vn 0.6900 0.7234 0.0266
vn 0.5928 0.8051 -0.0200
vn 0.7717 0.6359 0.0100
vn 0.6661 0.7459 0.0001
vn 0.4967 0.8678 0.0133
vn 0.5926 0.8055 -0.0000
vn 0.5016 0.8650 0.0122
vn 0.2617 0.9650 0.0157
vn 0.1411 0.9899 0.0163
vn -0.0959 0.9948 0.0337
vn -0.2653 0.9642 0.0006
vn -0.2797 0.9600 -0.0113
vn -0.1661 0.9855 -0.0332
vn -0.2640 0.9644 -0.0125
vn 0.8611 -0.5081 -0.0164
vn 0.8770 -0.4803 0.0126
vn 0.7875 -0.6161 -0.0146
vn 0.6081 -0.7938 0.0084
vn 0.2951 -0.9555 0.0019
vn 0.3947 -0.9188 0.0036
vn 0.4472 -0.8944 0.0115
vn 0.3212 -0.9461 0.0410
vn 0.5259 -0.8505 -0.0028
vn 0.5415 -0.8396 0.0420
vn 0.7537 -0.6569 0.0209
vn 0.7320 -0.6813 -0.0019
vn 0.9106 -0.4130 -0.0133
vn 0.9646 -0.2637 -0.0012
vn 0.9459 -0.3208 -0.0483
vn 0.9483 -0.3172 -0.0083
vn 0.9909 -0.1338 0.0132
vn 0.9047 -0.4251 0.0287
vn 0.9738 -0.2258 0.0266
vn 0.8930 -0.4499 -0.0159
vn -0.7332 -0.1766 -0.6566
vn 0.4342 0.3344 -0.8364
vn 0.2950 0.2785 -0.9140
vn 0.3387 0.3889 -0.8568
vn 0.7900 0.4156 -0.4508
vn 0.8766 0.3057 -0.3718
vn 0.7874 -0.1721 0.5919
vn 0.9257 0.3661 -0.0951
vn 0.3140 0.4987 -0.8079
vn 0.3092 0.5713 -0.7602
vn 0.3470 0.6452 -0.6807
vn 0.7569 -0.0734 0.6494
vn 0.9248 0.3800 0.0192
vn 0.9075 0.3787 0.1819
vn -0.1633 -0.3682 0.9153
vn -0.3032 -0.5063 0.8073
vn -0.4373 -0.4314 0.7891
vn -0.0209 -0.4556 0.8899
vn -0.0138 -0.5581 0.8297
vn -0.7665 -0.3447 -0.5419
vn -0.5086 -0.3081 0.8040
vn -0.8336 -0.2646 -0.4848
vn -0.6180 -0.3827 0.6868
vn -0.6052 -0.4064 -0.6845
vn -0.7859 -0.3149 -0.5321
vn -0.4066 -0.2910 0.8660
vn 0.9707 -0.0622 0.2321
vn 0.2810 0.2183 -0.9346
vn 0.6129 0.2859 -0.7366
vn 0.8602 0.1156 -0.4966
vn -0.2279 -0.3148 0.9214
vn 0.3613 -0.2715 0.8921
vn 0.2512 0.2849 -0.9251
vn 0.3120 0.2086 -0.9269
vn -0.2605 -0.5885 0.7654
vn -0.2318 -0.5537 0.7998
vn 0.5855 0.1862 -0.7890
vn -0.6056 -0.4946 -0.6234
vn 0.4032 0.4431 -0.8007
vn 0.3882 0.4751 -0.7896
vn 0.6341 -0.7732 0.0041
vn 0.6262 -0.7795 0.0179
vn 0.5899 -0.8074 0.0134
vn 0.5773 -0.8165 -0.0070
vn 0.5214 -0.8525 -0.0359
vn 0.4718 -0.8798 0.0580
vn 0.4394 -0.8866 -0.1446
vn 0.4757 -0.8459 -0.2411
vn 0.4785 -0.8643 -0.1547
vn -0.4909 0.2619 -0.8309
vn -0.5495 0.1919 -0.8132
vn -0.3870 0.1147 -0.9149
vn -0.5027 0.0951 -0.8592
vn -0.7523 0.5772 -0.3176
vn -0.7091 0.4527 -0.5406
vn -0.2353 0.7304 0.6412
vn -0.5301 0.8441 0.0807
vn -0.8203 0.5152 -0.2485
vn 0.6154 -0.3654 -0.6984
vn -0.4401 0.3232 -0.8377
vn -0.6555 -0.0169 -0.7550
vn -0.7287 -0.0298 -0.6842
vn 0.4879 -0.1477 0.8603
vn 0.5510 -0.0252 0.8342
vn 0.6254 -0.2174 0.7494
vn 0.3981 0.1186 0.9096
vn 0.4527 0.1749 0.8743
vn -0.3945 0.8428 0.3661
vn 0.4818 0.3013 0.8229
vn -0.1846 0.6868 0.7030
vn -0.8322 0.5542 -0.0143
vn 0.6124 -0.5220 -0.5937
vn 0.5790 -0.6148 -0.5354
vn 0.5410 -0.3195 0.7779
vn 0.6414 -0.3287 0.6932
vn 0.6588 -0.3865 -0.6455
vn 0.4745 -0.2194 0.8525
vn 0.6892 -0.5414 -0.4816
vn -0.4701 0.2624 -0.8427
vn 0.3733 -0.0497 0.9264
vn 0.0571 0.4606 0.8858
vn -0.5128 0.7134 -0.4776
vn -0.3709 0.0788 -0.9253
vn -0.3339 0.1597 -0.9290
vn -0.7609 0.5942 0.2607
vn 0.6438 0.0865 0.7603
vn 0.6043 0.1235 0.7871
vn 0.7057 -0.2871 -0.6478
vn -0.5879 0.1291 -0.7986
vn -0.6011 0.1024 -0.7926
vn -0.5866 0.0234 -0.8096
vn 0.4227 0.9063 -0.0060
vn 0.4777 0.8778 -0.0362
vn 0.4011 0.9159 0.0184
vn 0.3774 0.9260 0.0127
vn 0.3739 0.9274 -0.0056
vn 0.5260 0.8485 0.0574
vn 0.5398 0.8295 -0.1431
vn 0.4962 0.8347 -0.2390
vn 0.5093 0.8464 -0.1555
vn 0.9407 -0.3387 -0.0168
vn 0.9797 0.2004 -0.0071
vn 0.9970 0.0760 0.0168
vn 0.5736 -0.8191 -0.0116
vn 0.8831 -0.4689 0.0125
vn 0.0560 -0.9984 -0.0125
vn 0.5036 -0.8639 0.0116
vn -0.4727 -0.8811 -0.0151
vn -0.0863 -0.9961 0.0168
vn -0.8568 -0.5154 -0.0161
vn -0.6040 -0.7968 0.0161
vn -0.9996 0.0161 -0.0211
vn -0.9329 -0.3596 0.0196
vn -0.8034 0.5951 -0.0196
vn -0.9678 0.2507 0.0211
vn -0.3843 0.9231 -0.0144
vn -0.6886 0.7250 0.0161
vn 0.0628 0.9979 -0.0135
vn -0.2201 0.9754 0.0148
vn 0.4751 0.8799 -0.0105
vn 0.3156 0.9487 0.0171
vn 0.8036 0.5952 -0.0046
vn 0.7728 0.6345 0.0155
vn -0.0000 -0.0000 -1.0000
s 1
usemtl 0.615686_0.811765_0.929412_0.000000_0.000000
f 8//1 20//1 30//1
f 20//1 19//1 31//1
f 8//1 32//1 33//1
f 31//1 30//1 20//1
f 6//1 7//1 33//1
f 30//1 32//1 8//1
f 27//1 29//1 34//1
f 29//1 5//1 35//1
f 33//1 7//1 8//1
f 19//1 21//1 36//1
f 35//1 34//1 29//1
f 5//1 6//1 37//1
f 36//1 31//1 19//1
f 21//1 22//1 38//1
f 28//1 27//1 39//1
f 37//1 35//1 5//1
f 38//1 36//1 21//1
f 22//1 23//1 40//1
f 24//1 9//1 41//1
f 9//1 10//1 42//1
f 34//1 39//1 27//1
f 40//1 38//1 22//1
f 42//1 41//1 9//1
f 10//1 11//1 43//1
f 33//1 37//1 6//1
f 24//1 44//1 40//1
f 43//1 42//1 10//1
f 11//1 12//1 45//1
f 13//1 46//1 47//1
f 13//1 15//1 48//1
f 2//1 49//1 50//1
f 2//1 3//1 51//1
f 26//1 52//1 53//1
f 26//1 25//1 54//1
f 40//1 23//1 24//1
f 45//1 43//1 11//1
f 12//1 14//1 47//1
f 48//1 46//1 13//1
f 17//1 18//1 55//1
f 1//1 50//1 55//1
f 51//1 49//1 2//1
f 4//1 53//1 51//1
f 54//1 52//1 26//1
f 25//1 28//1 56//1
f 41//1 44//1 24//1
f 47//1 14//1 13//1
f 16//1 57//1 48//1
f 16//1 17//1 58//1
f 55//1 18//1 1//1
f 51//1 3//1 4//1
f 56//1 54//1 25//1
f 47//1 45//1 12//1
f 58//1 57//1 16//1
f 50//1 1//1 2//1
f 39//1 56//1 28//1
f 55//1 58//1 17//1
f 48//1 15//1 16//1
f 53//1 4//1 26//1
f 60//2 59//3 62//4
f 59//3 61//5 62//4
f 61//5 63//6 62//4
f 64//7 62//4 63//6
f 67//8 66//9 65//10
f 65//10 64//7 67//8
f 63//6 67//8 64//7
f 93//11 88//12 74//13
f 92//14 94//15 106//16
f 94//15 100//17 101//18
f 96//19 87//20 93//11
f 76//21 77//22 94//15
f 95//23 94//15 77//22
f 79//24 97//25 78//26
f 98//27 83//28 84//29
f 83//28 98//27 103//30
f 103//30 99//31 83//28
f 99//31 103//30 105//32
f 99//31 100//17 81//33
f 100//17 80//34 81//33
f 100//17 79//24 80//34
f 97//25 79//24 100//17
f 93//11 104//35 102//36
f 85//37 102//36 84//29
f 96//19 93//11 102//36
f 96//19 102//36 86//38
f 102//36 75//39 98//27
f 100//17 105//32 101//18
f 102//36 73//40 75//39
f 73//40 102//36 104//35
f 73//40 104//35 72//41
f 70//42 98//27 75//39
f 70//42 103//30 98//27
f 68//43 105//32 103//30
f 68//43 69//44 106//16
f 74//13 69//44 71//45
f 74//13 72//41 104//35
f 97//25 77//22 78//26
f 83//28 99//31 82//46
f 81//33 82//46 99//31
f 87//20 96//19 86//38
f 89//47 92//14 88//12
f 90//48 92//14 91//49
f 89//47 91//49 92//14
f 86//38 102//36 85//37
f 106//16 105//32 68//43
f 103//30 70//42 68//43
f 105//32 106//16 101//18
f 106//16 69//44 92//14
f 74//13 92//14 69//44
f 99//31 105//32 100//17
f 84//29 102//36 98//27
f 100//17 95//23 97//25
f 77//22 97//25 95//23
f 94//15 90//48 76//21
f 88//12 93//11 87//20
f 95//23 100//17 94//15
f 94//15 92//14 90//48
f 101//18 106//16 94//15
f 74//13 104//35 93//11
f 92//14 74//13 88//12
f 128//1 137//1 136//1
f 127//1 138//1 137//1
f 139//1 122//1 121//1
f 140//1 121//1 120//1
f 141//1 142//1 143//1
f 136//1 129//1 128//1
f 138//1 127//1 126//1
f 140//1 120//1 119//1
f 142//1 141//1 144//1
f 137//1 128//1 127//1
f 126//1 147//1 148//1
f 149//1 125//1 124//1
f 139//1 123//1 122//1
f 119//1 152//1 140//1
f 145//1 144//1 153//1
f 145//1 142//1 144//1
f 154//1 107//1 141//1
f 146//1 138//1 126//1
f 149//1 151//1 147//1
f 151//1 149//1 150//1
f 149//1 126//1 125//1
f 149//1 124//1 123//1
f 121//1 140//1 139//1
f 152//1 119//1 118//1
f 115//1 161//1 155//1
f 156//1 107//1 157//1
f 136//1 145//1 153//1
f 107//1 158//1 141//1
f 148//1 146//1 126//1
f 123//1 139//1 149//1
f 155//1 116//1 115//1
f 160//1 161//1 114//1
f 156//1 160//1 110//1
f 107//1 162//1 157//1
f 153//1 163//1 136//1
f 158//1 107//1 135//1
f 133//1 164//1 165//1
f 166//1 150//1 167//1
f 147//1 126//1 149//1
f 117//1 155//1 159//1
f 115//1 114//1 161//1
f 114//1 113//1 160//1
f 110//1 109//1 156//1
f 107//1 168//1 169//1
f 143//1 154//1 141//1
f 158//1 135//1 134//1
f 165//1 134//1 133//1
f 167//1 170//1 166//1
f 155//1 117//1 116//1
f 108//1 107//1 156//1
f 107//1 169//1 162//1
f 154//1 168//1 107//1
f 118//1 159//1 152//1
f 112//1 111//1 160//1
f 109//1 108//1 156//1
f 134//1 165//1 158//1
f 136//1 172//1 171//1
f 159//1 118//1 117//1
f 111//1 110//1 160//1
f 157//1 170//1 167//1
f 133//1 132//1 164//1
f 130//1 171//1 173//1
f 171//1 130//1 136//1
f 136//1 163//1 172//1
f 113//1 112//1 160//1
f 166//1 151//1 150//1
f 136//1 130//1 129//1
f 157//1 167//1 156//1
f 132//1 131//1 174//1
f 131//1 173//1 174//1
f 174//1 164//1 132//1
f 173//1 131//1 130//1
f 189//50 185//51 182//52
f 188//53 189//50 179//54
f 187//55 188//53 181//56
f 186//57 187//55 181//56
f 184//58 186//57 176//59
f 183//60 184//58 178//61
f 185//51 183//60 177//62
f 177//62 182//52 185//51
f 178//61 177//62 183//60
f 176//59 178//61 184//58
f 175//63 176//59 186//57
f 181//56 175//63 186//57
f 180//64 181//56 188//53
f 179//54 180//64 188//53
f 182//52 179//54 189//50
f 194//65 192//66 196//67
f 191//68 194//65 197//69
f 193//70 191//68 198//71
f 190//72 193//70 198//71
f 192//66 190//72 195//73
f 195//73 196//67 192//66
f 198//71 195//73 190//72
f 197//69 198//71 191//68
f 196//67 197//69 194//65
f 201//74 200//75 203//76
f 202//77 201//74 204//78
f 199//79 202//77 206//80
f 200//75 199//79 205//81
f 206//80 205//81 199//79
f 204//78 206//80 202//77
f 203//76 204//78 201//74
f 205//81 203//76 200//75
f 222//82 221//83 223//84
f 224//85 223//84 225//86
f 228//87 227//88 229//89
f 230//90 231//91 232//92
f 233//93 232//92 234//94
f 219//95 218//96 236//97
f 237//98 218//96 217//99
f 238//100 216//101 215//102
f 238//100 217//99 216//101
f 217//99 238//100 235//103
f 217//99 235//103 234//94
f 217//99 234//94 237//98
f 238//100 215//102 214//104
f 239//105 214//104 213//106
f 213//106 212//107 240//108
f 221//83 209//109 208//110
f 210//111 209//109 221//83
f 210//111 221//83 220//112
f 211//113 210//111 220//112
f 212//107 211//113 220//112
f 208//110 207//114 241//115
f 207//114 219//95 236//97
f 242//116 243//117 245//118
f 242//116 257//119 243//117
f 244//120 245//118 246//121
f 246//121 249//122 247//123
f 248//124 249//122 253//125
f 249//122 248//124 229//89
f 249//122 229//89 247//123
f 250//126 251//127 252//128
f 253//125 251//127 250//126
f 253//125 250//126 248//124
f 252//128 255//129 250//126
f 254//130 255//129 256//131
f 258//132 257//119 242//116
f 259//133 258//132 242//116
f 259//133 242//116 231//91
f 231//91 230//90 259//133
f 260//134 259//133 230//90
f 261//135 260//134 230//90
f 256//131 261//135 230//90
f 262//136 264//137 263//138
f 262//136 263//138 265//139
f 268//140 269//141 267//142
f 267//142 270//143 268//140
f 270//143 267//142 224//85
f 270//143 224//85 225//86
f 270//143 225//86 266//144
f 265//139 270//143 266//144
f 269//141 271//145 267//142
f 271//145 273//146 272//147
f 272//147 273//146 280//148
f 262//136 275//149 274//150
f 276//151 275//149 262//136
f 227//88 226//152 276//151
f 276//151 262//136 227//88
f 277//153 276//151 226//152
f 279//154 277//153 278//155
f 280//148 279//154 278//155
f 277//153 226//152 278//155
f 274//150 264//137 262//136
f 280//148 278//155 272//147
f 271//145 272//147 267//142
f 265//139 266//144 262//136
f 256//131 230//90 254//130
f 255//129 254//130 250//126
f 246//121 247//123 244//120
f 245//118 244//120 242//116
f 207//114 236//97 241//115
f 208//110 241//115 221//83
f 212//107 220//112 240//108
f 213//106 240//108 239//105
f 214//104 239//105 238//100
f 218//96 237//98 236//97
f 234//94 235//103 233//93
f 232//92 233//93 230//90
f 229//89 248//124 228//87
f 227//88 228//87 226//152
f 223//84 224//85 222//82
f 221//83 222//82 220//112
f 305//156 285//157 302//158
f 304//159 308//160 307//161
f 308//160 315//162 307//161
f 308//160 309//163 315//162
f 281//164 309//163 308//160
f 282//165 292//166 309//163
f 294//167 312//168 293//169
f 313//170 289//171 288//172
f 313//170 314//173 289//171
f 314//173 315//162 295//174
f 312//168 315//162 309//163
f 315//162 294//167 295//174
f 312//168 294//167 315//162
f 306//175 316//176 288//172
f 306//175 318//177 316//176
f 286//178 306//175 288//172
f 286//178 310//179 305//156
f 305//156 306//175 286//178
f 316//176 296//180 297//181
f 316//176 297//181 313//170
f 314//173 313//170 317//182
f 296//180 316//176 318//177
f 296//180 318//177 319//183
f 320//184 317//182 300//185
f 307//161 317//182 320//184
f 298//186 313//170 297//181
f 299//187 317//182 313//170
f 300//185 301//188 320//184
f 302//158 320//184 301//188
f 302//158 303//189 306//175
f 289//171 314//173 290//190
f 291//191 290//190 314//173
f 287//192 310//179 311//193
f 287//192 285//157 310//179
f 283//194 304//159 285//157
f 284//195 281//164 304//159
f 312//168 292//166 293//169
f 283//194 284//195 304//159
f 311//193 310//179 286//178
f 291//191 314//173 295//174
f 319//183 306//175 303//189
f 317//182 299//187 300//185
f 313//170 298//186 299//187
f 307//161 315//162 317//182
f 307//161 320//184 304//159
f 320//184 302//158 304//159
f 318//177 306//175 319//183
f 317//182 315//162 314//173
f 288//172 316//176 313//170
f 292//166 312//168 309//163
f 309//163 281//164 282//165
f 285//157 305//156 310//179
f 308//160 304//159 281//164
f 302//158 306//175 305//156
f 304//159 302//158 285//157
f 326//196 325//197 327//198
f 325//197 324//199 327//198
f 324//199 323//200 327//198
f 328//201 327//198 323//200
f 322//202 321//203 329//204
f 329//204 328//201 322//202
f 323//200 322//202 328//201
f 353//205 333//206 350//207
f 352//208 357//209 356//210
f 357//209 363//211 364//212
f 363//211 357//209 358//213
f 359//214 335//215 353//205
f 330//216 343//217 357//209
f 358//213 357//209 343//217
f 361//218 338//219 339//220
f 338//219 361//218 368//221
f 368//221 362//222 338//219
f 362//222 368//221 371//223
f 362//222 363//211 342//224
f 363//211 365//225 342//224
f 360//226 365//225 363//211
f 355//227 354//228 366//229
f 337//230 366//229 361//218
f 367//231 366//229 337//230
f 359//214 367//231 337//230
f 363//211 371//223 364//212
f 345//232 361//218 366//229
f 366//229 369//233 345//232
f 356//210 364//212 370//234
f 364//212 356//210 357//209
f 346//235 361//218 345//232
f 346//235 368//221 361//218
f 347//236 371//223 368//221
f 348//237 349//238 370//234
f 350//207 370//234 349//238
f 350//207 351//239 354//228
f 360//226 344//240 365//225
f 338//219 362//222 341//241
f 362//222 340//242 341//241
f 337//230 336//243 359//214
f 359//214 336//243 335//215
f 352//208 334//244 332//245
f 334//244 352//208 333//206
f 332//245 331//246 352//208
f 360//226 343//217 344//240
f 340//242 362//222 342//224
f 369//233 354//228 351//239
f 370//234 371//223 348//237
f 371//223 347//236 348//237
f 368//221 346//235 347//236
f 371//223 370//234 364//212
f 356//210 370//234 352//208
f 370//234 350//207 352//208
f 369//233 366//229 354//228
f 361//218 339//220 337//230
f 367//231 355//227 366//229
f 362//222 371//223 363//211
f 363//211 358//213 360//226
f 343//217 360//226 358//213
f 357//209 331//246 330//216
f 353//205 367//231 359//214
f 357//209 352//208 331//246
f 355//227 367//231 353//205
f 354//228 355//227 353//205
f 350//207 354//228 353//205
f 352//208 350//207 333//206
f 375//247 374//248 378//249
f 375//247 378//249 377//250
f 377//250 376//251 375//247
f 379//252 378//249 374//248
f 373//253 372//254 380//255
f 380//255 379//252 373//253
f 374//248 373//253 379//252
f 387//256 388//257 393//258
f 386//259 387//256 394//260
f 385//261 386//259 395//262
f 382//263 385//261 396//264
f 381//265 382//263 397//266
f 383//267 381//265 398//268
f 384//269 383//267 399//270
f 391//271 384//269 400//272
f 390//273 391//271 401//274
f 389//275 390//273 402//276
f 392//277 389//275 403//278
f 388//257 392//277 403//278
f 403//278 393//258 388//257
f 402//276 403//278 389//275
f 401//274 402//276 390//273
f 400//272 401//274 391//271
f 399//270 400//272 384//269
f 398//268 399//270 383//267
f 397//266 398//268 381//265
f 396//264 397//266 382//263
f 395//262 396//264 385//261
f 394//260 395//262 386//259
f 393//258 394//260 387//256
f 433//279 430//279 434//279
f 430//279 435//279 434//279
f 430//279 437//279 438//279
f 438//279 439//279 430//279
f 437//279 430//279 431//279
f 437//279 431//279 432//279
f 430//279 442//279 435//279
f 439//279 442//279 430//279
f 433//279 443//279 410//279
f 438//279 441//279 444//279
f 441//279 438//279 440//279
f 416//279 446//279 445//279
f 443//279 447//279 412//279
f 410//279 409//279 433//279
f 434//279 454//279 436//279
f 445//279 417//279 416//279
f 411//279 410//279 443//279
f 429//279 430//279 433//279
f 416//279 448//279 446//279
f 449//279 450//279 448//279
f 450//279 449//279 451//279
f 409//279 429//279 433//279
f 434//279 436//279 433//279
f 434//279 453//279 454//279
f 421//279 455//279 456//279
f 421//279 418//279 445//279
f 457//279 458//279 459//279
f 413//279 447//279 452//279
f 444//279 439//279 438//279
f 420//279 456//279 461//279
f 461//279 456//279 458//279
f 445//279 455//279 421//279
f 448//279 416//279 449//279
f 449//279 416//279 415//279
f 449//279 415//279 414//279
f 441//279 440//279 465//279
f 413//279 412//279 447//279
f 466//279 432//279 408//279
f 408//279 407//279 466//279
f 405//279 468//279 467//279
f 419//279 420//279 460//279
f 458//279 457//279 461//279
f 445//279 418//279 417//279
f 414//279 462//279 449//279
f 462//279 414//279 424//279
f 463//279 424//279 425//279
f 459//279 464//279 457//279
f 465//279 464//279 441//279
f 452//279 427//279 428//279
f 412//279 411//279 443//279
f 467//279 407//279 406//279
f 467//279 406//279 405//279
f 460//279 469//279 422//279
f 420//279 461//279 460//279
f 463//279 462//279 424//279
f 426//279 427//279 470//279
f 428//279 413//279 452//279
f 404//279 422//279 469//279
f 422//279 423//279 460//279
f 452//279 470//279 427//279
f 467//279 466//279 407//279
f 468//279 405//279 404//279
f 456//279 420//279 421//279
f 465//279 457//279 464//279
f 423//279 419//279 460//279
f 466//279 437//279 432//279
f 450//279 451//279 453//279
f 453//279 434//279 471//279
f 425//279 426//279 463//279
f 469//279 468//279 404//279
f 471//279 472//279 453//279
f 470//279 463//279 426//279
f 453//279 472//279 450//279
