<?xml version="1.0" encoding="utf-8"?>
<COLLADA xmlns="http://www.collada.org/2005/11/COLLADASchema" version="1.4.1" xmlns:xsi="http://www.w3.org/2001/XMLSchema-instance">
  <asset>
    <contributor>
      <author>Blender User</author>
      <authoring_tool>Blender 4.4.3 commit date:2025-04-29, commit time:14:09, hash:802179c51ccc</authoring_tool>
    </contributor>
    <created>2025-06-13T23:38:30</created>
    <modified>2025-06-13T23:38:30</modified>
    <unit name="meter" meter="1"/>
    <up_axis>Z_UP</up_axis>
  </asset>
  <library_cameras>
    <camera id="Camera-camera" name="Camera">
      <optics>
        <technique_common>
          <perspective>
            <xfov sid="xfov">39.59775</xfov>
            <aspect_ratio>1.777778</aspect_ratio>
            <znear sid="znear">0.1</znear>
            <zfar sid="zfar">100</zfar>
          </perspective>
        </technique_common>
      </optics>
      <extra>
        <technique profile="blender">
          <shiftx sid="shiftx" type="float">0</shiftx>
          <shifty sid="shifty" type="float">0</shifty>
          <dof_distance sid="dof_distance" type="float">10</dof_distance>
        </technique>
      </extra>
    </camera>
  </library_cameras>
  <library_lights>
    <light id="Light-light" name="Light">
      <technique_common>
        <point>
          <color sid="color">1000 1000 1000</color>
          <constant_attenuation>1</constant_attenuation>
          <linear_attenuation>0</linear_attenuation>
          <quadratic_attenuation>0</quadratic_attenuation>
        </point>
      </technique_common>
      <extra>
        <technique profile="blender">
          <type sid="type" type="int">0</type>
          <flag sid="flag" type="int">0</flag>
          <mode sid="mode" type="int">2097153</mode>
          <red sid="red" type="float">1</red>
          <green sid="green" type="float">1</green>
          <blue sid="blue" type="float">1</blue>
          <energy sid="blender_energy" type="float">1000</energy>
          <spotsize sid="spotsize" type="float">75</spotsize>
          <spotblend sid="spotblend" type="float">0.15</spotblend>
          <clipsta sid="clipsta" type="float">0.04999995</clipsta>
          <clipend sid="clipend" type="float">40</clipend>
          <radius sid="radius" type="float">0.1</radius>
          <area_shape sid="area_shape" type="int">1</area_shape>
          <area_size sid="area_size" type="float">0.1</area_size>
          <area_sizey sid="area_sizey" type="float">0.1</area_sizey>
          <area_sizez sid="area_sizez" type="float">1</area_sizez>
        </technique>
      </extra>
    </light>
  </library_lights>
  <library_effects>
    <effect id="Material_001-effect">
      <profile_COMMON>
        <technique sid="common">
          <lambert>
            <emission>
              <color sid="emission">0 0 0 1</color>
            </emission>
            <diffuse>
              <color sid="diffuse">0.8 0.8 0.8 1</color>
            </diffuse>
            <index_of_refraction>
              <float sid="ior">1.5</float>
            </index_of_refraction>
          </lambert>
        </technique>
      </profile_COMMON>
    </effect>
  </library_effects>
  <library_images/>
  <library_materials>
    <material id="Material_001-material" name="Material.001">
      <instance_effect url="#Material_001-effect"/>
    </material>
  </library_materials>
  <library_geometries>
    <geometry id="Banner_-_Banner-mesh" name="Banner - Banner">
      <mesh>
        <source id="Banner_-_Banner-mesh-positions">
          <float_array id="Banner_-_Banner-mesh-positions-array" count="720">0.07517385 0 -0.1287015 0.07139116 0 -0.1247082 -0.3048 0 -0.3048 -0.06249284 0 0.2550715 -0.05794012 0 0.2581583 -0.3048 0 0.3048 -0.04267048 0 0.1650177 -0.04797047 0 0.1664892 -0.01552945 0 0.2627708 -0.0104196 0 0.2607348 0.3048 0 0.3048 0.3048 0 -0.3048 0.110109 0 -0.142621 0.1046165 0 -0.1423232 0.09388846 0 -0.1399617 0.08877861 0 -0.1379258 0.08391886 0 -0.1353493 0.07936614 0 -0.1322625 -0.05308032 0 0.1685252 -0.05794012 0 0.1711016 -0.06249284 0 0.1741884 -0.06668514 0 0.1777494 -0.07046782 0 0.1817427 -0.07379657 0 0.1861217 0.0991885 0 -0.1414333 0.06806236 0 -0.1203293 0.06522655 0 -0.1156162 0.06291693 0 -0.110624 -0.08247548 0 0.2118797 -0.08247548 0 0.2173802 -0.078942 0 0.233433 -0.07663238 0 0.2384251 -0.07379657 0 0.2431383 -0.02082949 0 0.2642423 0.1608344 0 -0.09457123 0.1602398 0 -0.1000395 0.1549914 0 -0.1156162 0.1521556 0 -0.1203293 0.1488268 0 -0.1247082 0.1450441 0 -0.1287015 0.1408518 0 -0.1322625 0.1362991 0 -0.1353493 0.1314393 0 -0.1379258 0.1263295 0 -0.1399617 -0.08188074 0 0.2064114 -0.07046782 0 0.2475172 -0.06668514 0 0.2515106 -0.05308032 0 0.2607348 -0.04797047 0 0.2627708 -0.04267048 0 0.2642423 -0.03724241 0 0.2651322 -0.03174996 0 0.26543 -0.02625751 0 0.2651322 0.06522655 0 -0.06802582 0.06806236 0 -0.06331264 -0.03174996 0 0.16383 0.07139116 0 -0.05893373 0.1488268 0 -0.05893373 0.1521556 0 -0.06331264 0.1549914 0 -0.06802582 0.157301 0 -0.07301795 0.1590573 0 -0.1054114 0.157301 0 -0.110624 0.1210294 0 -0.1414333 0.1156014 0 -0.1423232 -0.03724241 0 0.1641278 0.06116062 0 -0.1054114 0.05997818 0 -0.1000395 0.07517385 0 -0.0549404 0.07936614 0 -0.05137944 -0.02625751 0 0.1641278 -0.005559861 0 0.2581583 -0.001007139 0 0.2550715 0.003185093 0 0.2515106 0.006967782 0 0.2475172 0.01029658 0 0.2431383 0.01313239 0 0.2384251 -0.08188074 0 0.2228485 -0.08069831 0 0.2282204 0.05938345 0 -0.09457123 0.05938345 0 -0.08907073 0.05997818 0 -0.08360242 0.1590573 0 -0.07823055 0.1602398 0 -0.08360242 0.1608344 0 -0.08907073 -0.07663238 0 0.1908348 -0.078942 0 0.195827 -0.08069831 0 0.2010396 0.06116062 0 -0.07823055 0.06291693 0 -0.07301795 0.1362991 0 -0.04829263 0.1408518 0 -0.05137944 0.1450441 0 -0.0549404 0.1210294 0 -0.04220867 0.1263295 0 -0.04368019 0.1314393 0 -0.04571616 0.01544201 0 0.233433 0.01719832 0 0.2282204 0.01838076 0 0.2228485 0.01897549 0 0.2173802 0.01897549 0 0.2118797 0.01838076 0 0.2064114 0.01719832 0 0.2010396 0.01544201 0 0.195827 0.01313239 0 0.1908348 0.09388846 0 -0.04368019 0.006967782 0 0.1817427 0.003185093 0 0.1777494 0.0991885 0 -0.04220867 0.1046165 0 -0.04131877 0.110109 0 -0.04102098 -0.001007139 0 0.1741884 -0.005559861 0 0.1711016 0.08877861 0 -0.04571616 -0.0104196 0 0.1685252 0.08391886 0 -0.04829263 -0.01552945 0 0.1664892 -0.02082949 0 0.1650177 0.01029658 0 0.1861217 0.1156014 0 -0.04131877 -0.3048 0.00317496 0.3048 -0.05794012 0.00317496 0.2581583 -0.06249284 0.00317496 0.2550715 -0.04267048 0.00317496 0.2642423 -0.04797047 0.00317496 0.2627708 -0.05308032 0.00317496 0.2607348 -0.05308032 0.00317496 0.1685252 -0.04797047 0.00317496 0.1664892 0.07936614 0.00317496 -0.05137944 -0.01552945 0.00317496 0.2627708 -0.02082949 0.00317496 0.2642423 0.3048 0.00317496 0.3048 -0.02625751 0.00317496 0.2651322 -0.03174996 0.00317496 0.26543 -0.03724241 0.00317496 0.2651322 -0.07663238 0.00317496 0.1908348 -0.07379657 0.00317496 0.1861217 -0.3048 0.00317496 -0.3048 -0.07046782 0.00317496 0.1817427 -0.06668514 0.00317496 0.1777494 -0.06249284 0.00317496 0.1741884 -0.05794012 0.00317496 0.1711016 0.08391886 0.00317496 -0.04829263 -0.01552945 0.00317496 0.1664892 -0.06668514 0.00317496 0.2515106 -0.07046782 0.00317496 0.2475172 -0.07379657 0.00317496 0.2431383 0.01029658 0.00317496 0.1861217 0.01313239 0.00317496 0.1908348 0.09388846 0.00317496 -0.04368019 0.07139116 0.00317496 -0.05893373 0.06806236 0.00317496 -0.06331264 0.1488268 0.00317496 -0.05893373 0.1450441 0.00317496 -0.0549404 0.1408518 0.00317496 -0.05137944 -0.07663238 0.00317496 0.2384251 -0.078942 0.00317496 0.233433 -0.08069831 0.00317496 0.2282204 0.1362991 0.00317496 -0.04829263 0.1314393 0.00317496 -0.04571616 0.1263295 0.00317496 -0.04368019 -0.001007139 0.00317496 0.2550715 -0.005559861 0.00317496 0.2581583 -0.0104196 0.00317496 0.2607348 -0.08188074 0.00317496 0.2228485 -0.08247548 0.00317496 0.2173802 -0.08247548 0.00317496 0.2118797 -0.04267048 0.00317496 0.1650177 -0.03724241 0.00317496 0.1641278 -0.03174996 0.00317496 0.16383 0.07517385 0.00317496 -0.0549404 0.07517385 0.00317496 -0.1287015 0.07936614 0.00317496 -0.1322625 0.08391886 0.00317496 -0.1353493 0.08877861 0.00317496 -0.1379258 0.01029658 0.00317496 0.2431383 0.006967782 0.00317496 0.2475172 0.003185093 0.00317496 0.2515106 -0.08188074 0.00317496 0.2064114 -0.08069831 0.00317496 0.2010396 -0.078942 0.00317496 0.195827 -0.02625751 0.00317496 0.1641278 -0.02082949 0.00317496 0.1650177 0.01838076 0.00317496 0.2064114 0.01897549 0.00317496 0.2118797 0.110109 0.00317496 -0.04102098 0.01897549 0.00317496 0.2173802 0.01838076 0.00317496 0.2228485 0.05997818 0.00317496 -0.08360242 0.05938345 0.00317496 -0.08907073 0.05938345 0.00317496 -0.09457123 0.05997818 0.00317496 -0.1000395 0.0991885 0.00317496 -0.04220867 0.01544201 0.00317496 0.195827 0.1046165 0.00317496 -0.04131877 0.01719832 0.00317496 0.2010396 0.06522655 0.00317496 -0.06802582 0.06291693 0.00317496 -0.07301795 0.06116062 0.00317496 -0.07823055 0.06116062 0.00317496 -0.1054114 0.06291693 0.00317496 -0.110624 0.06522655 0.00317496 -0.1156162 0.06806236 0.00317496 -0.1203293 0.07139116 0.00317496 -0.1247082 0.1314393 0.00317496 -0.1379258 0.1362991 0.00317496 -0.1353493 0.3048 0.00317496 -0.3048 0.1408518 0.00317496 -0.1322625 0.1450441 0.00317496 -0.1287015 0.1488268 0.00317496 -0.1247082 0.1521556 0.00317496 -0.1203293 0.1549914 0.00317496 -0.1156162 0.1210294 0.00317496 -0.04220867 0.1156014 0.00317496 -0.04131877 -0.001007139 0.00317496 0.1741884 0.003185093 0.00317496 0.1777494 0.006967782 0.00317496 0.1817427 0.157301 0.00317496 -0.110624 0.1590573 0.00317496 -0.1054114 0.1602398 0.00317496 -0.1000395 0.1590573 0.00317496 -0.07823055 0.157301 0.00317496 -0.07301795 0.01719832 0.00317496 0.2282204 0.01544201 0.00317496 0.233433 0.01313239 0.00317496 0.2384251 0.08877861 0.00317496 -0.04571616 -0.0104196 0.00317496 0.1685252 -0.005559861 0.00317496 0.1711016 0.09388846 0.00317496 -0.1399617 0.0991885 0.00317496 -0.1414333 0.1046165 0.00317496 -0.1423232 0.110109 0.00317496 -0.142621 0.1156014 0.00317496 -0.1423232 0.1549914 0.00317496 -0.06802582 0.1521556 0.00317496 -0.06331264 0.1210294 0.00317496 -0.1414333 0.1263295 0.00317496 -0.1399617 0.1608344 0.00317496 -0.09457123 0.1608344 0.00317496 -0.08907073 0.1602398 0.00317496 -0.08360242</float_array>
          <technique_common>
            <accessor source="#Banner_-_Banner-mesh-positions-array" count="240" stride="3">
              <param name="X" type="float"/>
              <param name="Y" type="float"/>
              <param name="Z" type="float"/>
            </accessor>
          </technique_common>
        </source>
        <source id="Banner_-_Banner-mesh-normals">
          <float_array id="Banner_-_Banner-mesh-normals-array" count="1452">0 -1 0 0 -1 0 0 -1 0 0 -1 0 0 -1 0 0 -1 0 0 -1 0 0 -1 0 0 -1 0 0 -1 0 0 -1 0 0 -1 0 0 -1 0 0 -1 0 0 -1 0 0 -1 0 0 -1 0 0 -1 0 0 -1 0 0 -1 0 0 -1 0 0 -1 0 0 -1 0 0 -1 0 0 -1 0 0 -1 0 0 -1 0 0 -1 0 0 -1 0 0 -1 0 0 -1 0 0 -1 0 0 -1 0 0 -1 0 0 -1 0 0 -1 0 0 -1 0 0 -1 0 0 -1 0 0 -1 0 0 -1 0 0 -1 0 0 -1 0 0 -1 0 0 -1 0 0 -1 0 0 -1 0 0 -1 0 0 -1 0 0 -1 0 0 -1 0 0 -1 0 0 -1 0 0 -1 0 0 -1 0 0 -1 0 0 -1 0 0 -1 0 0 -1 0 0 -1 0 0 -1 0 0 -1 0 0 -1 0 0 -1 0 0 -1 0 0 -1 0 0 -1 0 0 -1 0 0 -1 0 0 -1 0 0 -1 0 0 -1 0 0 -1 0 0 -1 0 0 -1 0 0 -1 0 0 -1 0 0 -1 0 0 -1 0 0 -1 0 0 -1 0 0 -1 0 0 -1 0 0 -1 0 0 -1 0 0 -1 0 0 -1 0 0 -1 0 0 -1 0 0 -1 0 0 -1 0 0 -1 0 0 -1 0 0 -1 0 0 -1 0 0 -1 0 0 -1 0 0 -1 0 0 -1 0 0 -1 0 0 -1 0 0 -1 0 0 -1 0 0 -1 0 0 -1 0 0 -1 0 0 -1 0 0 -1 0 0 -1 0 0 -1 0 0 -1 0 0 -1 0 0 -1 0 0 -1 0 0 -1 0 0 -1 0 0 -1 0 0 -1 0 0 -1 0 0 -1 0 0 -1 0 0 -1 0 0 1 0 0 1 0 0 1 0 0 1 0 0 1 0 0 1 0 0 1 0 0 1 0 0 1 0 0 1 0 0 1 0 0 1 0 0 1 0 0 1 0 0 1 0 0 1 0 0 1 0 0 1 0 0 1 0 0 1 0 0 1 0 0 1 0 0 1 0 0 1 0 0 1 0 0 1 0 0 1 0 0 1 0 0 1 0 0 1 0 0 1 0 0 1 0 0 1 0 0 1 0 0 1 0 0 1 0 0 1 0 0 1 0 0 1 0 0 1 0 0 1 0 0 1 0 0 1 0 0 1 0 0 1 0 0 1 0 0 1 0 0 1 0 0 1 0 0 1 0 0 1 0 0 1 0 0 1 0 0 1 0 0 1 0 0 1 0 0 1 0 0 1 0 0 1 0 0 1 0 0 1 0 0 1 0 0 1 0 0 1 0 0 1 0 0 1 0 0 1 0 0 1 0 0 1 0 0 1 0 0 1 0 0 1 0 0 1 0 0 1 0 0 1 0 0 1 0 0 1 0 0 1 0 0 1 0 0 1 0 0 1 0 0 1 0 0 1 0 0 1 0 0 1 0 0 1 0 0 1 0 0 1 0 0 1 0 0 1 0 0 1 0 0 1 0 0 1 0 0 1 0 0 1 0 0 1 0 0 1 0 0 1 0 0 1 0 0 1 0 0 1 0 0 1 0 0 1 0 0 1 0 0 1 0 0 1 0 0 1 0 0 1 0 0 1 0 0 1 0 0 1 0 0 1 0 0 1 0 0 1 0 0 1 0 0 1 0 0 1 0 0 1 0 0 1 0 0 1 0 0 1 0 0 1 0 -1 0 0 -1 0 0 0 0 1 0 0 1 -0.05414032 0 0.9985333 -0.05414032 0 0.9985333 -0.1617817 0 0.9868266 -0.1617817 0 0.9868266 -0.2675268 0 0.9635504 -0.2675268 0 0.9635504 -0.3701398 0 0.9289761 -0.3701398 0 0.9289761 -0.4684083 0 0.8835122 -0.4684083 0 0.8835122 -0.5611857 0 0.82769 -0.5611857 0 0.82769 -0.6473867 0 0.7621618 -0.6473867 0 0.7621618 -0.7259954 0 0.6876995 -0.7259954 0 0.6876995 -0.7960937 0 0.6051734 -0.7960937 0 0.6051734 -0.8568569 0 0.5155544 -0.8568569 0 0.5155544 -0.9075754 0 0.4198893 -0.9075754 0 0.4198893 -0.9476534 0 0.3193008 -0.9476534 0 0.3193008 -0.9766206 0 0.2149705 -0.9766206 0 0.2149705 -0.9941379 0 0.1081193 -0.9941379 0 0.1081193 -1 0 0 -1 0 0 -0.9941379 0 -0.1081193 -0.9941379 0 -0.1081193 -0.9766206 0 -0.2149705 -0.9766206 0 -0.2149705 -0.9476534 0 -0.3193008 -0.9476534 0 -0.3193008 -0.9075754 0 -0.4198893 -0.9075754 0 -0.4198893 -0.8568569 0 -0.5155544 -0.8568569 0 -0.5155544 -0.7960937 0 -0.6051734 -0.7960937 0 -0.6051734 -0.7259942 0 -0.6877009 -0.7259942 0 -0.6877009 -0.6473867 0 -0.7621618 -0.6473867 0 -0.7621618 -0.5611894 0 -0.8276875 -0.5611894 0 -0.8276875 -0.4684062 0 -0.8835133 -0.4684062 0 -0.8835133 -0.3701375 0 -0.928977 -0.3701375 0 -0.928977 -0.2675294 0 -0.9635498 -0.2675294 0 -0.9635498 -0.1617844 0 -0.9868261 -0.1617844 0 -0.9868261 -0.05413758 0 -0.9985335 -0.05413758 0 -0.9985335 0.05413764 0 -0.9985335 0.05413764 0 -0.9985335 0.1617843 0 -0.9868261 0.1617843 0 -0.9868261 0.2675294 0 -0.9635498 0.2675294 0 -0.9635498 0.3701376 0 -0.928977 0.3701376 0 -0.928977 0.468406 0 -0.8835133 0.468406 0 -0.8835133 0.5611893 0 -0.8276875 0.5611893 0 -0.8276875 0.6473867 0 -0.7621617 0.6473867 0 -0.7621617 0.7259944 0 -0.6877006 0.7259944 0 -0.6877006 0.7960936 0 -0.6051736 0.7960936 0 -0.6051736 0.8568569 0 -0.5155543 0.8568569 0 -0.5155543 0.9075754 0 -0.4198893 0.9075754 0 -0.4198893 0.9476532 0 -0.3193014 0.9476532 0 -0.3193014 0.9766207 0 -0.2149699 0.9766207 0 -0.2149699 0.9941379 0 -0.1081196 0.9941379 0 -0.1081196 1 0 0 1 0 0 0.9941379 0 0.1081196 0.9941379 0 0.1081196 0.9766207 0 0.2149699 0.9766207 0 0.2149699 0.9476532 0 0.3193014 0.9476532 0 0.3193014 0.9075754 0 0.4198893 0.9075754 0 0.4198893 0.8568569 0 0.5155543 0.8568569 0 0.5155543 0.7960936 0 0.6051736 0.7960936 0 0.6051736 0.7259957 0 0.6876993 0.7259957 0 0.6876993 0.6473867 0 0.7621617 0.6473867 0 0.7621617 0.5611856 0 0.82769 0.5611856 0 0.82769 0.4684081 0 0.8835123 0.4684081 0 0.8835123 0.37014 0 0.928976 0.37014 0 0.928976 0.2675269 0 0.9635505 0.2675269 0 0.9635505 0.1617817 0 0.9868266 0.1617817 0 0.9868266 0.05414032 0 0.9985333 0.05414032 0 0.9985333 0 0 -1 0 0 -1 -0.05413764 0 0.9985335 -0.05413764 0 0.9985335 -0.1617817 0 0.9868266 -0.1617817 0 0.9868266 -0.2675296 0 0.9635496 -0.2675296 0 0.9635496 -0.3701367 0 0.9289774 -0.3701367 0 0.9289774 -0.468409 0 0.8835119 -0.468409 0 0.8835119 -0.5611869 0 0.8276892 -0.5611869 0 0.8276892 -0.6473871 0 0.7621614 -0.6473871 0 0.7621614 -0.7259951 0 0.6877 -0.7259951 0 0.6877 -0.7960926 0 0.605175 -0.7960926 0 0.605175 -0.8568572 0 0.5155537 -0.8568572 0 0.5155537 -0.9075756 0 0.4198888 -0.9075756 0 0.4198888 -0.9476538 0 0.3192998 -0.9476538 0 0.3192998 -0.9766204 0 0.2149711 -0.9766204 0 0.2149711 -0.9941381 0 0.1081181 -0.9941381 0 0.1081181 -1 0 0 -1 0 0 -0.9941381 0 -0.1081181 -0.9941381 0 -0.1081181 -0.9766204 0 -0.2149711 -0.9766204 0 -0.2149711 -0.9476538 0 -0.3192998 -0.9476538 0 -0.3192998 -0.9075756 0 -0.4198888 -0.9075756 0 -0.4198888 -0.8568572 0 -0.5155537 -0.8568572 0 -0.5155537 -0.7960928 0 -0.6051746 -0.7960928 0 -0.6051746 -0.7259951 0 -0.6877 -0.7259951 0 -0.6877 -0.6473867 0 -0.7621617 -0.6473867 0 -0.7621617 -0.5611864 0 -0.8276895 -0.5611864 0 -0.8276895 -0.468409 0 -0.8835119 -0.468409 0 -0.8835119 -0.3701379 0 -0.9289769 -0.3701379 0 -0.9289769 -0.2675283 0 -0.9635499 -0.2675283 0 -0.9635499 -0.1617817 0 -0.9868266 -0.1617817 0 -0.9868266 -0.05413901 0 -0.9985334 -0.05413901 0 -0.9985334 0.05413895 0 -0.9985334 0.05413895 0 -0.9985334 0.1617817 0 -0.9868266 0.1617817 0 -0.9868266 0.2675283 0 -0.9635499 0.2675283 0 -0.9635499 0.3701388 0 -0.9289765 0.3701388 0 -0.9289765 0.4684078 0 -0.8835124 0.4684078 0 -0.8835124 0.561187 0 -0.827689 0.561187 0 -0.827689 0.6473867 0 -0.7621617 0.6473867 0 -0.7621617 0.7259951 0 -0.6877 0.7259951 0 -0.6877 0.7960935 0 -0.6051737 0.7960935 0 -0.6051737 0.8568568 0 -0.5155547 0.8568568 0 -0.5155547 0.9075756 0 -0.4198888 0.9075756 0 -0.4198888 0.9476534 0 -0.319301 0.9476534 0 -0.319301 0.9766206 0 -0.2149705 0.9766206 0 -0.2149705 0.994138 0 -0.1081188 0.994138 0 -0.1081188 1 0 0 1 0 0 0.994138 0 0.1081188 0.994138 0 0.1081188 0.9766206 0 0.2149705 0.9766206 0 0.2149705 0.9476534 0 0.319301 0.9476534 0 0.319301 0.9075756 0 0.4198888 0.9075756 0 0.4198888 0.8568568 0 0.5155547 0.8568568 0 0.5155547 0.7960932 0 0.605174 0.7960932 0 0.605174 0.7259951 0 0.6877 0.7259951 0 0.6877 0.6473871 0 0.7621614 0.6473871 0 0.7621614 0.5611875 0 0.8276888 0.5611875 0 0.8276888 0.4684078 0 0.8835124 0.4684078 0 0.8835124 0.3701376 0 0.928977 0.3701376 0 0.928977 0.2675296 0 0.9635496 0.2675296 0 0.9635496 0.1617817 0 0.9868266 0.1617817 0 0.9868266 0.05413758 0 0.9985335 0.05413758 0 0.9985335 1 0 0 1 0 0</float_array>
          <technique_common>
            <accessor source="#Banner_-_Banner-mesh-normals-array" count="484" stride="3">
              <param name="X" type="float"/>
              <param name="Y" type="float"/>
              <param name="Z" type="float"/>
            </accessor>
          </technique_common>
        </source>
        <source id="Banner_-_Banner-mesh-map-0">
          <float_array id="Banner_-_Banner-mesh-map-0-array" count="2904">0.6236323 0.2883352 0.6174111 0.2949028 -0.001279294 -0.001279294 0.3972231 0.9194951 0.4047107 0.9245718 -0.001279294 1.001279 0.4298234 0.771391 0.4211068 0.7738111 -0.001279294 -0.001279294 0.47446 0.9321575 0.4828637 0.9288091 1.001279 1.001279 1.001279 -0.001279294 0.6810872 0.265443 0.6720541 0.2659329 -0.001279294 -0.001279294 0.6544106 0.2698165 0.6460068 0.2731649 0.6460068 0.2731649 0.6380144 0.2774022 -0.001279294 -0.001279294 0.6380144 0.2774022 0.6305269 0.2824788 -0.001279294 -0.001279294 -0.001279294 -0.001279294 0.6305269 0.2824788 0.6236323 0.2883352 0.4211068 0.7738111 0.4127032 0.7771593 -0.001279294 -0.001279294 0.4127032 0.7771593 0.4047107 0.7813969 -0.001279294 -0.001279294 -0.001279294 -0.001279294 0.4047107 0.7813969 0.3972231 0.7864733 0.3972231 0.7864733 0.3903285 0.7923298 -0.001279294 -0.001279294 0.3903285 0.7923298 0.3841075 0.7988975 -0.001279294 -0.001279294 -0.001279294 -0.001279294 0.3841075 0.7988975 0.3786328 0.8060989 1.001279 -0.001279294 0.6720541 0.2659329 -0.001279294 -0.001279294 0.6720541 0.2659329 0.6631271 0.2673964 -0.001279294 -0.001279294 -0.001279294 -0.001279294 0.6631271 0.2673964 0.6544106 0.2698165 0.6174111 0.2949028 0.6119365 0.3021044 -0.001279294 -0.001279294 0.6119365 0.3021044 0.6072728 0.3098557 -0.001279294 -0.001279294 -0.001279294 -0.001279294 0.6072728 0.3098557 0.6034743 0.3180658 0.3643594 0.8484613 0.3643594 0.8575074 -0.001279294 1.001279 0.3701705 0.883908 0.373969 0.8921182 -0.001279294 1.001279 0.373969 0.8921182 0.3786328 0.8998696 -0.001279294 1.001279 0.47446 0.9321575 1.001279 1.001279 0.4657434 0.9345775 1.001279 -0.001279294 0.764511 0.3444666 0.763533 0.3354734 1.001279 -0.001279294 0.7549015 0.3098557 0.7502378 0.3021044 0.7502378 0.3021044 0.7447631 0.2949028 1.001279 -0.001279294 0.7447631 0.2949028 0.738542 0.2883352 1.001279 -0.001279294 1.001279 -0.001279294 0.738542 0.2883352 0.7316473 0.2824788 0.7316473 0.2824788 0.72416 0.2774022 1.001279 -0.001279294 0.72416 0.2774022 0.7161673 0.2731649 1.001279 -0.001279294 1.001279 -0.001279294 0.7161673 0.2731649 0.7077636 0.2698165 0.3643594 0.8484613 -0.001279294 1.001279 0.3653374 0.839468 0.3786328 0.8998696 0.3841075 0.9070711 -0.001279294 1.001279 0.3841075 0.9070711 0.3903285 0.9136387 -0.001279294 1.001279 -0.001279294 1.001279 0.3903285 0.9136387 0.3972231 0.9194951 0.4047107 0.9245718 0.4127032 0.9288091 -0.001279294 1.001279 0.4127032 0.9288091 0.4211068 0.9321575 -0.001279294 1.001279 -0.001279294 1.001279 0.4211068 0.9321575 0.4298234 0.9345775 0.4298234 0.9345775 0.4387504 0.9360411 -0.001279294 1.001279 0.4387504 0.9360411 0.4477834 0.9365309 -0.001279294 1.001279 -0.001279294 1.001279 0.4477834 0.9365309 1.001279 1.001279 0.4477834 0.9365309 0.4568163 0.9360411 1.001279 1.001279 1.001279 1.001279 0.4568163 0.9360411 0.4657434 0.9345775 0.6072728 0.3881236 0.6119365 0.3958749 0.4477834 0.7694379 0.6119365 0.3958749 0.6174111 0.4030765 0.4477834 0.7694379 0.7447631 0.4030765 0.7502378 0.3958749 1.001279 1.001279 0.7502378 0.3958749 0.7549015 0.3881236 1.001279 1.001279 1.001279 1.001279 0.7549015 0.3881236 0.7586999 0.3799134 0.763533 0.3354734 0.7615882 0.3266386 1.001279 -0.001279294 0.7615882 0.3266386 0.7586999 0.3180658 1.001279 -0.001279294 1.001279 -0.001279294 0.7586999 0.3180658 0.7549015 0.3098557 0.7077636 0.2698165 0.6990473 0.2673964 1.001279 -0.001279294 0.6990473 0.2673964 0.6901201 0.2659329 1.001279 -0.001279294 1.001279 -0.001279294 0.6901201 0.2659329 0.6810872 0.265443 0.4298234 0.771391 -0.001279294 -0.001279294 0.4387504 0.7699275 -0.001279294 -0.001279294 0.6034743 0.3180658 0.4387504 0.7699275 0.4387504 0.7699275 0.6034743 0.3180658 0.4477834 0.7694379 0.6034743 0.3180658 0.6005859 0.3266386 0.4477834 0.7694379 0.4477834 0.7694379 0.6005859 0.3266386 0.5986412 0.3354734 0.6174111 0.4030765 0.6236323 0.4096441 0.4477834 0.7694379 0.6236323 0.4096441 0.6305269 0.4155005 0.4477834 0.7694379 0.4477834 0.7694379 0.6305269 0.4155005 0.4568163 0.7699275 0.4828637 0.9288091 0.4908562 0.9245718 1.001279 1.001279 0.4908562 0.9245718 0.4983436 0.9194951 1.001279 1.001279 1.001279 1.001279 0.4983436 0.9194951 0.5052384 0.9136387 0.5052384 0.9136387 0.5114595 0.9070711 1.001279 1.001279 0.5114595 0.9070711 0.5169339 0.8998696 1.001279 1.001279 1.001279 1.001279 0.5169339 0.8998696 0.5215979 0.8921182 0.3643594 0.8575074 0.3653374 0.8665006 -0.001279294 1.001279 0.3653374 0.8665006 0.3672822 0.8753354 -0.001279294 1.001279 -0.001279294 1.001279 0.3672822 0.8753354 0.3701705 0.883908 0.5986412 0.3354734 0.5976632 0.3444666 0.4477834 0.7694379 0.5976632 0.3444666 0.5976632 0.3535128 0.4477834 0.7694379 0.4477834 0.7694379 0.5976632 0.3535128 0.5986412 0.362506 0.7586999 0.3799134 0.7615882 0.3713408 1.001279 1.001279 0.7615882 0.3713408 0.763533 0.362506 1.001279 1.001279 1.001279 1.001279 0.763533 0.362506 1.001279 -0.001279294 0.763533 0.362506 0.764511 0.3535128 1.001279 -0.001279294 1.001279 -0.001279294 0.764511 0.3535128 0.764511 0.3444666 0.3786328 0.8060989 0.373969 0.8138502 -0.001279294 -0.001279294 0.373969 0.8138502 0.3701705 0.8220604 -0.001279294 -0.001279294 -0.001279294 -0.001279294 0.3701705 0.8220604 -0.001279294 1.001279 0.3701705 0.8220604 0.3672822 0.8306332 -0.001279294 1.001279 -0.001279294 1.001279 0.3672822 0.8306332 0.3653374 0.839468 0.5986412 0.362506 0.6005859 0.3713408 0.4477834 0.7694379 0.6005859 0.3713408 0.6034743 0.3799134 0.4477834 0.7694379 0.4477834 0.7694379 0.6034743 0.3799134 0.6072728 0.3881236 0.72416 0.4205771 0.7316473 0.4155005 1.001279 1.001279 0.7316473 0.4155005 0.738542 0.4096441 1.001279 1.001279 1.001279 1.001279 0.738542 0.4096441 0.7447631 0.4030765 0.6990473 0.4305829 0.7077636 0.4281628 1.001279 1.001279 0.7077636 0.4281628 0.7161673 0.4248145 1.001279 1.001279 1.001279 1.001279 0.7161673 0.4248145 0.72416 0.4205771 0.5215979 0.8921182 0.5253962 0.883908 1.001279 1.001279 0.5253962 0.883908 0.5282846 0.8753354 1.001279 1.001279 1.001279 1.001279 0.5282846 0.8753354 0.5302293 0.8665006 0.5302293 0.8665006 0.5312074 0.8575074 1.001279 1.001279 0.5312074 0.8575074 0.5312074 0.8484613 1.001279 1.001279 1.001279 1.001279 0.5312074 0.8484613 0.5302293 0.839468 0.5302293 0.839468 0.5282846 0.8306332 1.001279 1.001279 0.5282846 0.8306332 0.5253962 0.8220604 1.001279 1.001279 1.001279 1.001279 0.5253962 0.8220604 0.6990473 0.4305829 0.5253962 0.8220604 0.5215979 0.8138502 0.6990473 0.4305829 0.6544106 0.4281628 0.5114595 0.7988975 0.5052384 0.7923298 0.6544106 0.4281628 0.6631271 0.4305829 0.5114595 0.7988975 0.6631271 0.4305829 0.6720541 0.4320465 0.5114595 0.7988975 0.5114595 0.7988975 0.6720541 0.4320465 0.6810872 0.4325362 0.5052384 0.7923298 0.4983436 0.7864733 0.6544106 0.4281628 0.4983436 0.7864733 0.4908562 0.7813969 0.6544106 0.4281628 0.6544106 0.4281628 0.4908562 0.7813969 0.6460068 0.4248145 0.4908562 0.7813969 0.4828637 0.7771593 0.6460068 0.4248145 0.6460068 0.4248145 0.4828637 0.7771593 0.6380144 0.4205771 0.4828637 0.7771593 0.47446 0.7738111 0.6380144 0.4205771 0.6380144 0.4205771 0.47446 0.7738111 0.6305269 0.4155005 0.47446 0.7738111 0.4657434 0.771391 0.6305269 0.4155005 0.6305269 0.4155005 0.4657434 0.771391 0.4568163 0.7699275 0.5215979 0.8138502 0.5169339 0.8060989 0.6990473 0.4305829 0.5169339 0.8060989 0.5114595 0.7988975 0.6990473 0.4305829 0.6990473 0.4305829 0.5114595 0.7988975 0.6901201 0.4320465 0.5114595 0.7988975 0.6810872 0.4325362 0.6901201 0.4320465 -0.001279294 1.001279 0.4047107 0.9245718 0.3972231 0.9194951 0.4298234 0.9345775 0.4211068 0.9321575 -0.001279294 1.001279 0.4211068 0.9321575 0.4127032 0.9288091 -0.001279294 1.001279 -0.001279294 1.001279 0.4127032 0.9288091 0.4047107 0.9245718 0.4127032 0.7771593 0.4211068 0.7738111 0.6305269 0.4155005 0.47446 0.9321575 0.4657434 0.9345775 1.001279 1.001279 0.4657434 0.9345775 0.4568163 0.9360411 1.001279 1.001279 0.4568163 0.9360411 0.4477834 0.9365309 1.001279 1.001279 1.001279 1.001279 0.4477834 0.9365309 -0.001279294 1.001279 0.4477834 0.9365309 0.4387504 0.9360411 -0.001279294 1.001279 -0.001279294 1.001279 0.4387504 0.9360411 0.4298234 0.9345775 0.373969 0.8138502 0.3786328 0.8060989 -0.001279294 -0.001279294 0.3786328 0.8060989 0.3841075 0.7988975 -0.001279294 -0.001279294 0.3841075 0.7988975 0.3903285 0.7923298 -0.001279294 -0.001279294 -0.001279294 -0.001279294 0.3903285 0.7923298 0.3972231 0.7864733 0.4127032 0.7771593 0.6305269 0.4155005 0.4047107 0.7813969 0.6380144 0.4205771 0.6305269 0.4155005 0.47446 0.7738111 0.3972231 0.9194951 0.3903285 0.9136387 -0.001279294 1.001279 0.3903285 0.9136387 0.3841075 0.9070711 -0.001279294 1.001279 -0.001279294 1.001279 0.3841075 0.9070711 0.3786328 0.8998696 0.5169339 0.8060989 0.5215979 0.8138502 0.6544106 0.4281628 0.6174111 0.4030765 0.6119365 0.3958749 0.3972231 0.7864733 0.7447631 0.4030765 0.738542 0.4096441 1.001279 1.001279 0.738542 0.4096441 0.7316473 0.4155005 1.001279 1.001279 0.3786328 0.8998696 0.373969 0.8921182 -0.001279294 1.001279 0.373969 0.8921182 0.3701705 0.883908 -0.001279294 1.001279 -0.001279294 1.001279 0.3701705 0.883908 0.3672822 0.8753354 0.7316473 0.4155005 0.72416 0.4205771 1.001279 1.001279 0.72416 0.4205771 0.7161673 0.4248145 1.001279 1.001279 1.001279 1.001279 0.7161673 0.4248145 0.7077636 0.4281628 0.4983436 0.9194951 0.4908562 0.9245718 1.001279 1.001279 0.4908562 0.9245718 0.4828637 0.9288091 1.001279 1.001279 1.001279 1.001279 0.4828637 0.9288091 0.47446 0.9321575 0.3672822 0.8753354 0.3653374 0.8665006 -0.001279294 1.001279 0.3653374 0.8665006 0.3643594 0.8575074 -0.001279294 1.001279 -0.001279294 1.001279 0.3643594 0.8575074 0.3643594 0.8484613 0.4211068 0.7738111 0.4298234 0.771391 0.6305269 0.4155005 0.4298234 0.771391 0.4387504 0.7699275 0.6305269 0.4155005 0.6305269 0.4155005 0.4387504 0.7699275 0.4477834 0.7694379 0.4047107 0.7813969 0.6305269 0.4155005 0.3972231 0.7864733 0.6305269 0.4155005 0.6236323 0.4096441 0.3972231 0.7864733 0.3972231 0.7864733 0.6236323 0.4096441 0.6174111 0.4030765 0.6236323 0.2883352 0.6305269 0.2824788 -0.001279294 -0.001279294 0.6305269 0.2824788 0.6380144 0.2774022 -0.001279294 -0.001279294 -0.001279294 -0.001279294 0.6380144 0.2774022 0.6460068 0.2731649 0.5169339 0.8998696 0.5114595 0.9070711 1.001279 1.001279 0.5114595 0.9070711 0.5052384 0.9136387 1.001279 1.001279 1.001279 1.001279 0.5052384 0.9136387 0.4983436 0.9194951 0.3643594 0.8484613 0.3653374 0.839468 -0.001279294 1.001279 0.3653374 0.839468 0.3672822 0.8306332 -0.001279294 1.001279 -0.001279294 1.001279 0.3672822 0.8306332 -0.001279294 -0.001279294 0.3672822 0.8306332 0.3701705 0.8220604 -0.001279294 -0.001279294 -0.001279294 -0.001279294 0.3701705 0.8220604 0.373969 0.8138502 0.4477834 0.7694379 0.4568163 0.7699275 0.6305269 0.4155005 0.4568163 0.7699275 0.4657434 0.771391 0.6305269 0.4155005 0.6305269 0.4155005 0.4657434 0.771391 0.47446 0.7738111 0.5302293 0.839468 0.5312074 0.8484613 0.6810872 0.4325362 0.5312074 0.8484613 0.5312074 0.8575074 0.6810872 0.4325362 0.6810872 0.4325362 0.5312074 0.8575074 0.5302293 0.8665006 0.5986412 0.362506 0.5976632 0.3535128 -0.001279294 -0.001279294 0.5976632 0.3535128 0.5976632 0.3444666 -0.001279294 -0.001279294 -0.001279294 -0.001279294 0.5976632 0.3444666 0.5986412 0.3354734 0.6544106 0.4281628 0.5215979 0.8138502 0.6631271 0.4305829 0.5215979 0.8138502 0.5253962 0.8220604 0.6631271 0.4305829 0.6631271 0.4305829 0.5253962 0.8220604 0.6720541 0.4320465 0.6720541 0.4320465 0.5253962 0.8220604 0.6810872 0.4325362 0.5253962 0.8220604 0.5282846 0.8306332 0.6810872 0.4325362 0.6810872 0.4325362 0.5282846 0.8306332 0.5302293 0.839468 0.6119365 0.3958749 0.6072728 0.3881236 0.3972231 0.7864733 0.6072728 0.3881236 0.6034743 0.3799134 0.3972231 0.7864733 0.3972231 0.7864733 0.6034743 0.3799134 -0.001279294 -0.001279294 0.6034743 0.3799134 0.6005859 0.3713408 -0.001279294 -0.001279294 -0.001279294 -0.001279294 0.6005859 0.3713408 0.5986412 0.362506 0.5986412 0.3354734 0.6005859 0.3266386 -0.001279294 -0.001279294 0.6005859 0.3266386 0.6034743 0.3180658 -0.001279294 -0.001279294 -0.001279294 -0.001279294 0.6034743 0.3180658 0.6072728 0.3098557 0.6072728 0.3098557 0.6119365 0.3021044 -0.001279294 -0.001279294 0.6119365 0.3021044 0.6174111 0.2949028 -0.001279294 -0.001279294 -0.001279294 -0.001279294 0.6174111 0.2949028 0.6236323 0.2883352 0.7161673 0.2731649 0.72416 0.2774022 1.001279 -0.001279294 0.72416 0.2774022 0.7316473 0.2824788 1.001279 -0.001279294 1.001279 -0.001279294 0.7316473 0.2824788 0.738542 0.2883352 0.738542 0.2883352 0.7447631 0.2949028 1.001279 -0.001279294 0.7447631 0.2949028 0.7502378 0.3021044 1.001279 -0.001279294 1.001279 -0.001279294 0.7502378 0.3021044 0.7549015 0.3098557 0.7077636 0.4281628 0.6990473 0.4305829 1.001279 1.001279 0.6990473 0.4305829 0.6901201 0.4320465 1.001279 1.001279 1.001279 1.001279 0.6901201 0.4320465 0.6810872 0.4325362 0.4983436 0.7864733 0.5052384 0.7923298 0.6544106 0.4281628 0.5052384 0.7923298 0.5114595 0.7988975 0.6544106 0.4281628 0.6544106 0.4281628 0.5114595 0.7988975 0.5169339 0.8060989 0.7549015 0.3098557 0.7586999 0.3180658 1.001279 -0.001279294 0.7586999 0.3180658 0.7615882 0.3266386 1.001279 -0.001279294 1.001279 -0.001279294 0.7615882 0.3266386 0.763533 0.3354734 0.7615882 0.3713408 0.7586999 0.3799134 1.001279 1.001279 0.5302293 0.8665006 0.5282846 0.8753354 0.6810872 0.4325362 0.5282846 0.8753354 0.5253962 0.883908 0.6810872 0.4325362 0.6810872 0.4325362 0.5253962 0.883908 1.001279 1.001279 0.5253962 0.883908 0.5215979 0.8921182 1.001279 1.001279 1.001279 1.001279 0.5215979 0.8921182 0.5169339 0.8998696 0.6380144 0.4205771 0.47446 0.7738111 0.6460068 0.4248145 0.47446 0.7738111 0.4828637 0.7771593 0.6460068 0.4248145 0.6460068 0.4248145 0.4828637 0.7771593 0.6544106 0.4281628 0.4828637 0.7771593 0.4908562 0.7813969 0.6544106 0.4281628 0.6544106 0.4281628 0.4908562 0.7813969 0.4983436 0.7864733 0.6460068 0.2731649 0.6544106 0.2698165 -0.001279294 -0.001279294 0.6544106 0.2698165 0.6631271 0.2673964 -0.001279294 -0.001279294 -0.001279294 -0.001279294 0.6631271 0.2673964 1.001279 -0.001279294 0.6631271 0.2673964 0.6720541 0.2659329 1.001279 -0.001279294 0.6720541 0.2659329 0.6810872 0.265443 1.001279 -0.001279294 1.001279 -0.001279294 0.6810872 0.265443 0.6901201 0.2659329 0.7586999 0.3799134 0.7549015 0.3881236 1.001279 1.001279 0.7549015 0.3881236 0.7502378 0.3958749 1.001279 1.001279 1.001279 1.001279 0.7502378 0.3958749 0.7447631 0.4030765 0.6901201 0.2659329 0.6990473 0.2673964 1.001279 -0.001279294 0.6990473 0.2673964 0.7077636 0.2698165 1.001279 -0.001279294 1.001279 -0.001279294 0.7077636 0.2698165 0.7161673 0.2731649 0.763533 0.3354734 0.764511 0.3444666 1.001279 -0.001279294 0.764511 0.3444666 0.764511 0.3535128 1.001279 -0.001279294 1.001279 -0.001279294 0.764511 0.3535128 1.001279 1.001279 0.764511 0.3535128 0.763533 0.362506 1.001279 1.001279 1.001279 1.001279 0.763533 0.362506 0.7615882 0.3713408 -0.001279294 1.001279 -0.001279294 -0.001279294 -0.001279294 1.001279 -0.001279294 -0.001279294 -0.001279294 -0.001279294 -0.001279294 1.001279 1.001279 1.001279 -0.001279294 1.001279 1.001279 1.001279 -0.001279294 1.001279 -0.001279294 1.001279 1.001279 1.001279 0.4477834 0.7694379 0.4477834 0.7694379 0.4568163 0.7699275 0.4477834 0.7694379 0.4568163 0.7699275 0.4568163 0.7699275 0.4568163 0.7699275 0.4568163 0.7699275 0.4657434 0.771391 0.4568163 0.7699275 0.4657434 0.771391 0.4657434 0.771391 0.4657434 0.771391 0.4657434 0.771391 0.47446 0.7738111 0.4657434 0.771391 0.47446 0.7738111 0.47446 0.7738111 0.47446 0.7738111 0.47446 0.7738111 0.4828637 0.7771593 0.47446 0.7738111 0.4828637 0.7771593 0.4828637 0.7771593 0.4828637 0.7771593 0.4828637 0.7771593 0.4908562 0.7813969 0.4828637 0.7771593 0.4908562 0.7813969 0.4908562 0.7813969 0.4908562 0.7813969 0.4908562 0.7813969 0.4983436 0.7864733 0.4908562 0.7813969 0.4983436 0.7864733 0.4983436 0.7864733 0.4983436 0.7864733 0.4983436 0.7864733 0.5052384 0.7923298 0.4983436 0.7864733 0.5052384 0.7923298 0.5052384 0.7923298 0.5052384 0.7923298 0.5052384 0.7923298 0.5114595 0.7988975 0.5052384 0.7923298 0.5114595 0.7988975 0.5114595 0.7988975 0.5114595 0.7988975 0.5114595 0.7988975 0.5169339 0.8060989 0.5114595 0.7988975 0.5169339 0.8060989 0.5169339 0.8060989 0.5169339 0.8060989 0.5169339 0.8060989 0.5215979 0.8138502 0.5169339 0.8060989 0.5215979 0.8138502 0.5215979 0.8138502 0.5215979 0.8138502 0.5215979 0.8138502 0.5253962 0.8220604 0.5215979 0.8138502 0.5253962 0.8220604 0.5253962 0.8220604 0.5253962 0.8220604 0.5253962 0.8220604 0.5282846 0.8306332 0.5253962 0.8220604 0.5282846 0.8306332 0.5282846 0.8306332 0.5282846 0.8306332 0.5282846 0.8306332 0.5302293 0.839468 0.5282846 0.8306332 0.5302293 0.839468 0.5302293 0.839468 0.5302293 0.839468 0.5302293 0.839468 0.5312074 0.8484613 0.5302293 0.839468 0.5312074 0.8484613 0.5312074 0.8484613 0.5312074 0.8484613 0.5312074 0.8484613 0.5312074 0.8575074 0.5312074 0.8484613 0.5312074 0.8575074 0.5312074 0.8575074 0.5312074 0.8575074 0.5312074 0.8575074 0.5302293 0.8665006 0.5312074 0.8575074 0.5302293 0.8665006 0.5302293 0.8665006 0.5302293 0.8665006 0.5302293 0.8665006 0.5282846 0.8753354 0.5302293 0.8665006 0.5282846 0.8753354 0.5282846 0.8753354 0.5282846 0.8753354 0.5282846 0.8753354 0.5253962 0.883908 0.5282846 0.8753354 0.5253962 0.883908 0.5253962 0.883908 0.5253962 0.883908 0.5253962 0.883908 0.5215979 0.8921182 0.5253962 0.883908 0.5215979 0.8921182 0.5215979 0.8921182 0.5215979 0.8921182 0.5215979 0.8921182 0.5169339 0.8998696 0.5215979 0.8921182 0.5169339 0.8998696 0.5169339 0.8998696 0.5169339 0.8998696 0.5169339 0.8998696 0.5114595 0.9070711 0.5169339 0.8998696 0.5114595 0.9070711 0.5114595 0.9070711 0.5114595 0.9070711 0.5114595 0.9070711 0.5052384 0.9136387 0.5114595 0.9070711 0.5052384 0.9136387 0.5052384 0.9136387 0.5052384 0.9136387 0.5052384 0.9136387 0.4983436 0.9194951 0.5052384 0.9136387 0.4983436 0.9194951 0.4983436 0.9194951 0.4983436 0.9194951 0.4983436 0.9194951 0.4908562 0.9245718 0.4983436 0.9194951 0.4908562 0.9245718 0.4908562 0.9245718 0.4908562 0.9245718 0.4908562 0.9245718 0.4828637 0.9288091 0.4908562 0.9245718 0.4828637 0.9288091 0.4828637 0.9288091 0.4828637 0.9288091 0.4828637 0.9288091 0.47446 0.9321575 0.4828637 0.9288091 0.47446 0.9321575 0.47446 0.9321575 0.47446 0.9321575 0.47446 0.9321575 0.4657434 0.9345775 0.47446 0.9321575 0.4657434 0.9345775 0.4657434 0.9345775 0.4657434 0.9345775 0.4657434 0.9345775 0.4568163 0.9360411 0.4657434 0.9345775 0.4568163 0.9360411 0.4568163 0.9360411 0.4568163 0.9360411 0.4568163 0.9360411 0.4477834 0.9365309 0.4568163 0.9360411 0.4477834 0.9365309 0.4477834 0.9365309 0.4477834 0.9365309 0.4477834 0.9365309 0.4387504 0.9360411 0.4477834 0.9365309 0.4387504 0.9360411 0.4387504 0.9360411 0.4387504 0.9360411 0.4387504 0.9360411 0.4298234 0.9345775 0.4387504 0.9360411 0.4298234 0.9345775 0.4298234 0.9345775 0.4298234 0.9345775 0.4298234 0.9345775 0.4211068 0.9321575 0.4298234 0.9345775 0.4211068 0.9321575 0.4211068 0.9321575 0.4211068 0.9321575 0.4211068 0.9321575 0.4127032 0.9288091 0.4211068 0.9321575 0.4127032 0.9288091 0.4127032 0.9288091 0.4127032 0.9288091 0.4127032 0.9288091 0.4047107 0.9245718 0.4127032 0.9288091 0.4047107 0.9245718 0.4047107 0.9245718 0.4047107 0.9245718 0.4047107 0.9245718 0.3972231 0.9194951 0.4047107 0.9245718 0.3972231 0.9194951 0.3972231 0.9194951 0.3972231 0.9194951 0.3972231 0.9194951 0.3903285 0.9136387 0.3972231 0.9194951 0.3903285 0.9136387 0.3903285 0.9136387 0.3903285 0.9136387 0.3903285 0.9136387 0.3841075 0.9070711 0.3903285 0.9136387 0.3841075 0.9070711 0.3841075 0.9070711 0.3841075 0.9070711 0.3841075 0.9070711 0.3786328 0.8998696 0.3841075 0.9070711 0.3786328 0.8998696 0.3786328 0.8998696 0.3786328 0.8998696 0.3786328 0.8998696 0.373969 0.8921182 0.3786328 0.8998696 0.373969 0.8921182 0.373969 0.8921182 0.373969 0.8921182 0.373969 0.8921182 0.3701705 0.883908 0.373969 0.8921182 0.3701705 0.883908 0.3701705 0.883908 0.3701705 0.883908 0.3701705 0.883908 0.3672822 0.8753354 0.3701705 0.883908 0.3672822 0.8753354 0.3672822 0.8753354 0.3672822 0.8753354 0.3672822 0.8753354 0.3653374 0.8665006 0.3672822 0.8753354 0.3653374 0.8665006 0.3653374 0.8665006 0.3653374 0.8665006 0.3653374 0.8665006 0.3643594 0.8575074 0.3653374 0.8665006 0.3643594 0.8575074 0.3643594 0.8575074 0.3643594 0.8575074 0.3643594 0.8575074 0.3643594 0.8484613 0.3643594 0.8575074 0.3643594 0.8484613 0.3643594 0.8484613 0.3643594 0.8484613 0.3643594 0.8484613 0.3653374 0.839468 0.3643594 0.8484613 0.3653374 0.839468 0.3653374 0.839468 0.3653374 0.839468 0.3653374 0.839468 0.3672822 0.8306332 0.3653374 0.839468 0.3672822 0.8306332 0.3672822 0.8306332 0.3672822 0.8306332 0.3672822 0.8306332 0.3701705 0.8220604 0.3672822 0.8306332 0.3701705 0.8220604 0.3701705 0.8220604 0.3701705 0.8220604 0.3701705 0.8220604 0.373969 0.8138502 0.3701705 0.8220604 0.373969 0.8138502 0.373969 0.8138502 0.373969 0.8138502 0.373969 0.8138502 0.3786328 0.8060989 0.373969 0.8138502 0.3786328 0.8060989 0.3786328 0.8060989 0.3786328 0.8060989 0.3786328 0.8060989 0.3841075 0.7988975 0.3786328 0.8060989 0.3841075 0.7988975 0.3841075 0.7988975 0.3841075 0.7988975 0.3841075 0.7988975 0.3903285 0.7923298 0.3841075 0.7988975 0.3903285 0.7923298 0.3903285 0.7923298 0.3903285 0.7923298 0.3903285 0.7923298 0.3972231 0.7864733 0.3903285 0.7923298 0.3972231 0.7864733 0.3972231 0.7864733 0.3972231 0.7864733 0.3972231 0.7864733 0.4047107 0.7813969 0.3972231 0.7864733 0.4047107 0.7813969 0.4047107 0.7813969 0.4047107 0.7813969 0.4047107 0.7813969 0.4127032 0.7771593 0.4047107 0.7813969 0.4127032 0.7771593 0.4127032 0.7771593 0.4127032 0.7771593 0.4127032 0.7771593 0.4211068 0.7738111 0.4127032 0.7771593 0.4211068 0.7738111 0.4211068 0.7738111 0.4211068 0.7738111 0.4211068 0.7738111 0.4298234 0.771391 0.4211068 0.7738111 0.4298234 0.771391 0.4298234 0.771391 0.4298234 0.771391 0.4298234 0.771391 0.4387504 0.7699275 0.4298234 0.771391 0.4387504 0.7699275 0.4387504 0.7699275 0.4387504 0.7699275 0.4387504 0.7699275 0.4477834 0.7694379 0.4387504 0.7699275 0.4477834 0.7694379 0.4477834 0.7694379 -0.001279294 -0.001279294 1.001279 -0.001279294 -0.001279294 -0.001279294 1.001279 -0.001279294 1.001279 -0.001279294 -0.001279294 -0.001279294 0.6810872 0.265443 0.6810872 0.265443 0.6901201 0.2659329 0.6810872 0.265443 0.6901201 0.2659329 0.6901201 0.2659329 0.6901201 0.2659329 0.6901201 0.2659329 0.6990473 0.2673964 0.6901201 0.2659329 0.6990473 0.2673964 0.6990473 0.2673964 0.6990473 0.2673964 0.6990473 0.2673964 0.7077636 0.2698165 0.6990473 0.2673964 0.7077636 0.2698165 0.7077636 0.2698165 0.7077636 0.2698165 0.7077636 0.2698165 0.7161673 0.2731649 0.7077636 0.2698165 0.7161673 0.2731649 0.7161673 0.2731649 0.7161673 0.2731649 0.7161673 0.2731649 0.72416 0.2774022 0.7161673 0.2731649 0.72416 0.2774022 0.72416 0.2774022 0.72416 0.2774022 0.72416 0.2774022 0.7316473 0.2824788 0.72416 0.2774022 0.7316473 0.2824788 0.7316473 0.2824788 0.7316473 0.2824788 0.7316473 0.2824788 0.738542 0.2883352 0.7316473 0.2824788 0.738542 0.2883352 0.738542 0.2883352 0.738542 0.2883352 0.738542 0.2883352 0.7447631 0.2949028 0.738542 0.2883352 0.7447631 0.2949028 0.7447631 0.2949028 0.7447631 0.2949028 0.7447631 0.2949028 0.7502378 0.3021044 0.7447631 0.2949028 0.7502378 0.3021044 0.7502378 0.3021044 0.7502378 0.3021044 0.7502378 0.3021044 0.7549015 0.3098557 0.7502378 0.3021044 0.7549015 0.3098557 0.7549015 0.3098557 0.7549015 0.3098557 0.7549015 0.3098557 0.7586999 0.3180658 0.7549015 0.3098557 0.7586999 0.3180658 0.7586999 0.3180658 0.7586999 0.3180658 0.7586999 0.3180658 0.7615882 0.3266386 0.7586999 0.3180658 0.7615882 0.3266386 0.7615882 0.3266386 0.7615882 0.3266386 0.7615882 0.3266386 0.763533 0.3354734 0.7615882 0.3266386 0.763533 0.3354734 0.763533 0.3354734 0.763533 0.3354734 0.763533 0.3354734 0.764511 0.3444666 0.763533 0.3354734 0.764511 0.3444666 0.764511 0.3444666 0.764511 0.3444666 0.764511 0.3444666 0.764511 0.3535128 0.764511 0.3444666 0.764511 0.3535128 0.764511 0.3535128 0.764511 0.3535128 0.764511 0.3535128 0.763533 0.362506 0.764511 0.3535128 0.763533 0.362506 0.763533 0.362506 0.763533 0.362506 0.763533 0.362506 0.7615882 0.3713408 0.763533 0.362506 0.7615882 0.3713408 0.7615882 0.3713408 0.7615882 0.3713408 0.7615882 0.3713408 0.7586999 0.3799134 0.7615882 0.3713408 0.7586999 0.3799134 0.7586999 0.3799134 0.7586999 0.3799134 0.7586999 0.3799134 0.7549015 0.3881236 0.7586999 0.3799134 0.7549015 0.3881236 0.7549015 0.3881236 0.7549015 0.3881236 0.7549015 0.3881236 0.7502378 0.3958749 0.7549015 0.3881236 0.7502378 0.3958749 0.7502378 0.3958749 0.7502378 0.3958749 0.7502378 0.3958749 0.7447631 0.4030765 0.7502378 0.3958749 0.7447631 0.4030765 0.7447631 0.4030765 0.7447631 0.4030765 0.7447631 0.4030765 0.738542 0.4096441 0.7447631 0.4030765 0.738542 0.4096441 0.738542 0.4096441 0.738542 0.4096441 0.738542 0.4096441 0.7316473 0.4155005 0.738542 0.4096441 0.7316473 0.4155005 0.7316473 0.4155005 0.7316473 0.4155005 0.7316473 0.4155005 0.72416 0.4205771 0.7316473 0.4155005 0.72416 0.4205771 0.72416 0.4205771 0.72416 0.4205771 0.72416 0.4205771 0.7161673 0.4248145 0.72416 0.4205771 0.7161673 0.4248145 0.7161673 0.4248145 0.7161673 0.4248145 0.7161673 0.4248145 0.7077636 0.4281628 0.7161673 0.4248145 0.7077636 0.4281628 0.7077636 0.4281628 0.7077636 0.4281628 0.7077636 0.4281628 0.6990473 0.4305829 0.7077636 0.4281628 0.6990473 0.4305829 0.6990473 0.4305829 0.6990473 0.4305829 0.6990473 0.4305829 0.6901201 0.4320465 0.6990473 0.4305829 0.6901201 0.4320465 0.6901201 0.4320465 0.6901201 0.4320465 0.6901201 0.4320465 0.6810872 0.4325362 0.6901201 0.4320465 0.6810872 0.4325362 0.6810872 0.4325362 0.6810872 0.4325362 0.6810872 0.4325362 0.6720541 0.4320465 0.6810872 0.4325362 0.6720541 0.4320465 0.6720541 0.4320465 0.6720541 0.4320465 0.6720541 0.4320465 0.6631271 0.4305829 0.6720541 0.4320465 0.6631271 0.4305829 0.6631271 0.4305829 0.6631271 0.4305829 0.6631271 0.4305829 0.6544106 0.4281628 0.6631271 0.4305829 0.6544106 0.4281628 0.6544106 0.4281628 0.6544106 0.4281628 0.6544106 0.4281628 0.6460068 0.4248145 0.6544106 0.4281628 0.6460068 0.4248145 0.6460068 0.4248145 0.6460068 0.4248145 0.6460068 0.4248145 0.6380144 0.4205771 0.6460068 0.4248145 0.6380144 0.4205771 0.6380144 0.4205771 0.6380144 0.4205771 0.6380144 0.4205771 0.6305269 0.4155005 0.6380144 0.4205771 0.6305269 0.4155005 0.6305269 0.4155005 0.6305269 0.4155005 0.6305269 0.4155005 0.6236323 0.4096441 0.6305269 0.4155005 0.6236323 0.4096441 0.6236323 0.4096441 0.6236323 0.4096441 0.6236323 0.4096441 0.6174111 0.4030765 0.6236323 0.4096441 0.6174111 0.4030765 0.6174111 0.4030765 0.6174111 0.4030765 0.6174111 0.4030765 0.6119365 0.3958749 0.6174111 0.4030765 0.6119365 0.3958749 0.6119365 0.3958749 0.6119365 0.3958749 0.6119365 0.3958749 0.6072728 0.3881236 0.6119365 0.3958749 0.6072728 0.3881236 0.6072728 0.3881236 0.6072728 0.3881236 0.6072728 0.3881236 0.6034743 0.3799134 0.6072728 0.3881236 0.6034743 0.3799134 0.6034743 0.3799134 0.6034743 0.3799134 0.6034743 0.3799134 0.6005859 0.3713408 0.6034743 0.3799134 0.6005859 0.3713408 0.6005859 0.3713408 0.6005859 0.3713408 0.6005859 0.3713408 0.5986412 0.362506 0.6005859 0.3713408 0.5986412 0.362506 0.5986412 0.362506 0.5986412 0.362506 0.5986412 0.362506 0.5976632 0.3535128 0.5986412 0.362506 0.5976632 0.3535128 0.5976632 0.3535128 0.5976632 0.3535128 0.5976632 0.3535128 0.5976632 0.3444666 0.5976632 0.3535128 0.5976632 0.3444666 0.5976632 0.3444666 0.5976632 0.3444666 0.5976632 0.3444666 0.5986412 0.3354734 0.5976632 0.3444666 0.5986412 0.3354734 0.5986412 0.3354734 0.5986412 0.3354734 0.5986412 0.3354734 0.6005859 0.3266386 0.5986412 0.3354734 0.6005859 0.3266386 0.6005859 0.3266386 0.6005859 0.3266386 0.6005859 0.3266386 0.6034743 0.3180658 0.6005859 0.3266386 0.6034743 0.3180658 0.6034743 0.3180658 0.6034743 0.3180658 0.6034743 0.3180658 0.6072728 0.3098557 0.6034743 0.3180658 0.6072728 0.3098557 0.6072728 0.3098557 0.6072728 0.3098557 0.6072728 0.3098557 0.6119365 0.3021044 0.6072728 0.3098557 0.6119365 0.3021044 0.6119365 0.3021044 0.6119365 0.3021044 0.6119365 0.3021044 0.6174111 0.2949028 0.6119365 0.3021044 0.6174111 0.2949028 0.6174111 0.2949028 0.6174111 0.2949028 0.6174111 0.2949028 0.6236323 0.2883352 0.6174111 0.2949028 0.6236323 0.2883352 0.6236323 0.2883352 0.6236323 0.2883352 0.6236323 0.2883352 0.6305269 0.2824788 0.6236323 0.2883352 0.6305269 0.2824788 0.6305269 0.2824788 0.6305269 0.2824788 0.6305269 0.2824788 0.6380144 0.2774022 0.6305269 0.2824788 0.6380144 0.2774022 0.6380144 0.2774022 0.6380144 0.2774022 0.6380144 0.2774022 0.6460068 0.2731649 0.6380144 0.2774022 0.6460068 0.2731649 0.6460068 0.2731649 0.6460068 0.2731649 0.6460068 0.2731649 0.6544106 0.2698165 0.6460068 0.2731649 0.6544106 0.2698165 0.6544106 0.2698165 0.6544106 0.2698165 0.6544106 0.2698165 0.6631271 0.2673964 0.6544106 0.2698165 0.6631271 0.2673964 0.6631271 0.2673964 0.6631271 0.2673964 0.6631271 0.2673964 0.6720541 0.2659329 0.6631271 0.2673964 0.6720541 0.2659329 0.6720541 0.2659329 0.6720541 0.2659329 0.6720541 0.2659329 0.6810872 0.265443 0.6720541 0.2659329 0.6810872 0.265443 0.6810872 0.265443 1.001279 -0.001279294 1.001279 1.001279 1.001279 -0.001279294 1.001279 1.001279 1.001279 1.001279 1.001279 -0.001279294</float_array>
          <technique_common>
            <accessor source="#Banner_-_Banner-mesh-map-0-array" count="1452" stride="2">
              <param name="S" type="float"/>
              <param name="T" type="float"/>
            </accessor>
          </technique_common>
        </source>
        <vertices id="Banner_-_Banner-mesh-vertices">
          <input semantic="POSITION" source="#Banner_-_Banner-mesh-positions"/>
        </vertices>
        <triangles material="Material_001-material" count="484">
          <input semantic="VERTEX" source="#Banner_-_Banner-mesh-vertices" offset="0"/>
          <input semantic="NORMAL" source="#Banner_-_Banner-mesh-normals" offset="1"/>
          <input semantic="TEXCOORD" source="#Banner_-_Banner-mesh-map-0" offset="2" set="0"/>
          <p>0 0 0 1 0 1 2 0 2 3 1 3 4 1 4 5 1 5 6 2 6 7 2 7 2 2 8 8 3 9 9 3 10 10 3 11 11 4 12 12 4 13 13 4 14 2 5 15 14 5 16 15 5 17 15 6 18 16 6 19 2 6 20 16 7 21 17 7 22 2 7 23 2 8 24 17 8 25 0 8 26 7 9 27 18 9 28 2 9 29 18 10 30 19 10 31 2 10 32 2 11 33 19 11 34 20 11 35 20 12 36 21 12 37 2 12 38 21 13 39 22 13 40 2 13 41 2 14 42 22 14 43 23 14 44 11 15 45 13 15 46 2 15 47 13 16 48 24 16 49 2 16 50 2 17 51 24 17 52 14 17 53 1 18 54 25 18 55 2 18 56 25 19 57 26 19 58 2 19 59 2 20 60 26 20 61 27 20 62 28 21 63 29 21 64 5 21 65 30 22 66 31 22 67 5 22 68 31 23 69 32 23 70 5 23 71 8 24 72 10 24 73 33 24 74 11 25 75 34 25 76 35 25 77 11 26 78 36 26 79 37 26 80 37 27 81 38 27 82 11 27 83 38 28 84 39 28 85 11 28 86 11 29 87 39 29 88 40 29 89 40 30 90 41 30 91 11 30 92 41 31 93 42 31 94 11 31 95 11 32 96 42 32 97 43 32 98 28 33 99 5 33 100 44 33 101 32 34 102 45 34 103 5 34 104 45 35 105 46 35 106 5 35 107 5 36 108 46 36 109 3 36 110 4 37 111 47 37 112 5 37 113 47 38 114 48 38 115 5 38 116 5 39 117 48 39 118 49 39 119 49 40 120 50 40 121 5 40 122 50 41 123 51 41 124 5 41 125 5 42 126 51 42 127 10 42 128 51 43 129 52 43 130 10 43 131 10 44 132 52 44 133 33 44 134 53 45 135 54 45 136 55 45 137 54 46 138 56 46 139 55 46 140 57 47 141 58 47 142 10 47 143 58 48 144 59 48 145 10 48 146 10 49 147 59 49 148 60 49 149 35 50 150 61 50 151 11 50 152 61 51 153 62 51 154 11 51 155 11 52 156 62 52 157 36 52 158 43 53 159 63 53 160 11 53 161 63 54 162 64 54 163 11 54 164 11 55 165 64 55 166 12 55 167 6 56 168 2 56 169 65 56 170 2 57 171 27 57 172 65 57 173 65 58 174 27 58 175 55 58 176 27 59 177 66 59 178 55 59 179 55 60 180 66 60 181 67 60 182 56 61 183 68 61 184 55 61 185 68 62 186 69 62 187 55 62 188 55 63 189 69 63 190 70 63 191 9 64 192 71 64 193 10 64 194 71 65 195 72 65 196 10 65 197 10 66 198 72 66 199 73 66 200 73 67 201 74 67 202 10 67 203 74 68 204 75 68 205 10 68 206 10 69 207 75 69 208 76 69 209 29 70 210 77 70 211 5 70 212 77 71 213 78 71 214 5 71 215 5 72 216 78 72 217 30 72 218 67 73 219 79 73 220 55 73 221 79 74 222 80 74 223 55 74 224 55 75 225 80 75 226 81 75 227 60 76 228 82 76 229 10 76 230 82 77 231 83 77 232 10 77 233 10 78 234 83 78 235 11 78 236 83 79 237 84 79 238 11 79 239 11 80 240 84 80 241 34 80 242 23 81 243 85 81 244 2 81 245 85 82 246 86 82 247 2 82 248 2 83 249 86 83 250 5 83 251 86 84 252 87 84 253 5 84 254 5 85 255 87 85 256 44 85 257 81 86 258 88 86 259 55 86 260 88 87 261 89 87 262 55 87 263 55 88 264 89 88 265 53 88 266 90 89 267 91 89 268 10 89 269 91 90 270 92 90 271 10 90 272 10 91 273 92 91 274 57 91 275 93 92 276 94 92 277 10 92 278 94 93 279 95 93 280 10 93 281 10 94 282 95 94 283 90 94 284 76 95 285 96 95 286 10 95 287 96 96 288 97 96 289 10 96 290 10 97 291 97 97 292 98 97 293 98 98 294 99 98 295 10 98 296 99 99 297 100 99 298 10 99 299 10 100 300 100 100 301 101 100 302 101 101 303 102 101 304 10 101 305 102 102 306 103 102 307 10 102 308 10 103 309 103 103 310 93 103 311 103 104 312 104 104 313 93 104 314 105 105 315 106 105 316 107 105 317 105 106 318 108 106 319 106 106 320 108 107 321 109 107 322 106 107 323 106 108 324 109 108 325 110 108 326 107 109 327 111 109 328 105 109 329 111 110 330 112 110 331 105 110 332 105 111 333 112 111 334 113 111 335 112 112 336 114 112 337 113 112 338 113 113 339 114 113 340 115 113 341 114 114 342 116 114 343 115 114 344 115 115 345 116 115 346 69 115 347 116 116 348 117 116 349 69 116 350 69 117 351 117 117 352 70 117 353 104 118 354 118 118 355 93 118 356 118 119 357 106 119 358 93 119 359 93 120 360 106 120 361 119 120 362 106 121 363 110 121 364 119 121 365 120 122 366 121 122 367 122 122 368 123 123 369 124 123 370 120 123 371 124 124 372 125 124 373 120 124 374 120 125 375 125 125 376 121 125 377 126 126 378 127 126 379 128 126 380 129 127 381 130 127 382 131 127 383 130 128 384 132 128 385 131 128 386 132 129 387 133 129 388 131 129 389 131 130 390 133 130 391 120 130 392 133 131 393 134 131 394 120 131 395 120 132 396 134 132 397 123 132 398 135 133 399 136 133 400 137 133 401 136 134 402 138 134 403 137 134 404 138 135 405 139 135 406 137 135 407 137 136 408 139 136 409 140 136 410 126 137 411 128 137 412 141 137 413 142 138 414 128 138 415 143 138 416 122 139 417 144 139 418 120 139 419 144 140 420 145 140 421 120 140 422 120 141 423 145 141 424 146 141 425 147 142 426 148 142 427 149 142 428 150 143 429 151 143 430 140 143 431 152 144 432 153 144 433 131 144 434 153 145 435 154 145 436 131 145 437 146 146 438 155 146 439 120 146 440 155 147 441 156 147 442 120 147 443 120 148 444 156 148 445 157 148 446 154 149 447 158 149 448 131 149 449 158 150 450 159 150 451 131 150 452 131 151 453 159 151 454 160 151 455 161 152 456 162 152 457 131 152 458 162 153 459 163 153 460 131 153 461 131 154 462 163 154 463 129 154 464 157 155 465 164 155 466 120 155 467 164 156 468 165 156 469 120 156 470 120 157 471 165 157 472 166 157 473 127 158 474 167 158 475 128 158 476 167 159 477 168 159 478 128 159 479 128 160 480 168 160 481 169 160 482 141 161 483 128 161 484 140 161 485 128 162 486 170 162 487 140 162 488 140 163 489 170 163 490 150 163 491 171 164 492 172 164 493 137 164 494 172 165 495 173 165 496 137 165 497 137 166 498 173 166 499 174 166 500 175 167 501 176 167 502 131 167 503 176 168 504 177 168 505 131 168 506 131 169 507 177 169 508 161 169 509 166 170 510 178 170 511 120 170 512 178 171 513 179 171 514 120 171 515 120 172 516 179 172 517 137 172 518 179 173 519 180 173 520 137 173 521 137 174 522 180 174 523 135 174 524 169 175 525 181 175 526 128 175 527 181 176 528 182 176 529 128 176 530 128 177 531 182 177 532 143 177 533 183 178 534 184 178 535 185 178 536 184 179 537 186 179 538 185 179 539 185 180 540 186 180 541 187 180 542 188 181 543 189 181 544 137 181 545 189 182 546 190 182 547 137 182 548 137 183 549 190 183 550 191 183 551 149 184 552 148 184 553 192 184 554 148 185 555 193 185 556 192 185 557 192 186 558 193 186 559 194 186 560 194 187 561 193 187 562 185 187 563 193 188 564 195 188 565 185 188 566 185 189 567 195 189 568 183 189 569 151 190 570 196 190 571 140 190 572 196 191 573 197 191 574 140 191 575 140 192 576 197 192 577 137 192 578 197 193 579 198 193 580 137 193 581 137 194 582 198 194 583 188 194 584 191 195 585 199 195 586 137 195 587 199 196 588 200 196 589 137 196 590 137 197 591 200 197 592 201 197 593 201 198 594 202 198 595 137 198 596 202 199 597 203 199 598 137 199 599 137 200 600 203 200 601 171 200 602 204 201 603 205 201 604 206 201 605 205 202 606 207 202 607 206 202 608 206 203 609 207 203 610 208 203 611 208 204 612 209 204 613 206 204 614 209 205 615 210 205 616 206 205 617 206 206 618 210 206 619 211 206 620 160 207 621 212 207 622 131 207 623 212 208 624 213 208 625 131 208 626 131 209 627 213 209 628 185 209 629 214 210 630 215 210 631 149 210 632 215 211 633 216 211 634 149 211 635 149 212 636 216 212 637 147 212 638 211 213 639 217 213 640 206 213 641 217 214 642 218 214 643 206 214 644 206 215 645 218 215 646 219 215 647 220 216 648 221 216 649 131 216 650 187 217 651 222 217 652 185 217 653 222 218 654 223 218 655 185 218 656 185 219 657 223 219 658 131 219 659 223 220 660 224 220 661 131 220 662 131 221 663 224 221 664 175 221 665 142 222 666 143 222 667 225 222 668 143 223 669 226 223 670 225 223 671 225 224 672 226 224 673 149 224 674 226 225 675 227 225 676 149 225 677 149 226 678 227 226 679 214 226 680 174 227 681 228 227 682 137 227 683 228 228 684 229 228 685 137 228 686 137 229 687 229 229 688 206 229 689 229 230 690 230 230 691 206 230 692 230 231 693 231 231 694 206 231 695 206 232 696 231 232 697 232 232 698 221 233 699 233 233 700 131 233 701 233 234 702 234 234 703 131 234 704 131 235 705 234 235 706 152 235 707 232 236 708 235 236 709 206 236 710 235 237 711 236 237 712 206 237 713 206 238 714 236 238 715 204 238 716 219 239 717 237 239 718 206 239 719 237 240 720 238 240 721 206 240 722 206 241 723 238 241 724 131 241 725 238 242 726 239 242 727 131 242 728 131 243 729 239 243 730 220 243 731 120 244 732 137 244 733 5 244 734 137 245 735 2 245 736 5 245 737 131 246 738 120 246 739 10 246 740 120 247 741 5 247 742 10 247 743 169 248 744 55 248 745 181 248 746 55 249 747 70 249 748 181 249 749 181 250 750 70 250 751 182 250 752 70 251 753 117 251 754 182 251 755 182 252 756 117 252 757 143 252 758 117 253 759 116 253 760 143 253 761 143 254 762 116 254 763 226 254 764 116 255 765 114 255 766 226 255 767 226 256 768 114 256 769 227 256 770 114 257 771 112 257 772 227 257 773 227 258 774 112 258 775 214 258 776 112 259 777 111 259 778 214 259 779 214 260 780 111 260 781 215 260 782 111 261 783 107 261 784 215 261 785 215 262 786 107 262 787 216 262 788 107 263 789 106 263 790 216 263 791 216 264 792 106 264 793 147 264 794 106 265 795 118 265 796 147 265 797 147 266 798 118 266 799 148 266 800 118 267 801 104 267 802 148 267 803 148 268 804 104 268 805 193 268 806 104 269 807 103 269 808 193 269 809 193 270 810 103 270 811 195 270 812 103 271 813 102 271 814 195 271 815 195 272 816 102 272 817 183 272 818 102 273 819 101 273 820 183 273 821 183 274 822 101 274 823 184 274 824 101 275 825 100 275 826 184 275 827 184 276 828 100 276 829 186 276 830 100 277 831 99 277 832 186 277 833 186 278 834 99 278 835 187 278 836 99 279 837 98 279 838 187 279 839 187 280 840 98 280 841 222 280 842 98 281 843 97 281 844 222 281 845 222 282 846 97 282 847 223 282 848 97 283 849 96 283 850 223 283 851 223 284 852 96 284 853 224 284 854 96 285 855 76 285 856 224 285 857 224 286 858 76 286 859 175 286 860 76 287 861 75 287 862 175 287 863 175 288 864 75 288 865 176 288 866 75 289 867 74 289 868 176 289 869 176 290 870 74 290 871 177 290 872 74 291 873 73 291 874 177 291 875 177 292 876 73 292 877 161 292 878 73 293 879 72 293 880 161 293 881 161 294 882 72 294 883 162 294 884 72 295 885 71 295 886 162 295 887 162 296 888 71 296 889 163 296 890 71 297 891 9 297 892 163 297 893 163 298 894 9 298 895 129 298 896 9 299 897 8 299 898 129 299 899 129 300 900 8 300 901 130 300 902 8 301 903 33 301 904 130 301 905 130 302 906 33 302 907 132 302 908 33 303 909 52 303 910 132 303 911 132 304 912 52 304 913 133 304 914 52 305 915 51 305 916 133 305 917 133 306 918 51 306 919 134 306 920 51 307 921 50 307 922 134 307 923 134 308 924 50 308 925 123 308 926 50 309 927 49 309 928 123 309 929 123 310 930 49 310 931 124 310 932 49 311 933 48 311 934 124 311 935 124 312 936 48 312 937 125 312 938 48 313 939 47 313 940 125 313 941 125 314 942 47 314 943 121 314 944 47 315 945 4 315 946 121 315 947 121 316 948 4 316 949 122 316 950 4 317 951 3 317 952 122 317 953 122 318 954 3 318 955 144 318 956 3 319 957 46 319 958 144 319 959 144 320 960 46 320 961 145 320 962 46 321 963 45 321 964 145 321 965 145 322 966 45 322 967 146 322 968 45 323 969 32 323 970 146 323 971 146 324 972 32 324 973 155 324 974 32 325 975 31 325 976 155 325 977 155 326 978 31 326 979 156 326 980 31 327 981 30 327 982 156 327 983 156 328 984 30 328 985 157 328 986 30 329 987 78 329 988 157 329 989 157 330 990 78 330 991 164 330 992 78 331 993 77 331 994 164 331 995 164 332 996 77 332 997 165 332 998 77 333 999 29 333 1000 165 333 1001 165 334 1002 29 334 1003 166 334 1004 29 335 1005 28 335 1006 166 335 1007 166 336 1008 28 336 1009 178 336 1010 28 337 1011 44 337 1012 178 337 1013 178 338 1014 44 338 1015 179 338 1016 44 339 1017 87 339 1018 179 339 1019 179 340 1020 87 340 1021 180 340 1022 87 341 1023 86 341 1024 180 341 1025 180 342 1026 86 342 1027 135 342 1028 86 343 1029 85 343 1030 135 343 1031 135 344 1032 85 344 1033 136 344 1034 85 345 1035 23 345 1036 136 345 1037 136 346 1038 23 346 1039 138 346 1040 23 347 1041 22 347 1042 138 347 1043 138 348 1044 22 348 1045 139 348 1046 22 349 1047 21 349 1048 139 349 1049 139 350 1050 21 350 1051 140 350 1052 21 351 1053 20 351 1054 140 351 1055 140 352 1056 20 352 1057 141 352 1058 20 353 1059 19 353 1060 141 353 1061 141 354 1062 19 354 1063 126 354 1064 19 355 1065 18 355 1066 126 355 1067 126 356 1068 18 356 1069 127 356 1070 18 357 1071 7 357 1072 127 357 1073 127 358 1074 7 358 1075 167 358 1076 7 359 1077 6 359 1078 167 359 1079 167 360 1080 6 360 1081 168 360 1082 6 361 1083 65 361 1084 168 361 1085 168 362 1086 65 362 1087 169 362 1088 65 363 1089 55 363 1090 169 363 1091 137 364 1092 206 364 1093 2 364 1094 206 365 1095 11 365 1096 2 365 1097 231 366 1098 12 366 1099 232 366 1100 12 367 1101 64 367 1102 232 367 1103 232 368 1104 64 368 1105 235 368 1106 64 369 1107 63 369 1108 235 369 1109 235 370 1110 63 370 1111 236 370 1112 63 371 1113 43 371 1114 236 371 1115 236 372 1116 43 372 1117 204 372 1118 43 373 1119 42 373 1120 204 373 1121 204 374 1122 42 374 1123 205 374 1124 42 375 1125 41 375 1126 205 375 1127 205 376 1128 41 376 1129 207 376 1130 41 377 1131 40 377 1132 207 377 1133 207 378 1134 40 378 1135 208 378 1136 40 379 1137 39 379 1138 208 379 1139 208 380 1140 39 380 1141 209 380 1142 39 381 1143 38 381 1144 209 381 1145 209 382 1146 38 382 1147 210 382 1148 38 383 1149 37 383 1150 210 383 1151 210 384 1152 37 384 1153 211 384 1154 37 385 1155 36 385 1156 211 385 1157 211 386 1158 36 386 1159 217 386 1160 36 387 1161 62 387 1162 217 387 1163 217 388 1164 62 388 1165 218 388 1166 62 389 1167 61 389 1168 218 389 1169 218 390 1170 61 390 1171 219 390 1172 61 391 1173 35 391 1174 219 391 1175 219 392 1176 35 392 1177 237 392 1178 35 393 1179 34 393 1180 237 393 1181 237 394 1182 34 394 1183 238 394 1184 34 395 1185 84 395 1186 238 395 1187 238 396 1188 84 396 1189 239 396 1190 84 397 1191 83 397 1192 239 397 1193 239 398 1194 83 398 1195 220 398 1196 83 399 1197 82 399 1198 220 399 1199 220 400 1200 82 400 1201 221 400 1202 82 401 1203 60 401 1204 221 401 1205 221 402 1206 60 402 1207 233 402 1208 60 403 1209 59 403 1210 233 403 1211 233 404 1212 59 404 1213 234 404 1214 59 405 1215 58 405 1216 234 405 1217 234 406 1218 58 406 1219 152 406 1220 58 407 1221 57 407 1222 152 407 1223 152 408 1224 57 408 1225 153 408 1226 57 409 1227 92 409 1228 153 409 1229 153 410 1230 92 410 1231 154 410 1232 92 411 1233 91 411 1234 154 411 1235 154 412 1236 91 412 1237 158 412 1238 91 413 1239 90 413 1240 158 413 1241 158 414 1242 90 414 1243 159 414 1244 90 415 1245 95 415 1246 159 415 1247 159 416 1248 95 416 1249 160 416 1250 95 417 1251 94 417 1252 160 417 1253 160 418 1254 94 418 1255 212 418 1256 94 419 1257 93 419 1258 212 419 1259 212 420 1260 93 420 1261 213 420 1262 93 421 1263 119 421 1264 213 421 1265 213 422 1266 119 422 1267 185 422 1268 119 423 1269 110 423 1270 185 423 1271 185 424 1272 110 424 1273 194 424 1274 110 425 1275 109 425 1276 194 425 1277 194 426 1278 109 426 1279 192 426 1280 109 427 1281 108 427 1282 192 427 1283 192 428 1284 108 428 1285 149 428 1286 108 429 1287 105 429 1288 149 429 1289 149 430 1290 105 430 1291 225 430 1292 105 431 1293 113 431 1294 225 431 1295 225 432 1296 113 432 1297 142 432 1298 113 433 1299 115 433 1300 142 433 1301 142 434 1302 115 434 1303 128 434 1304 115 435 1305 69 435 1306 128 435 1307 128 436 1308 69 436 1309 170 436 1310 69 437 1311 68 437 1312 170 437 1313 170 438 1314 68 438 1315 150 438 1316 68 439 1317 56 439 1318 150 439 1319 150 440 1320 56 440 1321 151 440 1322 56 441 1323 54 441 1324 151 441 1325 151 442 1326 54 442 1327 196 442 1328 54 443 1329 53 443 1330 196 443 1331 196 444 1332 53 444 1333 197 444 1334 53 445 1335 89 445 1336 197 445 1337 197 446 1338 89 446 1339 198 446 1340 89 447 1341 88 447 1342 198 447 1343 198 448 1344 88 448 1345 188 448 1346 88 449 1347 81 449 1348 188 449 1349 188 450 1350 81 450 1351 189 450 1352 81 451 1353 80 451 1354 189 451 1355 189 452 1356 80 452 1357 190 452 1358 80 453 1359 79 453 1360 190 453 1361 190 454 1362 79 454 1363 191 454 1364 79 455 1365 67 455 1366 191 455 1367 191 456 1368 67 456 1369 199 456 1370 67 457 1371 66 457 1372 199 457 1373 199 458 1374 66 458 1375 200 458 1376 66 459 1377 27 459 1378 200 459 1379 200 460 1380 27 460 1381 201 460 1382 27 461 1383 26 461 1384 201 461 1385 201 462 1386 26 462 1387 202 462 1388 26 463 1389 25 463 1390 202 463 1391 202 464 1392 25 464 1393 203 464 1394 25 465 1395 1 465 1396 203 465 1397 203 466 1398 1 466 1399 171 466 1400 1 467 1401 0 467 1402 171 467 1403 171 468 1404 0 468 1405 172 468 1406 0 469 1407 17 469 1408 172 469 1409 172 470 1410 17 470 1411 173 470 1412 17 471 1413 16 471 1414 173 471 1415 173 472 1416 16 472 1417 174 472 1418 16 473 1419 15 473 1420 174 473 1421 174 474 1422 15 474 1423 228 474 1424 15 475 1425 14 475 1426 228 475 1427 228 476 1428 14 476 1429 229 476 1430 14 477 1431 24 477 1432 229 477 1433 229 478 1434 24 478 1435 230 478 1436 24 479 1437 13 479 1438 230 479 1439 230 480 1440 13 480 1441 231 480 1442 13 481 1443 12 481 1444 231 481 1445 206 482 1446 131 482 1447 11 482 1448 131 483 1449 10 483 1450 11 483 1451</p>
        </triangles>
      </mesh>
    </geometry>
  </library_geometries>
  <library_visual_scenes>
    <visual_scene id="Scene" name="Scene">
      <node id="Banner_-_Banner" name="Banner - Banner" type="NODE">
        <matrix sid="transform">1 0 0 0 0 1 0 0 0 0 1 0 0 0 0 1</matrix>
        <instance_geometry url="#Banner_-_Banner-mesh" name="Banner - Banner">
          <bind_material>
            <technique_common>
              <instance_material symbol="Material_001-material" target="#Material_001-material">
                <bind_vertex_input semantic="UVMap" input_semantic="TEXCOORD" input_set="0"/>
              </instance_material>
            </technique_common>
          </bind_material>
        </instance_geometry>
      </node>
      <node id="Camera" name="Camera" type="NODE">
        <matrix sid="transform">0.6859207 -0.3240135 0.6515582 7.358891 0.7276763 0.3054208 -0.6141704 -6.925791 0 0.8953956 0.4452714 4.958309 0 0 0 1</matrix>
        <instance_camera url="#Camera-camera"/>
      </node>
      <node id="Light" name="Light" type="NODE">
        <matrix sid="transform">-0.2908646 -0.7711008 0.5663932 4.076245 0.9551712 -0.1998834 0.2183912 1.005454 -0.05518906 0.6045247 0.7946723 5.903862 0 0 0 1</matrix>
        <instance_light url="#Light-light"/>
      </node>
    </visual_scene>
  </library_visual_scenes>
  <scene>
    <instance_visual_scene url="#Scene"/>
  </scene>
</COLLADA>