# Blender 5.0.1
# www.blender.org
o T200-THRUSTER-R1_-_CW_T200_prop
v -0.001113 -0.009033 0.000495
v -0.000097 -0.007824 0.001364
v -0.001113 -0.007569 0.002301
v -0.000097 -0.008062 0.003184
v -0.001113 -0.009368 0.003777
v -0.000097 -0.009829 0.003688
v -0.001113 -0.011054 0.001949
v -0.000097 -0.010908 0.002204
v -0.000097 -0.009815 0.000522
v -0.000097 0.009497 -0.003888
v -0.001113 0.011063 -0.002141
v -0.000097 0.010917 -0.001847
v -0.000097 0.009276 -0.000438
v -0.001113 0.009211 -0.000477
v -0.001113 0.007846 -0.001453
v -0.000097 0.007603 -0.002050
v -0.001113 0.007799 -0.002629
v -0.001113 0.009005 -0.003791
v -0.018883 -0.013630 0.020762
v -0.018585 -0.011186 0.020732
v -0.018504 -0.008329 0.018391
v -0.007261 0.004775 0.037885
v -0.006320 0.005587 0.028099
v -0.015639 -0.011812 0.025508
v -0.023525 -0.014390 0.013942
v -0.012462 -0.003467 0.019846
v -0.019395 -0.011881 0.016260
v -0.012497 -0.000604 0.020051
v -0.008691 0.003409 0.019725
v -0.006222 0.005093 0.019405
v -0.011134 -0.001800 0.030584
v -0.013537 -0.008313 0.031266
v -0.011028 -0.005210 0.037753
v -0.007776 0.000941 0.038167
v -0.010732 -0.006124 0.037615
v -0.012812 -0.009065 0.031372
v -0.015454 -0.011530 0.026914
v -0.008650 0.001293 0.025839
v -0.005236 0.007421 0.037371
v -0.007575 0.004194 0.033582
v -0.015984 -0.010483 0.025802
v -0.019213 -0.013885 0.019356
v -0.000097 0.001473 0.020046
v -0.030113 0.018750 -0.007270
v -0.013737 0.018418 -0.008186
v -0.009685 0.017190 -0.010384
v -0.000097 0.018178 -0.008547
v -0.016768 -0.013632 -0.014875
v -0.030113 -0.009920 -0.017488
v -0.014139 -0.013796 -0.014643
v -0.000097 -0.011399 -0.016555
v -0.020027 -0.007502 -0.018585
v -0.000096 -0.002929 -0.019945
v -0.023475 -0.004846 -0.019421
v -0.030113 -0.002833 -0.019892
v -0.021583 -0.007943 -0.018454
v -0.000095 -0.017479 -0.009972
v -0.000096 -0.019887 -0.002900
v -0.030113 -0.019938 -0.003033
v -0.006204 -0.019331 -0.005252
v -0.009338 -0.017780 -0.009273
v -0.010184 -0.018409 -0.008017
v -0.030113 -0.016556 -0.011399
v -0.000096 0.020101 -0.000045
v -0.020064 0.019838 0.002831
v -0.000097 0.018771 0.006909
v -0.023501 0.019247 0.005506
v -0.030113 0.018240 0.008510
v -0.030111 0.020037 0.001366
v -0.014501 0.019709 -0.004119
v -0.000098 0.013429 -0.014873
v -0.006202 0.014217 -0.014116
v -0.030112 0.013756 -0.014610
v -0.008596 0.015354 -0.012882
v -0.020655 0.020104 0.000935
v -0.000096 -0.007378 0.018705
v -0.000096 0.008653 0.018149
v -0.030112 0.004332 0.019622
v -0.030113 -0.004407 0.019623
v -0.030113 -0.009855 0.017406
v -0.030110 -0.014879 0.013381
v -0.000097 -0.014686 0.013652
v -0.000097 -0.019336 0.005516
v -0.030113 -0.019107 0.006262
v -0.000097 0.006286 -0.019100
v -0.030113 0.005540 -0.019329
v -0.030113 0.012890 0.015433
v -0.000097 0.015417 0.012909
v -0.001113 -0.007689 0.016933
v -0.030113 -0.007027 0.017219
v -0.001113 0.000131 0.018597
v -0.030113 0.000853 0.018578
v -0.001113 0.009661 0.016096
v -0.030113 0.008574 0.016502
v -0.030113 0.014711 0.011377
v -0.001113 0.016492 0.008595
v -0.030113 0.018662 0.002033
v -0.001113 0.018576 0.000876
v -0.001113 0.016595 -0.008776
v -0.030113 0.016087 -0.009675
v -0.001113 0.009475 -0.016002
v -0.030113 0.008847 -0.016358
v -0.001113 0.001880 -0.018502
v -0.030113 0.001161 -0.018561
v -0.001113 -0.006062 -0.017581
v -0.030113 -0.006740 -0.017333
v -0.001113 -0.012884 -0.013411
v -0.030113 -0.013395 -0.012901
v -0.001113 -0.017324 -0.006761
v -0.030113 -0.017574 -0.006084
v -0.001113 -0.018528 0.003017
v -0.030113 -0.018334 0.004032
v -0.001113 -0.014089 0.012139
v -0.030113 -0.013607 0.012677
v -0.001113 -0.000285 0.005846
v -0.000097 0.001211 0.005628
v -0.001113 0.004595 0.003468
v -0.000097 0.004700 0.003194
v -0.000097 0.005649 -0.001528
v -0.001113 0.005536 -0.001898
v -0.000097 0.001864 -0.005447
v -0.001113 0.001521 -0.005553
v -0.000097 -0.002381 -0.005160
v -0.001113 -0.002661 -0.005021
v -0.000097 -0.005629 -0.001603
v -0.001113 -0.005462 -0.001819
v -0.001113 -0.004923 0.002985
v -0.000097 -0.004053 0.004222
v -0.007119 0.017565 -0.014711
v -0.017767 0.024466 -0.001848
v -0.007261 0.030422 -0.023078
v -0.007575 0.026986 -0.020423
v -0.006318 0.021561 -0.018904
v -0.011028 0.035300 -0.014365
v -0.011134 0.027387 -0.013733
v -0.014194 0.030158 -0.007029
v -0.007776 0.032583 -0.019899
v -0.010732 0.035637 -0.013504
v -0.012812 0.031702 -0.007836
v -0.015454 0.029073 -0.003472
v -0.011260 0.024233 -0.009882
v -0.005236 0.028654 -0.025112
v -0.019616 0.023950 0.002310
v -0.019231 0.023692 0.002361
v -0.015639 0.027996 -0.002525
v -0.006412 -0.035537 -0.013751
v -0.006318 -0.027152 -0.009221
v -0.010405 -0.031671 -0.021294
v -0.011134 -0.025587 -0.016851
v -0.015103 -0.018922 -0.021897
v -0.007741 -0.033605 -0.018121
v -0.010815 -0.029501 -0.024120
v -0.012135 -0.024618 -0.023699
v -0.015214 -0.016995 -0.023072
v -0.015214 -0.018026 -0.023511
v -0.008462 -0.023348 -0.011604
v -0.005236 -0.036075 -0.012259
v -0.019616 -0.009974 -0.021897
v -0.019227 -0.009799 -0.021695
vn -0.3087 -0.3705 0.8760
vn 0.3594 -0.7249 0.5877
vn -0.3460 -0.9303 -0.1215
vn 0.3421 -0.5959 -0.7266
vn -0.2040 -0.2687 -0.9414
vn 0.2643 0.7089 -0.6539
vn 0.0307 0.8085 -0.5876
vn -0.2496 0.8121 0.5275
vn 0.3935 0.5367 0.7464
vn 0.3536 -0.5851 0.7298
vn -0.2722 -0.7899 0.5495
vn 0.1249 -0.6461 -0.7530
vn 0.0707 -0.6665 -0.7421
vn -0.0061 0.5815 -0.8135
vn -0.2491 0.6719 -0.6975
vn 0.2108 0.9768 -0.0386
vn -0.2667 0.6688 0.6939
vn -0.2599 0.6725 0.6929
vn -0.8911 0.0293 0.4529
vn 0.7887 -0.4939 -0.3660
vn -0.8131 -0.3362 0.4753
vn 0.9183 -0.3739 -0.1298
vn 0.9105 -0.4065 -0.0761
vn -0.9095 -0.0200 0.4152
vn -0.8584 0.5129 -0.0065
vn -0.7961 0.6047 -0.0234
vn -0.8274 0.1077 0.5512
vn -0.8565 -0.2154 0.4691
vn -0.8766 0.3572 0.3226
vn -0.7163 0.6976 0.0132
vn -0.8821 0.4416 0.1643
vn -0.8770 0.3190 0.3593
vn -0.7953 0.5822 0.1690
vn -0.7243 0.6890 0.0259
vn 0.6341 -0.6316 -0.4460
vn -0.1516 -0.9657 0.2108
vn -0.5672 0.8218 -0.0531
vn 0.8698 -0.4919 0.0378
vn -0.8838 0.1134 0.4539
vn -0.8253 0.3715 0.4252
vn 0.4094 -0.9097 0.0687
vn 0.6059 -0.7917 0.0788
vn 0.8926 -0.4444 -0.0759
vn 0.8660 -0.4567 -0.2035
vn 0.2843 -0.9004 0.3294
vn -0.9142 -0.0038 0.4053
vn -0.9215 0.3453 0.1779
vn -0.9159 0.3571 0.1834
vn 0.8341 -0.4363 -0.3376
vn 0.8368 -0.5373 -0.1054
vn 0.8062 -0.5900 -0.0442
vn 0.3113 -0.9389 0.1470
vn 0.9289 -0.3686 -0.0357
vn -0.7937 0.6077 -0.0274
vn 0.0219 -0.3715 -0.9282
vn 0.0030 -0.2969 -0.9549
vn -0.0302 -0.3211 -0.9466
vn -0.0339 -0.3167 -0.9479
vn -0.0211 -0.5448 -0.8383
vn 0.0330 -0.7341 -0.6782
vn -0.0047 -0.9506 -0.3105
vn 0.0379 -0.9460 -0.3221
vn 0.0030 -0.9322 -0.3619
vn -0.0179 -0.8105 -0.5854
vn 0.0244 -0.8092 -0.5870
vn -0.0226 -0.9269 -0.3747
vn -0.0438 -0.6755 -0.7361
vn 0.0233 -0.5182 -0.8549
vn 0.0141 0.9821 0.1877
vn 0.0064 0.9746 0.2238
vn -0.0367 0.9691 0.2438
vn 0.0359 0.9747 -0.2204
vn -0.0179 0.9993 -0.0329
vn -0.0209 0.9219 -0.3868
vn -0.0002 0.7351 -0.6779
vn 0.0287 0.7994 -0.6001
vn 0.0335 0.7967 -0.6034
vn -0.0147 0.8267 -0.5625
vn -0.0167 0.8290 -0.5590
vn 0.0015 0.9827 0.1853
vn -0.0137 0.9890 -0.1474
vn 0.0102 0.9846 -0.1743
vn 0.0438 -0.1497 0.9878
vn 0.0497 0.2551 0.9656
vn -0.0516 0.0888 0.9947
vn -0.0012 0.0823 0.9966
vn 0.0031 0.1818 0.9833
vn 0.0259 -0.2293 0.9730
vn -0.0243 0.0002 0.9997
vn -0.0201 -0.6252 0.7802
vn 0.0105 -0.5973 0.8019
vn -0.0290 -0.3768 0.9258
vn 0.0285 -0.5685 0.8222
vn 0.0005 -0.6791 0.7341
vn -0.0313 -0.3700 0.9285
vn 0.0027 -0.9716 -0.2367
vn 0.0014 -0.9979 0.0654
vn -0.0054 -0.9960 0.0890
vn 0.0057 -0.8682 0.4962
vn 0.0009 -0.8597 0.5107
vn -0.0012 -0.7471 0.6647
vn 0.0013 0.6983 -0.7158
vn -0.0020 0.5092 -0.8606
vn -0.0057 0.4981 -0.8671
vn 0.0053 0.0913 -0.9958
vn -0.0015 0.0671 -0.9977
vn -0.0025 -0.2354 -0.9719
vn -0.0022 0.3360 0.9418
vn -0.0192 0.4396 0.8980
vn 0.0149 0.6124 0.7904
vn -0.0152 0.7911 0.6115
vn 0.0106 0.8728 0.4880
vn 0.0002 0.9481 0.3180
vn -0.0049 0.2081 -0.9781
vn 0.0049 0.1700 -0.9854
vn -0.0057 -0.2538 -0.9672
vn -0.0038 -0.2595 -0.9657
vn 0.0133 -0.6410 -0.7674
vn -0.0192 -0.7392 -0.6732
vn 0.0192 -0.9209 -0.3894
vn -0.0133 -0.9653 -0.2607
vn 0.0051 -0.9796 0.2011
vn 0.0104 -0.9766 0.2148
vn -0.0093 -0.7123 0.7018
vn 0.0057 -0.6782 0.7348
vn -0.0049 -0.3126 0.9499
vn 0.0049 -0.2755 0.9613
vn -0.0049 0.1151 0.9933
vn 0.0049 0.1536 0.9881
vn -0.0049 0.5216 0.8532
vn 0.0049 0.5543 0.8323
vn -0.0049 0.8316 0.5553
vn 0.0049 0.8525 0.5226
vn -0.0057 0.9925 0.1222
vn 0.0093 0.9971 0.0750
vn -0.0093 0.8991 -0.4376
vn 0.0057 0.8774 -0.4798
vn -0.0049 0.5995 -0.8003
vn 0.0049 0.5680 -0.8230
vn -0.5060 0.2226 -0.8333
vn 0.4125 -0.3989 -0.8190
vn -0.1603 -0.5648 -0.8095
vn 0.0477 -0.9793 -0.1969
vn 0.1702 -0.9706 -0.1701
vn -0.1702 -0.7087 0.6846
vn 0.1488 -0.6656 0.7313
vn -0.1255 0.0670 0.9898
vn 0.1002 0.1255 0.9870
vn -0.1109 0.7339 0.6702
vn -0.0168 0.7525 0.6584
vn 0.1835 0.9769 -0.1097
vn -0.4533 0.8604 -0.2328
vn 0.5060 0.4528 -0.7341
vn 0.7765 -0.0920 0.6233
vn -0.7794 0.1241 -0.6142
vn -0.9215 -0.0186 -0.3880
vn -0.9127 -0.0203 -0.4082
vn -0.8139 0.5785 0.0543
vn 0.9183 0.0745 0.3888
vn 0.6059 0.4640 0.6462
vn 0.9174 0.0841 0.3891
vn -0.8790 0.1356 -0.4572
vn -0.7961 -0.3226 -0.5120
vn -0.9019 0.3814 -0.2029
vn -0.7253 -0.3364 -0.6007
vn -0.8832 -0.0332 -0.4679
vn -0.8659 -0.0563 -0.4971
vn -0.7355 -0.3130 -0.6009
vn -0.5692 -0.4553 -0.6846
vn 0.1828 0.4447 0.8768
vn 0.6178 -0.0379 0.7854
vn 0.8354 0.3093 0.4543
vn 0.8057 0.3101 0.5047
vn -0.8692 0.3572 -0.3420
vn -0.8804 0.3182 -0.3518
vn 0.3011 0.5948 0.7454
vn -0.8584 -0.2621 -0.4410
vn 0.8368 -0.0841 0.5411
vn 0.7865 0.3650 0.4981
vn 0.8319 0.0996 0.5460
vn 0.8115 0.1411 0.5671
vn 0.8847 0.1668 0.4352
vn 0.8850 0.1567 0.4384
vn -0.8163 0.3771 -0.4375
vn 0.8684 0.0452 0.4937
vn 0.2843 0.7355 0.6150
vn -0.9225 0.3082 -0.2326
vn 0.2894 0.6035 0.7430
vn 0.9289 0.1534 0.3371
vn -0.7937 -0.3276 -0.5126
vn 0.7785 0.5837 -0.2308
vn -0.9027 -0.3190 0.2886
vn -0.9280 -0.3482 -0.1327
vn 0.9191 0.2730 -0.2842
vn 0.6161 0.3085 -0.7247
vn -0.8903 -0.4393 0.1198
vn -0.8938 -0.3294 0.3043
vn 0.2777 0.1568 -0.9478
vn -0.6172 -0.3686 0.6951
vn -0.8843 -0.3112 0.3480
vn -0.8084 -0.5461 0.2196
vn -0.7808 -0.4411 0.4424
vn -0.5871 -0.3595 0.7253
vn 0.1850 0.5366 -0.8233
vn 0.6231 0.6971 -0.3546
vn -0.8231 -0.5486 -0.1467
vn 0.8705 0.2126 -0.4440
vn 0.8016 0.3337 -0.4961
vn 0.8121 0.3294 -0.4817
vn -0.8704 -0.4266 -0.2457
vn -0.8703 -0.4536 -0.1918
vn 0.3070 0.3412 -0.8885
vn -0.9281 -0.3489 -0.1297
vn 0.8359 0.5066 -0.2115
vn 0.8397 0.3737 -0.3940
vn 0.8985 0.3149 -0.3059
vn 0.9136 0.2455 -0.3241
vn 0.8740 0.3781 -0.3051
vn 0.3543 0.3662 -0.8604
vn 0.9274 0.2164 -0.3052
vn -0.8005 -0.2779 0.5310
vn 1.0000 -0.0000 -0.0000
vn 1.0000 -0.0000 -0.0001
vn 1.0000 -0.0001 0.0002
vn 1.0000 -0.0000 0.0001
vn 1.0000 0.0002 -0.0000
vn 1.0000 0.0001 -0.0000
vn 1.0000 -0.0001 -0.0000
vn 1.0000 0.0003 -0.0000
vn 0.1881 0.0469 0.9810
vn 0.0978 -0.1182 0.9882
vn -0.3344 0.1138 0.9356
vn -1.0000 -0.0000 -0.0000
vn -1.0000 -0.0000 0.0001
vn -1.0000 0.0002 0.0004
vn -1.0000 0.0002 0.0003
vn -1.0000 0.0001 0.0001
vn -1.0000 0.0005 0.0001
vn -1.0000 0.0004 -0.0000
vn -1.0000 0.0002 0.0001
vn -1.0000 -0.0011 0.0009
vn -1.0000 -0.0009 0.0013
vn -1.0000 -0.0000 -0.0005
vn -1.0000 -0.0000 -0.0001
vn -1.0000 -0.0000 -0.0002
vn -1.0000 -0.0003 -0.0001
vn -1.0000 0.0007 -0.0001
vn -1.0000 -0.0002 0.0002
vn -1.0000 0.0001 -0.0001
vn 0.1880 0.8262 -0.5311
vn 0.0978 0.9149 -0.3917
vn -0.3344 0.7533 -0.5663
vn -0.2832 -0.9061 -0.3145
vn 0.1500 -0.8866 -0.4376
vn 0.1757 -0.7682 -0.6156
s 0
f 9//1 2//1 1//1
f 1//2 2//2 3//2
f 2//3 4//3 3//3
f 3//4 4//4 5//4
f 4//5 6//5 5//5
f 5//6 6//6 7//6
f 6//7 8//7 7//7
f 8//8 9//8 7//8
f 7//9 9//9 1//9
f 18//10 10//10 11//10
f 10//11 12//11 11//11
f 12//12 13//12 11//12
f 11//13 13//13 14//13
f 14//14 13//14 15//14
f 13//15 16//15 15//15
f 15//16 16//16 17//16
f 17//17 16//17 18//17
f 16//18 10//18 18//18
f 37//19 41//19 20//19
f 26//20 42//20 27//20
f 32//21 35//21 33//21
f 34//22 35//22 36//22
f 34//23 36//23 38//23
f 32//24 41//24 37//24
f 22//25 40//25 31//25
f 39//26 40//26 22//26
f 20//27 25//27 19//27
f 41//28 32//28 20//28
f 20//29 32//29 31//29
f 23//30 28//30 40//30
f 28//31 31//31 40//31
f 20//32 31//32 21//32
f 21//33 31//33 28//33
f 28//34 23//34 29//34
f 25//35 27//35 42//35
f 19//36 25//36 42//36
f 23//37 30//37 29//37
f 23//38 38//38 30//38
f 37//39 20//39 19//39
f 20//40 21//40 25//40
f 19//41 42//41 24//41
f 24//42 36//42 37//42
f 38//43 23//43 34//43
f 24//44 38//44 36//44
f 36//45 35//45 37//45
f 37//46 35//46 32//46
f 22//47 31//47 33//47
f 31//48 32//48 33//48
f 24//49 42//49 38//49
f 42//50 26//50 38//50
f 38//51 26//51 30//51
f 37//52 19//52 24//52
f 39//53 34//53 23//53
f 23//54 40//54 39//54
f 53//55 51//55 52//55
f 52//56 54//56 53//56
f 55//57 54//57 49//57
f 54//58 56//58 49//58
f 51//59 50//59 52//59
f 57//60 50//60 51//60
f 59//61 62//61 60//61
f 58//62 60//62 57//62
f 57//63 60//63 61//63
f 57//64 61//64 50//64
f 62//65 63//65 48//65
f 63//66 62//66 59//66
f 49//67 48//67 63//67
f 49//68 56//68 48//68
f 64//69 65//69 66//69
f 65//70 67//70 66//70
f 68//71 67//71 69//71
f 64//72 47//72 70//72
f 70//73 65//73 64//73
f 47//74 46//74 70//74
f 72//75 73//75 74//75
f 71//76 72//76 47//76
f 72//77 46//77 47//77
f 44//78 45//78 73//78
f 73//79 45//79 74//79
f 67//80 75//80 69//80
f 69//81 75//81 44//81
f 44//82 75//82 45//82
f 43//83 26//83 76//83
f 77//84 30//84 43//84
f 43//85 30//85 26//85
f 28//86 29//86 78//86
f 78//87 29//87 30//87
f 21//88 28//88 79//88
f 79//89 28//89 78//89
f 80//90 81//90 25//90
f 80//91 25//91 21//91
f 80//92 21//92 79//92
f 76//93 27//93 82//93
f 27//94 25//94 82//94
f 26//95 27//95 76//95
f 60//96 58//96 59//96
f 58//97 83//97 59//97
f 59//98 83//98 84//98
f 83//99 82//99 84//99
f 84//100 82//100 81//100
f 82//101 25//101 81//101
f 72//102 71//102 73//102
f 71//103 85//103 73//103
f 73//104 85//104 86//104
f 85//105 53//105 86//105
f 86//106 53//106 55//106
f 53//107 54//107 55//107
f 30//108 77//108 78//108
f 78//109 77//109 87//109
f 77//110 88//110 87//110
f 87//111 88//111 68//111
f 88//112 66//112 68//112
f 66//113 67//113 68//113
f 89//114 90//114 91//114
f 90//115 92//115 91//115
f 91//116 92//116 93//116
f 92//117 94//117 93//117
f 94//118 95//118 93//118
f 93//119 95//119 96//119
f 95//120 97//120 96//120
f 96//121 97//121 98//121
f 98//122 97//122 99//122
f 97//123 100//123 99//123
f 99//124 100//124 101//124
f 100//125 102//125 101//125
f 101//126 102//126 103//126
f 102//127 104//127 103//127
f 103//128 104//128 105//128
f 104//129 106//129 105//129
f 105//130 106//130 107//130
f 106//131 108//131 107//131
f 107//132 108//132 109//132
f 108//133 110//133 109//133
f 109//134 110//134 111//134
f 110//135 112//135 111//135
f 111//136 112//136 113//136
f 112//137 114//137 113//137
f 113//138 114//138 89//138
f 114//139 90//139 89//139
f 128//140 115//140 116//140
f 115//141 117//141 116//141
f 116//142 117//142 118//142
f 118//143 117//143 119//143
f 117//144 120//144 119//144
f 119//145 120//145 121//145
f 120//146 122//146 121//146
f 121//147 122//147 123//147
f 122//148 124//148 123//148
f 123//149 124//149 125//149
f 124//150 126//150 125//150
f 126//151 127//151 125//151
f 125//152 127//152 128//152
f 127//153 115//153 128//153
f 65//154 70//154 144//154
f 130//155 45//155 75//155
f 134//156 131//156 135//156
f 135//157 136//157 134//157
f 138//158 134//158 136//158
f 137//159 138//159 139//159
f 140//160 145//160 139//160
f 137//161 139//161 141//161
f 135//162 130//162 136//162
f 131//163 142//163 132//163
f 136//164 130//164 140//164
f 133//165 45//165 132//165
f 45//166 135//166 132//166
f 130//167 135//167 45//167
f 45//168 133//168 74//168
f 133//169 72//169 74//169
f 143//170 67//170 144//170
f 67//171 65//171 144//171
f 72//172 133//172 129//172
f 46//173 72//173 129//173
f 75//174 143//174 130//174
f 130//175 143//175 140//175
f 143//176 144//176 145//176
f 131//177 132//177 135//177
f 144//178 141//178 145//178
f 129//179 133//179 46//179
f 144//180 70//180 141//180
f 70//181 46//181 141//181
f 46//182 133//182 141//182
f 141//183 133//183 137//183
f 67//184 143//184 75//184
f 145//185 141//185 139//185
f 139//186 138//186 140//186
f 140//187 138//187 136//187
f 140//188 143//188 145//188
f 142//189 137//189 133//189
f 133//190 132//190 142//190
f 52//191 50//191 159//191
f 149//192 150//192 148//192
f 150//193 152//193 148//193
f 151//194 152//194 153//194
f 154//195 153//195 155//195
f 149//196 48//196 150//196
f 146//197 149//197 148//197
f 152//198 155//198 153//198
f 147//199 62//199 146//199
f 62//200 149//200 146//200
f 56//201 150//201 48//201
f 48//202 149//202 62//202
f 147//203 60//203 62//203
f 158//204 54//204 159//204
f 54//205 52//205 159//205
f 158//206 56//206 54//206
f 60//207 147//207 156//207
f 61//208 60//208 156//208
f 61//209 156//209 50//209
f 56//210 158//210 155//210
f 56//211 155//211 150//211
f 158//212 159//212 154//212
f 150//213 155//213 152//213
f 159//214 156//214 154//214
f 159//215 50//215 156//215
f 156//216 147//216 153//216
f 153//217 147//217 151//217
f 156//218 153//218 154//218
f 155//219 158//219 154//219
f 157//220 151//220 147//220
f 147//221 146//221 157//221
f 16//222 13//222 119//222
f 64//222 66//222 12//222
f 64//223 12//223 47//223
f 128//222 2//222 125//222
f 10//222 16//222 51//222
f 57//224 9//224 58//224
f 12//222 10//222 47//222
f 47//223 10//223 71//223
f 9//222 8//222 58//222
f 58//222 8//222 83//222
f 119//222 13//222 118//222
f 8//222 6//222 83//222
f 83//225 6//225 82//225
f 71//226 10//226 85//226
f 85//227 10//227 53//227
f 53//225 10//225 51//225
f 6//222 4//222 76//222
f 4//222 128//222 76//222
f 76//227 128//227 43//227
f 128//222 116//222 43//222
f 43//228 116//228 77//228
f 77//222 116//222 118//222
f 82//228 6//228 76//228
f 128//222 4//222 2//222
f 118//222 13//222 77//222
f 77//222 13//222 88//222
f 88//222 13//222 66//222
f 66//222 13//222 12//222
f 121//222 123//222 51//222
f 119//222 121//222 16//222
f 16//222 121//222 51//222
f 2//222 9//222 125//222
f 125//222 9//222 123//222
f 123//222 9//222 51//222
f 51//229 9//229 57//229
f 34//230 39//230 22//230
f 34//231 33//231 35//231
f 22//232 33//232 34//232
f 102//233 86//233 104//233
f 86//234 55//234 104//234
f 104//234 55//234 106//234
f 55//235 49//235 106//235
f 106//236 49//236 108//236
f 49//236 63//236 108//236
f 108//237 63//237 110//237
f 63//238 59//238 110//238
f 110//239 59//239 112//239
f 59//240 84//240 112//240
f 112//233 84//233 114//233
f 84//241 81//241 114//241
f 114//242 81//242 90//242
f 81//243 80//243 90//243
f 80//244 79//244 90//244
f 90//245 79//245 92//245
f 79//244 78//244 92//244
f 92//233 78//233 94//233
f 78//233 87//233 94//233
f 94//233 87//233 95//233
f 87//246 68//246 95//246
f 95//246 68//246 97//246
f 68//247 69//247 97//247
f 97//247 69//247 100//247
f 69//248 44//248 100//248
f 44//244 73//244 100//244
f 100//249 73//249 102//249
f 73//249 86//249 102//249
f 98//233 99//233 11//233
f 98//233 11//233 96//233
f 111//233 7//233 1//233
f 120//233 15//233 122//233
f 15//233 17//233 122//233
f 124//233 122//233 107//233
f 122//233 17//233 107//233
f 107//233 17//233 105//233
f 17//233 18//233 105//233
f 11//233 14//233 96//233
f 96//233 14//233 93//233
f 93//233 14//233 91//233
f 18//233 11//233 99//233
f 1//233 126//233 111//233
f 111//233 126//233 109//233
f 109//233 126//233 107//233
f 126//233 124//233 107//233
f 117//233 89//233 14//233
f 89//233 91//233 14//233
f 105//233 18//233 103//233
f 103//233 18//233 101//233
f 101//233 18//233 99//233
f 117//233 115//233 89//233
f 15//233 120//233 14//233
f 120//233 117//233 14//233
f 1//233 3//233 126//233
f 126//233 3//233 127//233
f 3//233 5//233 127//233
f 5//233 113//233 127//233
f 127//233 113//233 115//233
f 113//233 89//233 115//233
f 113//233 5//233 111//233
f 5//233 7//233 111//233
f 137//250 142//250 131//250
f 137//251 134//251 138//251
f 131//252 134//252 137//252
f 146//253 148//253 151//253
f 151//254 157//254 146//254
f 151//255 148//255 152//255
