# Blender 4.4.3
# www.blender.org
mtllib irvine_pool.mtl
o Cube.002
v -13.400001 26.700001 -4.500001
v -11.400001 24.700001 0.499999
v 13.400001 26.700001 -4.499999
v 11.400001 24.700001 0.500001
v -13.400001 -26.700001 -4.500001
v -11.400001 -24.700001 0.499999
v 13.400001 -26.700001 -4.499999
v 11.400001 -24.700001 0.500001
v -13.400001 26.700001 0.499999
v 13.400001 26.700001 0.500001
v 13.400001 -26.700001 0.500001
v -13.400001 -26.700001 0.499999
v -13.400001 26.700001 0.499999
v 13.400001 26.700001 0.500001
v 13.400001 -26.700001 0.500001
v -13.400001 -26.700001 0.499999
v -13.400001 26.700001 0.499999
v 13.400001 26.700001 0.500001
v 13.400001 -26.700001 0.500001
v -13.400001 -26.700001 0.499999
v -11.400001 24.700001 -4.100001
v 11.400001 24.700001 -4.099999
v 11.400001 -24.700001 -2.399999
v -11.400001 -24.700001 -2.400001
v 11.400001 17.600000 -4.099999
v -11.400001 17.600000 -4.100001
vn -1.0000 -0.0000 -0.0000
vn -0.0000 -0.0000 1.0000
vn -0.0000 1.0000 -0.0000
vn -0.0000 -1.0000 -0.0000
vn 1.0000 -0.0000 -0.0000
vn -0.0000 0.0402 0.9992
vn -0.0000 -0.0000 -1.0000
vt 0.012563 0.113309
vt 0.094508 0.113309
vt 0.094508 0.214393
vt 0.997961 0.006118
vt 0.000000 1.000000
vt 0.000000 0.000000
vt 0.094634 0.113309
vt 0.500799 0.214373
vt 0.094634 0.214373
vt 0.094833 0.881968
vt 0.500869 0.817347
vt 0.500869 0.881968
vt 0.501303 0.009665
vt 0.094558 0.112517
vt 0.094558 0.009665
vt 0.583172 0.816943
vt 0.531510 0.816943
vt 0.501226 0.214708
vt 0.500799 0.816973
vt 0.094634 0.816973
vt 0.064224 0.816628
vt 0.012563 0.816628
vt 1.000000 1.000000
vt 0.500799 0.113309
vt 0.094833 0.817347
vt 0.501303 0.112517
vt 0.501226 0.113624
vt 0.583172 0.113624
vt 7.358372 15.760730
vt -8.522066 16.989519
vt -7.241407 15.760730
vt 7.358372 -14.590750
vt 8.639060 16.989519
vt -7.241407 -14.590750
vt 8.639060 -15.819530
vt -8.522066 -15.819530
vt 9.136343 0.265342
vt 12.250460 -14.363310
vt 12.250460 0.265342
vt 2.908114 14.784800
vt 6.022230 -14.363310
vt 6.022230 14.784800
vt 15.364570 -14.363310
vt 15.364570 0.265342
vt 9.136351 -14.363310
vt 9.136343 14.784800
vt 2.908132 14.784800
vt -13.783529 -14.363310
vt 2.908132 -14.363310
vt 9.136343 -14.363310
vt 2.908114 -14.363310
vt -13.783529 14.784800
s 0
usemtl Material.002
f 4/1/1 22/2/1 25/3/1
f 14/4/2 9/5/2 13/6/2
f 15/4/2 10/5/2 14/6/2
f 16/4/2 11/5/2 15/6/2
f 13/4/2 12/5/2 16/6/2
f 18/4/2 13/5/2 17/6/2
f 19/4/2 14/5/2 18/6/2
f 20/4/2 15/5/2 19/6/2
f 17/4/2 16/5/2 20/6/2
f 22/7/2 26/8/2 25/9/2
f 8/10/3 24/11/3 6/12/3
f 2/13/4 22/14/4 4/15/4
f 6/16/5 24/17/5 26/18/5
f 25/9/6 24/19/6 23/20/6
f 23/21/1 8/22/1 25/3/1
f 8/22/1 4/1/1 25/3/1
f 14/4/2 10/23/2 9/5/2
f 15/4/2 11/23/2 10/5/2
f 16/4/2 12/23/2 11/5/2
f 13/4/2 9/23/2 12/5/2
f 18/4/2 14/23/2 13/5/2
f 19/4/2 15/23/2 14/5/2
f 20/4/2 16/23/2 15/5/2
f 17/4/2 13/23/2 16/5/2
f 22/7/2 21/24/2 26/8/2
f 8/10/3 23/25/3 24/11/3
f 2/13/4 21/26/4 22/14/4
f 21/27/5 2/28/5 26/18/5
f 2/28/5 6/16/5 26/18/5
f 25/9/6 26/8/6 24/19/6
usemtl Material.003
f 4/29/2 17/30/2 2/31/2
f 8/32/2 18/33/2 4/29/2
f 6/34/2 19/35/2 8/32/2
f 2/31/2 20/36/2 6/34/2
f 4/29/2 18/33/2 17/30/2
f 8/32/2 19/35/2 18/33/2
f 6/34/2 20/36/2 19/35/2
f 2/31/2 17/30/2 20/36/2
usemtl Material.004
f 9/37/3 3/38/3 1/39/3
f 10/40/5 7/41/5 3/42/5
f 11/39/4 5/43/4 7/44/4
f 12/42/1 1/45/1 5/46/1
f 7/47/7 1/48/7 3/49/7
f 9/37/3 10/50/3 3/38/3
f 10/40/5 11/51/5 7/41/5
f 11/39/4 12/38/4 5/43/4
f 12/42/1 9/41/1 1/45/1
f 7/47/7 5/52/7 1/48/7
