# Blender 4.4.3
# www.blender.org
mtllib osprey_hull_cubes.mtl
o hull
v -0.152174 -0.141174 -0.097650
v -0.152505 -0.141505 -0.095318
v -0.152505 -0.138852 -0.097988
v -0.153500 -0.138852 -0.095318
v -0.149852 -0.141505 -0.097988
v -0.149852 -0.142500 -0.095318
v -0.149852 -0.138852 -0.099000
v -0.149852 -0.055953 -0.099000
v -0.152505 -0.055953 -0.097988
v -0.153500 -0.052638 -0.095318
v -0.113376 -0.055953 -0.099000
v -0.116693 -0.055953 -0.099000
v -0.043301 -0.141505 -0.097988
v -0.045399 -0.138852 -0.099000
v -0.103429 -0.055953 -0.099000
v -0.080217 -0.055953 -0.099000
v -0.152007 -0.051153 -0.160653
v -0.149852 -0.051240 -0.160990
v -0.152255 -0.051240 -0.158321
v -0.149852 -0.051500 -0.158321
v -0.152255 -0.049321 -0.160990
v -0.149852 -0.049321 -0.162000
v -0.153000 -0.049321 -0.158321
v -0.152255 -0.051240 -0.101950
v -0.153000 -0.049321 -0.101950
v -0.149852 -0.051500 -0.101950
v -0.153000 0.146321 -0.158321
v -0.152422 -0.052171 -0.098589
v -0.149852 -0.052258 -0.099097
v -0.152670 -0.049321 -0.098423
v -0.153500 -0.049321 -0.095318
v -0.120009 -0.051500 -0.101950
v -0.120009 -0.052258 -0.099097
v -0.153000 0.143006 -0.101950
v -0.149852 0.146321 -0.162000
v -0.153500 0.082658 -0.021605
v -0.153500 0.146321 -0.095318
v -0.017214 -0.049321 -0.162000
v -0.017214 -0.051500 -0.158321
v -0.083533 -0.051500 -0.101950
v -0.116693 -0.051500 -0.101950
v -0.116693 -0.052258 -0.099264
v -0.113377 -0.052258 -0.099431
v -0.103429 -0.052258 -0.099431
v -0.100113 -0.051500 -0.101950
v -0.096797 -0.051500 -0.101950
v -0.100113 -0.055953 -0.099000
v -0.100113 -0.052258 -0.099264
v -0.096797 -0.052258 -0.099097
v -0.086849 -0.051500 -0.101950
v -0.086849 -0.052258 -0.099097
v -0.083533 -0.055953 -0.099000
v -0.083533 -0.052258 -0.099264
v -0.080217 -0.052258 -0.099431
v -0.033793 -0.052258 -0.099431
v -0.026180 -0.094403 -0.099000
v 0.035194 -0.142500 -0.095318
v -0.033794 -0.055953 -0.099000
v -0.030478 -0.055953 -0.099000
v -0.017213 -0.055953 -0.099000
v 0.058639 -0.138852 -0.099000
v 0.089001 -0.141505 -0.097988
v -0.010582 -0.052637 -0.099000
v -0.013898 -0.055953 -0.099000
v -0.017214 -0.051240 -0.160990
v -0.030478 -0.051500 -0.101950
v -0.027161 -0.051500 -0.101950
v -0.030477 -0.052258 -0.099264
v -0.017214 -0.051500 -0.101950
v -0.027162 -0.052258 -0.099097
v -0.017214 -0.052258 -0.099097
v -0.014704 -0.051153 -0.160653
v -0.014278 -0.051240 -0.158321
v -0.014278 -0.049321 -0.160990
v -0.013000 -0.049321 -0.158321
v -0.013000 -0.029425 -0.101950
v -0.014278 -0.051240 -0.101950
v -0.013000 -0.049321 -0.101950
v -0.013000 -0.026109 -0.101950
v -0.014024 -0.052171 -0.099264
v -0.013598 -0.049321 -0.099097
v -0.013598 -0.029425 -0.099097
v -0.010581 -0.026109 -0.099000
v -0.013598 -0.026109 -0.099264
v -0.013598 -0.022793 -0.099431
v -0.010582 -0.022793 -0.099000
v -0.013000 -0.002898 -0.101950
v -0.013598 -0.006214 -0.099431
v -0.010582 -0.006214 -0.099000
v -0.013000 0.070054 -0.101950
v -0.013000 0.000418 -0.101950
v -0.014278 0.146321 -0.160990
v -0.013598 -0.002898 -0.099264
v -0.013598 0.000418 -0.099097
v -0.010581 -0.002898 -0.099000
v -0.010581 0.073370 -0.099000
v -0.013598 0.070054 -0.099097
v -0.152505 -0.141505 0.037321
v -0.149852 -0.142500 0.037321
v -0.152174 -0.141174 0.039653
v -0.152505 -0.138852 0.039990
v -0.149852 -0.141505 0.039990
v -0.149852 -0.138852 0.041000
v -0.153500 -0.138852 0.037321
v -0.152505 -0.023052 0.039990
v -0.093357 -0.000491 0.041000
v 0.013692 -0.142500 0.037321
v 0.001241 -0.090133 0.041000
v -0.153500 0.048086 0.037321
v -0.149852 0.068240 0.041000
v -0.152505 0.095804 0.039990
v -0.021255 -0.141505 0.039990
v 0.025687 -0.138852 0.041000
v 0.053879 -0.142500 -0.025554
v 0.090193 -0.141505 0.039990
v 0.091515 -0.022486 0.041000
v 0.039743 0.071857 0.041000
v -0.152255 0.146321 -0.160990
v -0.152670 0.143004 -0.098423
v -0.152007 0.148486 -0.160653
v -0.149853 0.148740 -0.160990
v -0.152255 0.148740 -0.158321
v -0.149852 0.149500 -0.158321
v -0.152255 0.148740 -0.101950
v -0.153000 0.146321 -0.101950
v -0.149852 0.149500 -0.101950
v -0.152670 0.146321 -0.098589
v -0.152422 0.149338 -0.098756
v -0.153500 0.149637 -0.095318
v -0.152505 0.152953 -0.097988
v -0.149852 0.149591 -0.099431
v -0.149852 0.152953 -0.099000
v -0.017214 0.148740 -0.160990
v -0.017214 0.149500 -0.158321
v -0.053697 0.149500 -0.101950
v -0.057013 0.149500 -0.101950
v -0.060321 0.149591 -0.099431
v -0.060321 0.152953 -0.099000
v -0.153500 0.235852 -0.095318
v -0.152505 0.235852 -0.097988
v -0.149852 0.235852 -0.099000
v -0.152174 0.238174 -0.097650
v -0.152505 0.238505 -0.095318
v -0.149853 0.238505 -0.097988
v -0.149852 0.239500 -0.095318
v -0.033612 0.239500 -0.095318
v -0.028301 0.238505 -0.097988
v -0.048456 0.235852 -0.099000
v -0.017214 0.146321 -0.162000
v -0.017214 0.149500 -0.101950
v -0.057005 0.149591 -0.099264
v -0.057005 0.152953 -0.099000
v -0.053689 0.149591 -0.099097
v -0.013898 0.152953 -0.099000
v -0.017213 0.149591 -0.099097
v -0.013000 0.146321 -0.158321
v -0.013000 0.073370 -0.101950
v -0.013598 0.073370 -0.099264
v -0.013000 0.099897 -0.101950
v -0.013598 0.076686 -0.099431
v -0.010582 0.076686 -0.099000
v -0.013598 0.096582 -0.099431
v -0.010581 0.096581 -0.099000
v -0.013000 0.103214 -0.101950
v -0.013598 0.099898 -0.099264
v -0.010581 0.099897 -0.099000
v -0.014704 0.148486 -0.160653
v -0.014278 0.148740 -0.158321
v -0.013000 0.146321 -0.101950
v -0.014278 0.148740 -0.101950
v -0.013598 0.103213 -0.099097
v -0.013598 0.119793 -0.099097
v -0.010581 0.123110 -0.099000
v -0.013000 0.119793 -0.101950
v -0.013000 0.123110 -0.101950
v -0.013598 0.123109 -0.099264
v -0.013598 0.126425 -0.099431
v -0.010582 0.126425 -0.099000
v -0.013000 0.143005 -0.101950
v -0.013598 0.139689 -0.099431
v -0.010582 0.139689 -0.099000
v -0.010582 0.143005 -0.099000
v -0.013598 0.143005 -0.099264
v -0.013598 0.146321 -0.099097
v -0.010582 0.149637 -0.099000
v -0.014024 0.149338 -0.099264
v 0.031215 0.215396 -0.099000
v 0.011712 0.239500 -0.024905
v 0.074986 0.235852 -0.099000
v 0.083742 0.238505 -0.097988
v 0.100478 0.239500 -0.095318
v -0.095503 0.110105 0.041000
v -0.152505 0.235852 0.039990
v -0.004621 0.186013 0.041000
v -0.149852 0.235852 0.041000
v -0.152505 0.238505 0.037321
v -0.153500 0.235852 0.037321
v -0.149852 0.239500 0.037321
v -0.152174 0.238174 0.039653
v -0.149852 0.238505 0.039990
v -0.043741 0.238505 0.039990
v 0.027785 0.239500 0.037321
v 0.080400 0.235852 0.041000
v 0.082162 0.238505 0.039990
v 0.137077 -0.046306 -0.099000
v 0.224852 -0.138852 -0.099000
v 0.224852 -0.142500 -0.095318
v 0.039170 0.000301 -0.099000
v 0.146330 0.156983 -0.099000
v 0.224852 -0.141505 -0.097988
v 0.227174 -0.141174 -0.097650
v 0.227505 -0.141505 -0.095318
v 0.227505 -0.138852 -0.097988
v 0.228500 -0.138852 -0.095318
v 0.228500 -0.019171 -0.039399
v 0.224852 -0.023389 -0.099000
v 0.228500 0.076479 -0.095318
v 0.227505 0.048837 -0.097988
v 0.224852 0.095701 -0.099000
v 0.224852 -0.138852 0.041000
v 0.224852 -0.142500 0.037321
v 0.224852 -0.141505 0.039990
v 0.228500 -0.138852 0.037321
v 0.227505 -0.141505 0.037321
v 0.227174 -0.141174 0.039653
v 0.227505 -0.138852 0.039990
v 0.227505 -0.014866 0.039990
v 0.224852 -0.002224 0.041000
v 0.228500 0.075598 0.037321
v 0.224852 0.095131 0.041000
v 0.038880 0.118540 -0.099000
v 0.111549 0.239500 -0.028003
v 0.224853 0.238505 -0.097988
v 0.228500 0.120029 -0.032287
v 0.227505 0.235852 -0.097988
v 0.224852 0.235852 -0.099000
v 0.224852 0.239500 -0.095318
v 0.228500 0.235852 -0.095318
v 0.227174 0.238174 -0.097650
v 0.227505 0.238505 -0.095318
v 0.168731 0.054289 0.041000
v 0.148643 0.170969 0.041000
v 0.224852 0.239500 0.037321
v 0.224852 0.238505 0.039990
v 0.227505 0.112073 0.039990
v 0.224852 0.235852 0.041000
v 0.228500 0.235852 0.037321
v 0.227505 0.235852 0.039990
v 0.227505 0.238505 0.037321
v 0.227174 0.238174 0.039653
vn -0.9215 -0.1816 -0.3434
vn -0.3454 -0.9210 -0.1800
vn -0.1835 -0.3504 -0.9184
vn -0.9371 -0.0000 -0.3492
vn -0.3565 -0.0000 -0.9343
vn -0.0000 -0.9371 -0.3492
vn -0.0000 -0.3565 -0.9343
vn -0.0000 -0.0000 -1.0000
vn -0.1592 -0.1994 -0.9669
vn -0.1076 -0.9930 -0.0484
vn -0.9480 -0.1771 -0.2646
vn -0.1078 -0.9942 -0.0000
vn -0.9322 -0.3619 -0.0000
vn -0.9481 -0.0294 -0.3167
vn -0.3530 -0.1393 -0.9252
vn -0.9638 -0.0689 -0.2577
vn -0.0858 -0.9590 -0.2701
vn -0.9287 -0.3605 0.0868
vn -0.0000 -0.0263 -0.9997
vn -0.0000 -0.9665 -0.2568
vn -1.0000 -0.0000 -0.0000
vn -0.0000 -1.0000 -0.0000
vn -0.0000 -0.1157 -0.9933
vn -0.0000 -0.0712 -0.9975
vn -0.0129 -0.9664 -0.2568
vn -0.0137 -0.9623 -0.2716
vn -0.0000 -0.9624 -0.2716
vn -0.0000 -0.9576 -0.2881
vn -0.0136 -0.9623 -0.2716
vn -0.0000 -0.4660 -0.8848
vn -0.0000 -0.9953 -0.0971
vn 0.9496 -0.2544 -0.1829
vn 0.8323 -0.5543 -0.0000
vn 0.0825 0.0459 -0.9955
vn 0.0322 -0.0000 -0.9995
vn 0.8199 -0.5461 0.1720
vn 0.9787 -0.0000 0.2053
vn 0.0871 -0.0000 -0.9962
vn 0.1413 -0.0000 -0.9900
vn 0.9761 -0.0000 0.2174
vn 0.9729 -0.0000 0.2311
vn 1.0000 -0.0000 -0.0000
vn 0.9019 -0.0000 -0.4319
vn 0.0870 0.0500 -0.9950
vn 0.0474 -0.9942 -0.0970
vn 0.1337 -0.4619 -0.8768
vn 0.0884 -0.9961 -0.0000
vn -0.0000 -0.0696 -0.9976
vn 0.0854 -0.9629 -0.2559
vn 0.1411 0.0497 -0.9887
vn -0.9363 -0.3512 -0.0000
vn -0.3512 -0.9363 -0.0000
vn -0.1833 -0.3499 0.9187
vn -0.9210 -0.3454 0.1801
vn -0.3454 -0.9210 0.1801
vn -0.0000 -0.9370 0.3494
vn -0.0000 -0.0000 1.0000
vn -0.9370 -0.0000 0.3494
vn -0.3559 -0.0000 0.9345
vn -0.0000 -0.3559 0.9345
vn -0.3877 -0.0000 -0.9218
vn -0.9632 -0.0000 -0.2688
vn -0.9661 -0.0000 -0.2583
vn -0.9957 -0.0000 0.0931
vn -0.3810 0.1847 -0.9059
vn -0.2990 0.9447 -0.1345
vn -0.9522 0.1505 -0.2658
vn -0.3017 0.9534 -0.0000
vn -0.9557 0.2943 -0.0000
vn -0.9692 -0.0123 -0.2459
vn -0.9523 0.0423 -0.3024
vn -0.2634 0.1226 -0.9569
vn -0.9672 0.0660 -0.2454
vn -0.9952 -0.0000 0.0977
vn -0.1456 0.9710 -0.1895
vn -0.9515 0.2930 0.0934
vn -0.0000 0.9617 -0.2740
vn -0.0000 0.3855 -0.9227
vn -0.0000 1.0000 -0.0000
vn -0.0000 0.1270 -0.9919
vn -0.0000 0.9993 -0.0363
vn -0.9215 0.1816 -0.3434
vn -0.3454 0.9210 -0.1800
vn -0.3504 0.1836 -0.9184
vn -0.0000 0.9371 -0.3491
vn -0.0000 0.3565 -0.9343
vn 0.0498 0.1269 -0.9907
vn 0.0500 0.0782 -0.9957
vn -0.0000 0.9994 -0.0341
vn -0.0000 0.0289 -0.9996
vn -0.0000 0.9995 -0.0321
vn 0.8761 0.2376 -0.4195
vn 0.8842 0.4671 -0.0000
vn 0.0870 0.0500 -0.9949
vn 0.0702 0.0702 -0.9951
vn 0.8694 0.4593 0.1823
vn 0.3255 -0.0000 -0.9455
vn 0.1327 0.9532 -0.2716
vn 0.3184 0.2066 -0.9252
vn 0.2507 0.9681 -0.0000
vn -0.0461 0.0743 -0.9962
vn 0.0775 0.9965 -0.0320
vn -0.9363 0.3512 -0.0000
vn -0.3499 0.1833 0.9187
vn -0.9210 0.3454 0.1801
vn -0.3454 0.9210 0.1801
vn -0.0000 0.9370 0.3493
vn -0.0000 0.3559 0.9345
vn 0.9215 -0.1815 -0.3433
vn 0.1816 -0.9215 -0.3434
vn 0.1836 -0.3504 -0.9184
vn 0.3565 -0.0000 -0.9343
vn 0.9371 -0.0000 -0.3491
vn 0.9363 -0.3511 -0.0000
vn 0.1833 -0.3499 0.9187
vn 0.9210 -0.3454 0.1801
vn 0.1815 -0.9214 0.3436
vn 0.3559 -0.0000 0.9345
vn 0.9370 -0.0000 0.3493
vn 0.9215 0.1815 -0.3433
vn 0.1815 0.9215 -0.3433
vn 0.3504 0.1836 -0.9184
vn 0.3511 0.9363 -0.0000
vn 0.9363 0.3511 -0.0000
vn 0.3499 0.1833 0.9187
vn 0.9210 0.3454 0.1801
vn 0.1815 0.9214 0.3435
vn -0.3511 0.9363 -0.0000
vn 0.3512 -0.9363 -0.0000
vn -0.9210 -0.3454 -0.1800
vn -0.1816 -0.9215 -0.3434
vn -0.3504 -0.1836 -0.9184
vn -0.3487 -0.4368 -0.8292
vn -0.0552 -0.9938 -0.0970
vn -0.9263 -0.3596 -0.1120
vn -0.1948 -0.0258 -0.9805
vn -0.9497 -0.0000 -0.3131
vn -0.1042 -0.9612 -0.2554
vn -0.9940 -0.0824 -0.0722
vn -0.0501 -0.0712 -0.9962
vn -0.0499 -0.1156 -0.9920
vn 0.0501 -0.0712 -0.9962
vn 0.0499 -0.1156 -0.9920
vn 0.0129 -0.9664 -0.2568
vn 0.0136 -0.9623 -0.2716
vn -0.0000 -0.9953 -0.0972
vn 0.7732 -0.5149 -0.3702
vn 0.0672 -0.0672 -0.9955
vn 0.9804 -0.1383 -0.1405
vn 0.0870 -0.0500 -0.9950
vn 0.1411 -0.0497 -0.9887
vn 0.9787 0.0103 0.2053
vn 0.9760 0.0109 0.2174
vn 0.9787 -0.0103 0.2053
vn 0.0883 -0.9947 -0.0532
vn 0.3158 -0.2422 -0.9174
vn -0.0514 -0.0263 -0.9983
vn 0.0086 -0.9445 -0.3284
vn 0.9760 -0.0109 0.2174
vn -0.3499 -0.1833 0.9187
vn -0.9214 -0.1815 0.3436
vn -0.1815 -0.9214 0.3436
vn -0.1863 0.3788 -0.9065
vn -0.1541 0.9502 -0.2708
vn -0.9473 0.2917 -0.1326
vn -0.3502 0.1869 -0.9179
vn -0.9542 -0.0000 -0.2993
vn -0.9956 0.0047 0.0931
vn -0.3015 0.9528 -0.0346
vn -0.9947 0.0782 -0.0666
vn -0.0000 0.3856 -0.9227
vn -0.9210 0.3454 -0.1800
vn -0.1815 0.9215 -0.3433
vn -0.1836 0.3504 -0.9184
vn -0.0000 0.0783 -0.9969
vn 0.0017 0.9994 -0.0340
vn 0.0016 0.9995 -0.0321
vn -0.0000 0.9995 -0.0320
vn 0.8649 0.4570 -0.2077
vn 0.0870 -0.0500 -0.9949
vn 0.0801 -0.0437 -0.9958
vn 0.9837 0.1321 -0.1223
vn 0.2479 0.9572 -0.1493
vn 0.1607 0.3805 -0.9107
vn 0.2439 0.9415 -0.2328
vn -0.1833 0.3499 0.9187
vn -0.9214 0.1815 0.3436
vn -0.1815 0.9214 0.3435
vn 0.9210 -0.3454 -0.1800
vn 0.3454 -0.9210 -0.1800
vn 0.3504 -0.1836 -0.9184
vn 0.3499 -0.1833 0.9187
vn 0.9214 -0.1815 0.3435
vn 0.3454 -0.9210 0.1801
vn 0.9210 0.3454 -0.1800
vn 0.3454 0.9210 -0.1800
vn 0.1836 0.3504 -0.9184
vn 0.1833 0.3499 0.9187
vn 0.9214 0.1815 0.3435
vn 0.3454 0.9210 0.1801
s 0
f 1//1 4//1 3//1
f 1//2 6//2 2//2
f 1//3 7//3 5//3
f 4//4 9//4 3//4
f 9//5 8//5 3//5
f 13//6 6//6 5//6
f 7//7 13//7 5//7
f 15//8 7//8 11//8
f 21//9 18//9 17//9
f 17//10 20//10 19//10
f 17//11 23//11 21//11
f 20//12 24//12 19//12
f 24//13 23//13 19//13
f 9//14 10//14 28//14
f 28//15 8//15 9//15
f 28//16 31//16 30//16
f 24//17 29//17 28//17
f 24//18 30//18 25//18
f 33//19 12//19 8//19
f 32//20 29//20 26//20
f 36//21 37//21 31//21
f 20//22 41//22 32//22
f 43//23 15//23 11//23
f 42//24 11//24 12//24
f 15//24 48//24 47//24
f 32//25 42//25 33//25
f 41//26 43//26 42//26
f 46//27 48//27 45//27
f 45//28 44//28 41//28
f 51//19 52//19 47//19
f 53//24 16//24 52//24
f 50//25 53//25 51//25
f 50//20 51//20 46//20
f 40//29 54//29 53//29
f 62//6 57//6 13//6
f 61//7 62//7 13//7
f 56//8 61//8 14//8
f 38//30 65//30 18//30
f 65//31 39//31 18//31
f 67//22 66//22 39//22
f 55//23 58//23 16//23
f 66//28 55//28 40//28
f 58//24 68//24 59//24
f 70//19 60//19 59//19
f 69//20 70//20 67//20
f 67//27 68//27 66//27
f 74//32 73//32 72//32
f 78//33 77//33 75//33
f 81//34 63//34 80//34
f 82//35 63//35 81//35
f 81//36 77//36 78//36
f 82//37 78//37 76//37
f 84//38 86//38 83//38
f 88//39 86//39 85//39
f 208//8 83//8 86//8
f 84//40 76//40 79//40
f 85//41 79//41 87//41
f 91//42 75//42 90//42
f 75//43 74//43 92//43
f 94//44 95//44 93//44
f 91//40 93//40 87//40
f 94//37 91//37 90//37
f 97//35 96//35 94//35
f 72//45 39//45 65//45
f 38//46 72//46 65//46
f 77//47 69//47 39//47
f 60//48 80//48 64//48
f 77//49 71//49 69//49
f 93//50 89//50 88//50
f 95//8 208//8 89//8
f 39//22 40//22 20//22
f 47//8 7//8 15//8
f 52//8 16//8 7//8
f 98//51 4//51 2//51
f 6//52 98//52 2//52
f 103//53 100//53 102//53
f 100//54 104//54 98//54
f 99//55 100//55 98//55
f 104//21 10//21 4//21
f 107//56 102//56 99//56
f 108//57 106//57 103//57
f 105//58 109//58 104//58
f 109//21 36//21 104//21
f 110//59 105//59 103//59
f 114//22 99//22 6//22
f 103//60 102//60 112//60
f 114//22 107//22 99//22
f 108//57 103//57 113//57
f 113//60 112//60 115//60
f 117//57 106//57 108//57
f 118//61 35//61 21//61
f 27//62 118//62 21//62
f 37//63 119//63 30//63
f 30//64 34//64 25//64
f 120//65 35//65 118//65
f 123//66 120//66 122//66
f 27//67 120//67 118//67
f 123//68 122//68 124//68
f 125//69 124//69 27//69
f 119//70 37//70 127//70
f 129//71 130//71 128//71
f 128//72 132//72 131//72
f 37//73 128//73 127//73
f 34//74 127//74 125//74
f 131//75 124//75 128//75
f 127//76 124//76 125//76
f 36//21 129//21 37//21
f 134//77 133//77 123//77
f 133//78 149//78 35//78
f 135//79 134//79 123//79
f 136//79 123//79 126//79
f 132//80 137//80 131//80
f 137//81 136//81 131//81
f 139//82 142//82 140//82
f 145//83 142//83 143//83
f 142//84 141//84 140//84
f 146//85 144//85 145//85
f 198//79 146//79 145//79
f 147//86 148//86 141//86
f 139//4 140//4 130//4
f 140//5 132//5 130//5
f 138//87 151//87 137//87
f 152//88 153//88 151//88
f 151//89 135//89 136//89
f 154//90 155//90 153//90
f 155//91 135//91 153//91
f 90//42 75//42 156//42
f 157//42 90//42 156//42
f 158//40 90//40 157//40
f 162//39 161//39 160//39
f 164//42 159//42 156//42
f 165//50 163//50 162//50
f 163//8 231//8 161//8
f 162//41 157//41 159//41
f 158//38 161//38 96//38
f 167//92 156//92 92//92
f 170//93 156//93 168//93
f 172//35 166//35 171//35
f 176//38 178//38 173//38
f 166//8 231//8 163//8
f 172//37 164//37 174//37
f 176//40 174//40 175//40
f 180//39 178//39 177//39
f 231//8 173//8 178//8
f 184//94 182//94 183//94
f 154//95 185//95 186//95
f 185//8 231//8 182//8
f 183//50 181//50 180//50
f 180//41 175//41 179//41
f 169//40 183//40 179//40
f 170//96 184//96 169//96
f 149//97 92//97 38//97
f 134//98 167//98 133//98
f 149//99 167//99 92//99
f 168//100 134//100 150//100
f 155//101 154//101 186//101
f 186//102 150//102 155//102
f 171//44 166//44 165//44
f 164//40 165//40 159//40
f 159//42 157//42 156//42
f 138//8 187//8 152//8
f 188//79 146//79 198//79
f 148//8 187//8 138//8
f 147//86 189//86 148//86
f 191//85 190//85 146//85
f 192//57 110//57 106//57
f 111//58 197//58 109//58
f 36//21 139//21 129//21
f 36//21 197//21 139//21
f 195//59 193//59 110//59
f 197//103 196//103 139//103
f 195//104 199//104 193//104
f 197//105 199//105 196//105
f 199//106 198//106 196//106
f 201//107 198//107 200//107
f 201//108 195//108 203//108
f 204//107 202//107 201//107
f 208//8 205//8 63//8
f 207//22 114//22 57//22
f 205//8 206//8 61//8
f 96//8 209//8 208//8
f 209//8 205//8 208//8
f 210//6 207//6 62//6
f 206//7 210//7 62//7
f 214//109 211//109 213//109
f 211//110 207//110 210//110
f 206//111 211//111 210//111
f 216//112 213//112 206//112
f 205//8 216//8 206//8
f 215//42 214//42 217//42
f 217//113 213//113 218//113
f 219//112 218//112 216//112
f 209//8 219//8 205//8
f 221//56 115//56 107//56
f 241//57 117//57 116//57
f 220//60 115//60 222//60
f 223//114 212//114 214//114
f 225//115 220//115 222//115
f 223//116 225//116 224//116
f 221//117 225//117 222//117
f 227//118 220//118 226//118
f 241//57 116//57 220//57
f 227//119 223//119 229//119
f 230//57 241//57 228//57
f 207//22 221//22 114//22
f 232//79 191//79 188//79
f 189//8 209//8 187//8
f 217//113 218//113 235//113
f 236//112 235//112 219//112
f 237//85 233//85 191//85
f 237//79 191//79 232//79
f 239//120 238//120 235//120
f 237//121 239//121 233//121
f 236//122 239//122 235//122
f 233//86 236//86 189//86
f 234//42 217//42 238//42
f 243//79 232//79 202//79
f 244//107 243//107 204//107
f 203//57 194//57 242//57
f 229//42 215//42 234//42
f 245//118 230//118 227//118
f 246//57 242//57 230//57
f 244//108 203//108 246//108
f 248//118 246//118 245//118
f 248//119 229//119 247//119
f 240//123 237//123 243//123
f 249//124 247//124 240//124
f 250//125 246//125 248//125
f 250//126 247//126 249//126
f 250//127 243//127 244//127
f 117//57 108//57 116//57
f 104//21 31//21 10//21
f 145//128 143//128 196//128
f 212//129 221//129 207//129
f 1//130 2//130 4//130
f 1//131 5//131 6//131
f 1//132 3//132 7//132
f 4//4 10//4 9//4
f 3//5 8//5 7//5
f 7//8 12//8 11//8
f 7//7 14//7 13//7
f 21//133 22//133 18//133
f 17//134 18//134 20//134
f 17//135 19//135 23//135
f 24//13 25//13 23//13
f 20//12 26//12 24//12
f 23//62 27//62 21//62
f 25//21 34//21 23//21
f 28//136 29//136 8//136
f 28//137 10//137 31//137
f 24//138 26//138 29//138
f 24//139 28//139 30//139
f 29//19 33//19 8//19
f 32//20 33//20 29//20
f 23//21 34//21 27//21
f 21//61 35//61 22//61
f 31//63 37//63 30//63
f 22//30 38//30 18//30
f 33//140 42//140 12//140
f 43//23 44//23 15//23
f 42//141 43//141 11//141
f 20//22 46//22 45//22
f 47//142 48//142 49//142
f 15//143 44//143 48//143
f 20//22 45//22 41//22
f 32//27 41//27 42//27
f 41//28 44//28 43//28
f 46//144 49//144 48//144
f 45//145 48//145 44//145
f 20//22 50//22 46//22
f 20//22 40//22 50//22
f 51//140 53//140 52//140
f 54//23 55//23 16//23
f 53//141 54//141 16//141
f 50//27 40//27 53//27
f 40//28 55//28 54//28
f 49//19 51//19 47//19
f 46//20 51//20 49//20
f 35//8 38//8 22//8
f 20//22 32//22 26//22
f 13//6 57//6 6//6
f 57//22 114//22 6//22
f 7//8 56//8 14//8
f 7//8 16//8 56//8
f 58//8 59//8 56//8
f 59//8 60//8 56//8
f 60//8 64//8 56//8
f 14//7 61//7 13//7
f 56//8 63//8 61//8
f 56//8 64//8 63//8
f 18//146 39//146 20//146
f 39//22 66//22 40//22
f 39//22 69//22 67//22
f 58//143 55//143 68//143
f 70//19 71//19 60//19
f 59//142 68//142 70//142
f 66//145 68//145 55//145
f 69//20 71//20 70//20
f 67//144 70//144 68//144
f 74//147 75//147 73//147
f 76//42 78//42 75//42
f 79//42 76//42 75//42
f 75//33 77//33 73//33
f 64//148 80//148 63//148
f 82//35 83//35 63//35
f 81//149 80//149 77//149
f 82//37 81//37 78//37
f 82//150 84//150 83//150
f 84//151 85//151 86//151
f 88//39 89//39 86//39
f 89//8 208//8 86//8
f 84//152 82//152 76//152
f 85//153 84//153 79//153
f 88//41 85//41 87//41
f 83//8 208//8 63//8
f 91//154 94//154 93//154
f 94//35 96//35 95//35
f 97//37 94//37 90//37
f 96//8 208//8 95//8
f 72//155 73//155 39//155
f 38//156 74//156 72//156
f 73//47 77//47 39//47
f 60//157 71//157 80//157
f 77//158 80//158 71//158
f 38//97 92//97 74//97
f 93//38 95//38 89//38
f 87//159 93//159 88//159
f 87//42 79//42 75//42
f 91//42 87//42 75//42
f 8//8 12//8 7//8
f 47//8 52//8 7//8
f 16//8 58//8 56//8
f 6//52 99//52 98//52
f 98//51 104//51 4//51
f 103//160 101//160 100//160
f 100//161 101//161 104//161
f 99//162 102//162 100//162
f 103//59 105//59 101//59
f 101//58 105//58 104//58
f 104//21 36//21 31//21
f 106//57 110//57 103//57
f 110//59 111//59 105//59
f 105//58 111//58 109//58
f 107//56 112//56 102//56
f 113//60 103//60 112//60
f 107//56 115//56 112//56
f 30//64 119//64 34//64
f 120//163 121//163 35//163
f 123//164 121//164 120//164
f 27//165 122//165 120//165
f 27//69 124//69 122//69
f 126//68 123//68 124//68
f 34//21 125//21 27//21
f 128//166 130//166 132//166
f 37//167 129//167 128//167
f 34//168 119//168 127//168
f 131//169 126//169 124//169
f 127//170 128//170 124//170
f 121//171 133//171 35//171
f 123//77 133//77 121//77
f 131//81 136//81 126//81
f 132//80 138//80 137//80
f 129//4 139//4 130//4
f 139//172 143//172 142//172
f 145//173 144//173 142//173
f 142//174 144//174 141//174
f 146//85 147//85 144//85
f 144//86 147//86 141//86
f 141//8 148//8 138//8
f 141//8 138//8 132//8
f 140//5 141//5 132//5
f 35//8 149//8 38//8
f 150//79 134//79 135//79
f 138//175 152//175 151//175
f 152//90 154//90 153//90
f 137//176 151//176 136//176
f 151//177 153//177 135//177
f 155//178 150//178 135//178
f 156//43 75//43 92//43
f 97//150 158//150 96//150
f 158//152 97//152 90//152
f 162//39 163//39 161//39
f 165//38 166//38 163//38
f 162//41 160//41 157//41
f 159//159 165//159 162//159
f 158//151 160//151 161//151
f 161//8 231//8 96//8
f 160//153 158//153 157//153
f 167//179 168//179 156//179
f 170//93 169//93 156//93
f 172//35 173//35 166//35
f 176//151 177//151 178//151
f 172//180 176//180 173//180
f 166//8 173//8 231//8
f 172//37 171//37 164//37
f 177//153 176//153 175//153
f 176//152 172//152 174//152
f 179//42 175//42 156//42
f 180//39 181//39 178//39
f 181//8 231//8 178//8
f 181//8 182//8 231//8
f 169//42 179//42 156//42
f 184//35 185//35 182//35
f 184//181 186//181 185//181
f 183//38 182//38 181//38
f 180//41 177//41 175//41
f 169//154 184//154 183//154
f 170//182 186//182 184//182
f 179//159 183//159 180//159
f 156//42 175//42 174//42
f 134//183 168//183 167//183
f 149//184 133//184 167//184
f 170//100 168//100 150//100
f 186//185 170//185 150//185
f 164//154 171//154 165//154
f 174//42 164//42 156//42
f 152//8 187//8 154//8
f 154//8 187//8 231//8
f 146//85 190//85 147//85
f 147//86 190//86 189//86
f 188//79 191//79 146//79
f 148//8 189//8 187//8
f 136//79 135//79 123//79
f 185//8 154//8 231//8
f 109//21 197//21 36//21
f 110//59 193//59 111//59
f 111//58 193//58 197//58
f 192//57 195//57 110//57
f 198//128 145//128 196//128
f 195//186 200//186 199//186
f 197//187 193//187 199//187
f 199//188 200//188 198//188
f 194//57 195//57 192//57
f 201//108 200//108 195//108
f 117//57 194//57 192//57
f 201//107 202//107 198//107
f 202//79 188//79 198//79
f 204//108 201//108 203//108
f 203//57 195//57 194//57
f 63//8 205//8 61//8
f 61//7 206//7 62//7
f 62//6 207//6 57//6
f 214//189 212//189 211//189
f 211//190 212//190 207//190
f 206//191 213//191 211//191
f 217//113 214//113 213//113
f 216//112 218//112 213//112
f 205//8 219//8 216//8
f 220//60 113//60 115//60
f 220//57 108//57 113//57
f 220//57 116//57 108//57
f 114//22 221//22 107//22
f 221//56 222//56 115//56
f 223//114 224//114 212//114
f 212//129 224//129 221//129
f 225//192 226//192 220//192
f 223//193 226//193 225//193
f 221//194 224//194 225//194
f 227//119 226//119 223//119
f 227//118 228//118 220//118
f 229//42 223//42 215//42
f 227//118 230//118 228//118
f 228//57 241//57 220//57
f 96//8 231//8 209//8
f 187//8 209//8 231//8
f 191//85 233//85 190//85
f 190//86 233//86 189//86
f 234//42 215//42 217//42
f 219//112 235//112 218//112
f 209//8 236//8 219//8
f 239//195 240//195 238//195
f 237//196 240//196 239//196
f 236//197 233//197 239//197
f 189//8 236//8 209//8
f 238//113 217//113 235//113
f 242//57 117//57 241//57
f 242//57 194//57 117//57
f 202//79 232//79 188//79
f 204//107 243//107 202//107
f 244//108 204//108 203//108
f 245//119 227//119 229//119
f 230//57 242//57 241//57
f 245//118 246//118 230//118
f 246//57 203//57 242//57
f 247//42 234//42 238//42
f 248//119 245//119 229//119
f 247//42 229//42 234//42
f 240//124 247//124 238//124
f 249//123 240//123 243//123
f 250//198 244//198 246//198
f 250//199 248//199 247//199
f 250//200 249//200 243//200
f 117//57 192//57 106//57
f 139//103 196//103 143//103
f 215//42 223//42 214//42
f 243//79 237//79 232//79
